<?xml version="1.0" encoding="UTF-8"?>
<svg version="1.1" xmlns="http://www.w3.org/2000/svg" width="256" height="256">
<path d="M0 0 C75.9 0 151.8 0 230 0 C230 16.17 230 32.34 230 49 C234.29 49 238.58 49 243 49 C243 65.83 243 82.66 243 100 C239.02286456 98.01143228 238.39137084 97.34921829 236.04467773 93.9375 C232.95348687 90.31204884 230.89583428 89.38837485 226.15649414 89 C223.86640451 88.95959929 221.57528522 88.96189459 219.28515625 89 C217.46883949 88.9836853 217.46883949 88.9836853 215.61582947 88.96704102 C211.76380882 88.94093057 207.91444914 88.96970188 204.0625 89 C201.44464774 88.99190672 198.82680394 88.98022825 196.20898438 88.96484375 C189.80534395 88.93502386 183.40352963 88.9544075 177 89 C177 81.41 177 73.82 177 66 C173.37 66 169.74 66 166 66 C166 65.01 166 64.02 166 63 C169.63 63 173.26 63 177 63 C176.98839844 62.07316406 176.97679687 61.14632812 176.96484375 60.19140625 C176.95582031 58.99386719 176.94679687 57.79632813 176.9375 56.5625 C176.92589844 55.36753906 176.91429687 54.17257813 176.90234375 52.94140625 C177 50 177 50 178 49 C179.5348297 48.90680551 181.07392082 48.882542 182.61157227 48.88647461 C183.59251358 48.88655014 184.5734549 48.88662567 185.5841217 48.88670349 C186.6507756 48.89186478 187.7174295 48.89702606 188.81640625 48.90234375 C190.44569313 48.90446617 190.44569313 48.90446617 192.1078949 48.90663147 C195.59279075 48.91224952 199.07762342 48.92480508 202.5625 48.9375 C204.91861887 48.94251267 207.27473874 48.94707598 209.63085938 48.95117188 C215.42059743 48.96222482 221.21028799 48.97950154 227 49 C227 43.72 227 38.44 227 33 C153.08 33 79.16 33 3 33 C3 55.11 3 77.22 3 100 C2.01 100 1.02 100 0 100 C0 67 0 34 0 0 Z M169 12 C166.71271266 13.83883881 166.71271266 13.83883881 166.875 16.625 C166.91625 17.40875 166.9575 18.1925 167 19 C169.475 19.99 169.475 19.99 172 21 C173.32 19.68 174.64 18.36 176 17 C174.78969026 14.42672567 174.78969026 14.42672567 173 12 C171.68 12 170.36 12 169 12 Z M189.125 13.1875 C187.78578214 14.93918567 187.78578214 14.93918567 188.1875 17.0625 C188.93470336 19.18712526 188.93470336 19.18712526 191 21 C193.93453261 20.63318342 194.86437246 20.13562754 197 18 C196.67958603 15.39719432 196.67958603 15.39719432 196 13 C192.43173975 11.84871656 192.43173975 11.84871656 189.125 13.1875 Z M212 12 C210.21030974 14.42672567 210.21030974 14.42672567 209 17 C210.72855926 19.14567913 210.72855926 19.14567913 213 21 C215.21858253 20.86358623 215.21858253 20.86358623 217 20 C217.67801034 17.09926819 217.67801034 17.09926819 218 14 C217.34 13.34 216.68 12.68 216 12 C214.68 12 213.36 12 212 12 Z M180 53 C180 63.89 180 74.78 180 86 C185.76017578 86.00386719 185.76017578 86.00386719 191.63671875 86.0078125 C195.3567922 86.03062861 199.0766449 86.06364711 202.79663086 86.09765625 C205.38153881 86.11582213 207.96654396 86.12338372 210.55151367 86.12011719 C214.26818127 86.11726206 217.98283047 86.15256164 221.69921875 86.1953125 C222.85459641 86.18621857 224.00997406 86.17712463 225.20036316 86.16775513 C233.08861007 86.31057705 233.08861007 86.31057705 235.83633423 88.38909912 C237.20629883 90.05029297 237.20629883 90.05029297 239 93 C239.33 93 239.66 93 240 93 C240 79.8 240 66.6 240 53 C220.2 53 200.4 53 180 53 Z " fill="#000000" transform="translate(13,0)"/>
<path d="M0 0 C2.6875 2 2.6875 2 5 4 C6.5159375 4.680625 6.5159375 4.680625 8.0625 5.375 C11.74501853 7.41213791 13.06856999 9.28020887 15 13 C15.75 16.875 15.75 16.875 16 20 C18.64 20 21.28 20 24 20 C24 20.99 24 21.98 24 23 C21.36 23.33 18.72 23.66 16 24 C15.01 27.63 14.02 31.26 13 35 C43.69 35.495 43.69 35.495 75 36 C75 37.32 75 38.64 75 40 C55.2 40 35.4 40 15 40 C14.67 42.31 14.34 44.62 14 47 C12.5625 49.4375 12.5625 49.4375 11 51 C10.34 51 9.68 51 9 51 C8.62875 52.5778125 8.62875 52.5778125 8.25 54.1875 C7.46588704 57.00240912 6.86908444 58.15868552 4.9375 60.5 C2.35262752 63.40966198 2.35262752 63.40966198 2 70 C9.26 70 16.52 70 24 70 C23.67 70.99 23.34 71.98 23 73 C17.06 73.495 17.06 73.495 11 74 C12.10859375 74.54269531 13.2171875 75.08539063 14.359375 75.64453125 C15.82302269 76.36697274 17.2865585 77.08964092 18.75 77.8125 C19.47960937 78.16892578 20.20921875 78.52535156 20.9609375 78.89257812 C21.66992188 79.24384766 22.37890625 79.59511719 23.109375 79.95703125 C23.75874023 80.27647705 24.40810547 80.59592285 25.07714844 80.92504883 C27 82 27 82 28.83361816 83.54016113 C31.32905733 85.22173869 32.60889562 85.39057438 35.58496094 85.43237305 C36.48559265 85.45216721 37.38622437 85.47196136 38.31414795 85.49235535 C39.27782288 85.49874527 40.2414978 85.50513519 41.234375 85.51171875 C42.72411835 85.53864555 42.72411835 85.53864555 44.24395752 85.56611633 C47.41259531 85.62025006 50.58108218 85.65412528 53.75 85.6875 C55.89976059 85.72067032 58.04950127 85.75515971 60.19921875 85.79101562 C65.46601051 85.8759781 70.73282173 85.94431501 76 86 C76 86.99 76 87.98 76 89 C62.47 89 48.94 89 35 89 C36.98 92.96 38.96 96.92 41 101 C41.33 102.98 41.66 104.96 42 107 C61.14 107 80.28 107 100 107 C100 82.25 100 57.5 100 32 C100.99 32 101.98 32 103 32 C103 57.74 103 83.48 103 110 C83.53 110 64.06 110 44 110 C45.98 119.9 45.98 119.9 48 130 C48.8910061 145.81535823 48.8910061 145.81535823 44 152 C41.54547858 154.52815707 38.8696311 156.57693622 35.6875 158.125 C33.63229657 158.94205557 33.63229657 158.94205557 33 162 C32.67 167.94 32.34 173.88 32 180 C2.96 180 -26.08 180 -56 180 C-56.99 169.605 -56.99 169.605 -58 159 C-61.96 156.525 -61.96 156.525 -66 154 C-73.40304172 145.96691218 -72.376877 141.00480837 -72 130 C-70.68 123.4 -69.36 116.8 -68 110 C-87.47 110 -106.94 110 -127 110 C-127 101.42 -127 92.84 -127 84 C-130.38790599 87.37816594 -130.38790599 87.37816594 -133.73046875 90.80078125 C-135.11573927 92.23804584 -136.556786 93.62092884 -138 95 C-138.66 95 -139.32 95 -140 95 C-140 78.17 -140 61.34 -140 44 C-123.8183237 43.95989119 -123.8183237 43.95989119 -116.94335938 43.95117188 C-112.24437334 43.94518415 -107.54540672 43.93808575 -102.84643555 43.92456055 C-99.05985743 43.9137292 -95.2733001 43.90772264 -91.48670769 43.90512276 C-90.03895681 43.90326895 -88.59120712 43.89964919 -87.14346504 43.89426994 C-85.12242865 43.88705633 -83.10137152 43.88659192 -81.08032227 43.88647461 C-79.35157616 43.88314369 -79.35157616 43.88314369 -77.58790588 43.87974548 C-75 44 -75 44 -74 45 C-74 47.64 -74 50.28 -74 53 C-60.47 53 -46.94 53 -33 53 C-33 52.34 -33 51.68 -33 51 C-33.928125 50.62875 -33.928125 50.62875 -34.875 50.25 C-37.4378364 48.74244918 -38.04314447 47.79082862 -39 45 C-39 43.35 -39 41.7 -39 40 C-52.86 40 -66.72 40 -81 40 C-81 38.68 -81 37.36 -81 36 C-66.81 35.67 -52.62 35.34 -38 35 C-38.99 31.04 -38.99 31.04 -40 27 C-40 25.68 -40 24.36 -40 23 C-42.97 23 -45.94 23 -49 23 C-49 22.01 -49 21.02 -49 20 C-46.03 20 -43.06 20 -40 20 C-39.896875 18.783125 -39.79375 17.56625 -39.6875 16.3125 C-39.333221 12.13200782 -38.4203843 11.03397383 -36 7 C-67.68 6.505 -67.68 6.505 -100 6 C-99.67 5.01 -99.34 4.02 -99 3 C-98.16585571 2.99635437 -97.33171143 2.99270874 -96.47229004 2.98895264 C-88.58669354 2.95098565 -80.70150697 2.89403461 -72.81620026 2.81609726 C-68.76286775 2.77669515 -64.70975011 2.74447137 -60.65625 2.72900391 C-56.73967978 2.71378896 -52.82370057 2.67925909 -48.90739441 2.63169098 C-47.41803646 2.61692672 -45.9285941 2.60896184 -44.43916321 2.60811615 C-36.34023316 2.5988981 -30.03140745 2.35107691 -23 -2 C-15.24156803 -4.30834123 -7.27748745 -3.42128892 0 0 Z M-0.125 25.4375 C-3.84807791 27.46091191 -6.79429449 27.64358428 -11 28 C-11 27.01 -11 26.02 -11 25 C-11.6290625 25.0721875 -12.258125 25.144375 -12.90625 25.21875 C-18.30963445 25.80465916 -23.56602383 26.10062919 -29 26 C-30.78808074 32.53939517 -30.78808074 32.53939517 -30.125 39.125 C-29.568125 40.053125 -29.568125 40.053125 -29 41 C-29.99 40.67 -30.98 40.34 -32 40 C-32.33 39.34 -32.66 38.68 -33 38 C-33.99 38.33 -34.98 38.66 -36 39 C-35.67039784 44.01535052 -35.67039784 44.01535052 -33 48 C-31.68 48 -30.36 48 -29 48 C-29.2475 48.515625 -29.495 49.03125 -29.75 49.5625 C-30.14215361 53.38599771 -28.19180078 56.03380904 -26 59 C-21.69209365 63.08698807 -18.082889 64.79512567 -12.1875 65.375 C-6.72614493 65.19982446 -2.25680729 63.25680729 1.61328125 59.38671875 C4.02334162 56.32492374 4.95349103 54.51159865 5.3125 50.5625 C5.1578125 49.2940625 5.1578125 49.2940625 5 48 C6.65 47.67 8.3 47.34 10 47 C11.81602517 42.46167247 11.81602517 42.46167247 11 38 C10.01 38.33 9.02 38.66 8 39 C8 39.66 8 40.32 8 41 C7.01 40.34 6.02 39.68 5 39 C5.33 38.34 5.66 37.68 6 37 C5.93764862 35.16346837 5.80308105 33.32894047 5.625 31.5 C5.53476563 30.5203125 5.44453125 29.540625 5.3515625 28.53125 C5.13921056 26.01182385 5.13921056 26.01182385 4 24 C1.84850331 23.81323021 1.84850331 23.81323021 -0.125 25.4375 Z M-74 56 C-74 60.62 -74 65.24 -74 70 C-71.03 70 -68.06 70 -65 70 C-65 70.99 -65 71.98 -65 73 C-67.97 73 -70.94 73 -74 73 C-74 76.63 -74 80.26 -74 84 C-90.5 84 -107 84 -124 84 C-124 91.59 -124 99.18 -124 107 C-104.86 107 -85.72 107 -66 107 C-64.35 102.71 -62.7 98.42 -61 94 C-60.34 92.35 -59.68 90.7 -59 89 C-66.59 89 -74.18 89 -82 89 C-81.505 88.01 -81.505 88.01 -81 87 C-79.88927124 87.00169189 -79.88927124 87.00169189 -78.75610352 87.00341797 C-75.35734178 86.99121225 -71.96076889 86.93343343 -68.5625 86.875 C-67.39783203 86.87757813 -66.23316406 86.88015625 -65.03320312 86.8828125 C-56.80952583 86.69749019 -52.40933146 84.9964908 -46 80 C-44.07078355 79.02354155 -42.11628649 78.09268935 -40.125 77.25 C-37.15225846 75.97959763 -34.7042374 74.80282493 -32 73 C-37.61 73 -43.22 73 -49 73 C-49 72.01 -49 71.02 -49 70 C-41.74 70 -34.48 70 -27 70 C-26.50409048 62.61583917 -26.50409048 62.61583917 -28.38769531 58.53662109 C-31.70807346 55.31244081 -33.51646978 55.31785507 -38.00921631 55.32022095 C-38.92914368 55.35118866 -39.84907104 55.38215637 -40.796875 55.4140625 C-41.74564514 55.42255219 -42.69441528 55.43104187 -43.67193604 55.43978882 C-46.69911779 55.473348 -49.72362504 55.54863218 -52.75 55.625 C-54.80334692 55.65509634 -56.85673563 55.68247272 -58.91015625 55.70703125 C-63.94113298 55.7731478 -68.97011326 55.87668746 -74 56 Z M-106 57 C-105 59 -105 59 -105 59 Z M-107 59 C-106 63 -106 63 -106 63 Z M-123 61 C-123.33 61.66 -123.66 62.32 -124 63 C-123.01 62.67 -122.02 62.34 -121 62 C-121.66 61.67 -122.32 61.34 -123 61 Z M-92 62 C-92 63.32 -92 64.64 -92 66 C-91.01 65.67 -90.02 65.34 -89 65 C-89.33 64.01 -89.66 63.02 -90 62 C-90.66 62 -91.32 62 -92 62 Z M-125 63 C-124 65 -124 65 -124 65 Z M-108 63 C-108.33 65.64 -108.66 68.28 -109 71 C-106.8480563 67.77208445 -106.79913557 66.71599191 -107 63 C-107.33 63 -107.66 63 -108 63 Z M-23 66 C-23.433125 67.670625 -23.433125 67.670625 -23.875 69.375 C-25 73 -25 73 -27 75 C-29.31765729 75.71927295 -31.65095874 76.3909893 -34 77 C-30.19096873 82.40636696 -26.48757882 85.37128105 -20 87 C-10.72591821 88.08688582 -2.68781871 87.65505551 5 82 C7.5775972 79.41554922 7.5775972 79.41554922 9 77 C8.36191406 76.79246094 7.72382813 76.58492187 7.06640625 76.37109375 C4.51441497 75.41957126 2.2815572 74.49377424 0 73 C-1.0625 69.25 -1.0625 69.25 -1 66 C-1.70125 66.16242188 -2.4025 66.32484375 -3.125 66.4921875 C-6.14302565 67.02526268 -8.93713337 67.13281344 -12 67.125 C-13.010625 67.12757813 -14.02125 67.13015625 -15.0625 67.1328125 C-17.81714744 67.00826727 -20.31838803 66.62110865 -23 66 Z M-95 67 C-95.33 67.66 -95.66 68.32 -96 69 C-95.01 68.67 -94.02 68.34 -93 68 C-93.66 67.67 -94.32 67.34 -95 67 Z M-120 68 C-119.67 68.66 -119.34 69.32 -119 70 C-118.34 69.67 -117.68 69.34 -117 69 C-117.99 68.67 -118.98 68.34 -120 68 Z M-41.76953125 80.0546875 C-58.27376568 89.92756715 -62.42852534 102.63706641 -66.984375 120.58203125 C-68.98177007 128.90555243 -71.44170494 139.94294674 -67.5 148 C-64.62781108 151.85412585 -64.62781108 151.85412585 -57 155 C-57.66 143.12 -58.32 131.24 -59 119 C-53.39 119 -47.78 119 -42 119 C-41.2575 115.90625 -41.2575 115.90625 -40.5 112.75 C-40.2215625 111.58984375 -39.943125 110.4296875 -39.65625 109.234375 C-38.86743548 105.89669288 -38.86743548 105.89669288 -39 102 C-38.01 102 -37.02 102 -36 102 C-37.485 110.415 -37.485 110.415 -39 119 C-20.52 119 -2.04 119 17 119 C16.01 110.585 16.01 110.585 15 102 C15.99 102 16.98 102 18 102 C18.06058594 102.89203125 18.12117188 103.7840625 18.18359375 104.703125 C18.26738281 105.87359375 18.35117188 107.0440625 18.4375 108.25 C18.51871094 109.41015625 18.59992188 110.5703125 18.68359375 111.765625 C18.9355392 115.15845566 18.9355392 115.15845566 20 119 C26.93 119.495 26.93 119.495 34 120 C33.67 131.55 33.34 143.1 33 155 C40.33758714 151.85568625 40.33758714 151.85568625 44.375 146.13671875 C48.9671369 130.43735073 41.18618096 107.40024776 33.6328125 93.48046875 C29.29401958 87.07033118 22.42222993 82.22126578 15.375 79.125 C11.3463164 78.9757895 10.92961998 79.56533784 8.0625 82.1875 C7.38960938 82.84363281 6.71671875 83.49976563 6.0234375 84.17578125 C0.36892858 89.27357211 -7.62961163 90.14721149 -15 90 C-22.19203616 89.0634896 -27.76221255 87.1588826 -33.28125 82.40234375 C-37.07876467 79.16211426 -37.07876467 79.16211426 -41.76953125 80.0546875 Z M-56 122 C-55.18437668 142.79979891 -55.18437668 142.79979891 -53.9375 163.5625 C-53.845373 164.89385741 -53.75357732 166.22523778 -53.66210938 167.55664062 C-53.44460948 170.70466543 -53.22396486 173.85242979 -53 177 C-42.45618688 177.02312343 -31.91237975 177.04091509 -21.36854649 177.05181217 C-16.47314626 177.057041 -11.57776332 177.06413864 -6.68237305 177.07543945 C-1.96212022 177.08626834 2.75811592 177.09227684 7.4783802 177.09487724 C9.28338954 177.09673149 11.08839792 177.10035209 12.89340019 177.10573006 C15.41259644 177.11294052 17.9317229 177.11399094 20.45092773 177.11352539 C21.58164955 177.1189183 21.58164955 177.1189183 22.73521423 177.12442017 C26.15554231 177.42559536 26.15554231 177.42559536 29 176 C29.18182842 174.31463007 29.29858411 172.62218478 29.38891602 170.92944336 C29.48009705 169.28510315 29.48009705 169.28510315 29.57312012 167.60754395 C29.63277954 166.44670288 29.69243896 165.28586182 29.75390625 164.08984375 C29.81187378 163.02930786 29.86984131 161.96877197 29.92956543 160.87609863 C30.14567672 156.89684121 30.35358564 152.91714176 30.5625 148.9375 C31.036875 140.048125 31.51125 131.15875 32 122 C2.96 122 -26.08 122 -56 122 Z " fill="#000000" transform="translate(140,76)"/>
<path d="M0 0 C1.39456452 0.00667256 2.78911118 0.01863093 4.18359375 0.03515625 C4.89451172 0.03966797 5.60542969 0.04417969 6.33789062 0.04882812 C8.09899388 0.06064761 9.86005411 0.07858362 11.62109375 0.09765625 C11.08855363 4.03026021 10.08174583 6.11513664 7.49609375 9.09765625 C5.15931956 12.02619226 5.15931956 12.02619226 4.37109375 15.59765625 C5.96749967 18.7904681 8.04916332 21.40630362 10.34375 24.1328125 C11.62109375 26.09765625 11.62109375 26.09765625 11.62109375 30.09765625 C6.60079978 30.94106564 1.53468228 31.72403683 -3.37890625 30.09765625 C-7.98825026 26.5635623 -11.01915496 21.31270661 -13.37890625 16.09765625 C-12.81516222 12.11288112 -10.76469753 9.60115208 -8.37890625 6.41015625 C-7.65703125 5.43691406 -6.93515625 4.46367187 -6.19140625 3.4609375 C-3.61724716 0.10454472 -3.61724716 0.10454472 0 0 Z " fill="#000000" transform="translate(43.37890625,207.90234375)"/>
<path d="M0 0 C4.99306859 -0.71047616 10.08854365 -1.42823479 15 0 C19.80312194 4.10068909 24.03230403 9.591908 25 16 C22.64024871 21.21505036 19.60934401 26.46590605 15 30 C10.08641147 31.62638058 5.02029397 30.84340939 0 30 C0.6879956 24.99880122 2.84382249 22.14081665 5.8203125 18.18359375 C7.18486052 16.12004757 7.18486052 16.12004757 6.87109375 14.0078125 C5.45105456 10.73471769 3.34743768 8.00948363 1.27734375 5.12109375 C0 3 0 3 0 0 Z " fill="#000000" transform="translate(201,208)"/>
<path d="M0 0 C33.33 0 66.66 0 101 0 C101.495 1.98 101.495 1.98 102 4 C68.34 4 34.68 4 0 4 C0 2.68 0 1.36 0 0 Z " fill="#000000" transform="translate(41,46)"/>
<path d="M0 0 C1.18359375 2.05078125 1.18359375 2.05078125 2 4 C2.92232422 3.87431641 2.92232422 3.87431641 3.86328125 3.74609375 C5.07564453 3.59333984 5.07564453 3.59333984 6.3125 3.4375 C7.11300781 3.33308594 7.91351563 3.22867188 8.73828125 3.12109375 C11 3 11 3 14 4 C14.309375 3.0409375 14.309375 3.0409375 14.625 2.0625 C16 0 16 0 18.8125 -0.9375 C22.58348304 -1.01144084 24.05247903 -0.29251631 27 2 C29 5 29 5 28.8125 8.5 C28 12 28 12 26.9375 13.9375 C23.74640452 15.68745559 20.49213609 15.64773492 17 15 C14.03141843 12.79259319 13.17134209 11.51402627 12 8 C8.71303767 7.20046862 7.28976808 6.90341064 4 8 C2.96708324 9.98320018 1.9662501 11.98347806 1 14 C-2.18948483 15.59474241 -5.52957489 15.37691092 -9 15 C-10.9375 13.9375 -10.9375 13.9375 -12 12 C-12.9375 8.625 -12.9375 8.625 -13 5 C-9.56697887 -0.63996329 -6.3184217 -1.74764856 0 0 Z M-9 5 C-9.33333333 7.5 -9.33333333 7.5 -9 10 C-8.34 10.66 -7.68 11.32 -7 12 C-3.90073181 11.67801034 -3.90073181 11.67801034 -1 11 C-0.32198966 8.09926819 -0.32198966 8.09926819 0 5 C-1.82703227 2.7508092 -1.82703227 2.7508092 -4.5 2.75 C-7.17296773 2.7508092 -7.17296773 2.7508092 -9 5 Z M16 5 C16.32198966 8.09926819 16.32198966 8.09926819 17 11 C19.90073181 11.67801034 19.90073181 11.67801034 23 12 C25.2491908 10.17296773 25.2491908 10.17296773 25.25 7.5 C25.2491908 4.82703227 25.2491908 4.82703227 23 3 C19.0325491 2.56530472 19.0325491 2.56530472 16 5 Z " fill="#000000" transform="translate(120,215)"/>
<path d="M0 0 C5.00172691 -0.77101719 10.09239328 -1.53134457 15 0 C19.32066862 3.20806696 22.02229557 8.09598291 24 13 C23.81489891 18.45206856 20.70253455 23.07422943 17.7421875 27.50390625 C14.27902367 30.65627333 11.49517452 30.92932033 7 30.75 C4.63787536 30.59098406 2.3475617 30.33012586 0 30 C0 24.6171663 2.37992921 22.60571992 5.6640625 18.53515625 C7.31054447 16.0837178 7.31054447 16.0837178 6.40625 13.484375 C4.98500096 10.9735017 3.50819517 8.56628427 1.875 6.1875 C1.33617187 5.39730469 0.79734375 4.60710937 0.2421875 3.79296875 C-0.16773438 3.20128906 -0.57765625 2.60960937 -1 2 C-0.67 1.34 -0.34 0.68 0 0 Z M5 3 C6.05183613 6.06785538 7.02929627 8.03348145 9.1875 10.5 C11 13 11 13 10.8046875 15.35546875 C9.91462495 18.28057722 8.6897232 20.3146499 6.9375 22.8125 C6.11572266 23.99779297 6.11572266 23.99779297 5.27734375 25.20703125 C4.85582031 25.79871094 4.43429688 26.39039063 4 27 C8.06359311 27.64316242 8.06359311 27.64316242 12 27 C15.96518459 23.34159952 18.7079158 18.85120733 21 14 C17.05802043 6.7706116 17.05802043 6.7706116 10.6875 2.26953125 C8.26345009 2.25388976 8.26345009 2.25388976 5 3 Z " fill="#000000" transform="translate(232,208)"/>
<path d="M0 0 C0.99 0.12761719 1.98 0.25523437 3 0.38671875 C2.3192562 5.40830935 0.1360302 8.18973195 -2.91796875 12.10546875 C-4.29386543 14.3771609 -4.29386543 14.3771609 -3.33984375 16.9453125 C-1.79743695 19.75582052 -0.01865017 22.14372591 1.9765625 24.640625 C3 26.38671875 3 26.38671875 3 30.38671875 C-9.39210063 32.29696351 -9.39210063 32.29696351 -13.60986328 29.20751953 C-15.09475595 27.64021761 -16.30368269 26.05830309 -17.5 24.26171875 C-17.87890381 23.69300049 -18.25780762 23.12428223 -18.64819336 22.53833008 C-20.32108358 19.68076294 -21.00712076 17.64047658 -20.9140625 14.32421875 C-17.34669238 2.85984982 -11.57560307 -1.0400757 0 0 Z M-18 14.38671875 C-17.05424938 16.07555914 -16.1029376 17.76157217 -15.12109375 19.4296875 C-14.11338587 21.18878732 -13.20587264 23.0043856 -12.3125 24.82421875 C-10.31257573 27.57589573 -10.31257573 27.57589573 -7.74609375 27.7578125 C-5.46616111 27.76138047 -3.26386972 27.64793449 -1 27.38671875 C-1.51691406 26.6390625 -2.03382812 25.89140625 -2.56640625 25.12109375 C-3.22511719 24.13625 -3.88382813 23.15140625 -4.5625 22.13671875 C-5.22378906 21.1621875 -5.88507812 20.18765625 -6.56640625 19.18359375 C-8 16.38671875 -8 16.38671875 -7.875 14.25390625 C-6.91733603 12.21031974 -5.81764848 10.54686806 -4.4375 8.76171875 C-2.43629893 6.35376871 -2.43629893 6.35376871 -2 3.38671875 C-11.10487847 1.59826048 -13.56509428 7.12102215 -18 14.38671875 Z " fill="#000000" transform="translate(21,207.61328125)"/>
<path d="M0 0 C24.09 0 48.18 0 73 0 C73 0.99 73 1.98 73 3 C48.91 3 24.82 3 0 3 C0 2.01 0 1.02 0 0 Z " fill="#000000" transform="translate(91,63)"/>
<path d="M0 0 C12.21 0 24.42 0 37 0 C37 0.99 37 1.98 37 3 C24.79 3 12.58 3 0 3 C0 2.01 0 1.02 0 0 Z " fill="#000000" transform="translate(179,96)"/>
<path d="M0 0 C12.21 0 24.42 0 37 0 C36.67 0.99 36.34 1.98 36 3 C24.12 3 12.24 3 0 3 C0 2.01 0 1.02 0 0 Z " fill="#000000" transform="translate(179,146)"/>
<path d="M0 0 C0.78375 0.04125 1.5675 0.0825 2.375 0.125 C2.705 1.115 3.035 2.105 3.375 3.125 C2.055 3.455 0.735 3.785 -0.625 4.125 C-1.43244585 9.60320952 -2.06774192 14.68697276 -0.625 20.125 C1.31097032 21.63794288 1.31097032 21.63794288 3.375 22.125 C3.375 22.785 3.375 23.445 3.375 24.125 C0.5 24.25 0.5 24.25 -2.625 24.125 C-5.39091336 21.35908664 -5.0987411 18.94037701 -5.625 15.125 C-6.58084438 12.78911677 -6.58084438 12.78911677 -7.625 11.125 C-6.965 10.465 -6.305 9.805 -5.625 9.125 C-5.46 7.97 -5.295 6.815 -5.125 5.625 C-4.54597598 1.57183183 -4.23341506 0.20159119 0 0 Z " fill="#000000" transform="translate(213.625,56.875)"/>
<path d="M0 0 C2.375 -0.125 2.375 -0.125 5 0 C7.75566251 2.75566251 7.45934233 5.21539633 8 9 C8.66 9.66 9.32 10.32 10 11 C9.5701696 13.84762637 8.50964876 16.49678605 7.5 19.1875 C7.2421875 19.88230469 6.984375 20.57710937 6.71875 21.29296875 C6 23 6 23 5 24 C3.33382885 24.04063832 1.66611905 24.042721 0 24 C0 23.01 0 22.02 0 21 C0.99 20.67 1.98 20.34 3 20 C3.8400331 18.16368927 3.8400331 18.16368927 4.25 16 C4.42015625 15.278125 4.5903125 14.55625 4.765625 13.8125 C4.84296875 13.214375 4.9203125 12.61625 5 12 C4.67 11.67 4.34 11.34 4 11 C3.63239269 8.67182036 3.29758419 6.3381615 3 4 C2.01 3.67 1.02 3.34 0 3 C0 2.01 0 1.02 0 0 Z " fill="#000000" transform="translate(230,57)"/>
<path d="M0 0 C0.99 0 1.98 0 3 0 C3.6496875 1.2375 3.6496875 1.2375 4.3125 2.5 C5.79360392 5.3207935 5.79360392 5.3207935 9 5.625 C12.20639608 5.3207935 12.20639608 5.3207935 13.6875 2.5 C14.3371875 1.2625 14.3371875 1.2625 15 0 C15.99 0 16.98 0 18 0 C17.39222176 5.47000414 17.39222176 5.47000414 15.765625 7.66796875 C12.81590276 9.8933123 9.96200216 9.52626284 6.38671875 9.421875 C4 9 4 9 1.375 6.75 C0 4 0 4 0 0 Z " fill="#000000" transform="translate(119,233)"/>
<path d="M0 0 C5.61 0 11.22 0 17 0 C17 0.99 17 1.98 17 3 C11.39 3 5.78 3 0 3 C0 2.01 0 1.02 0 0 Z " fill="#000000" transform="translate(58,96)"/>
<path d="M0 0 C5.28 0 10.56 0 16 0 C16 0.99 16 1.98 16 3 C10.39 3 4.78 3 -1 3 C-0.67 2.01 -0.34 1.02 0 0 Z " fill="#000000" transform="translate(59,63)"/>
<path d="M0 0 C0.99 0.66 1.98 1.32 3 2 C3 2.99 3 3.98 3 5 C1.39125 4.7215625 1.39125 4.7215625 -0.25 4.4375 C-3.40391546 4.0695432 -5.09818492 3.95534657 -8 5 C-8.33 4.01 -8.66 3.02 -9 2 C-5.53001271 -0.31332486 -4.07490752 -0.33957563 0 0 Z " fill="#000000" transform="translate(143,207)"/>
<path d="M0 0 C0 1.32 0 2.64 0 4 C-0.886875 3.814375 -1.77375 3.62875 -2.6875 3.4375 C-5.85178811 3.01957516 -7.94839642 3.19222258 -11 4 C-10.625 2.0625 -10.625 2.0625 -10 0 C-6.7169902 -1.6415049 -3.57454967 -0.51888624 0 0 Z " fill="#000000" transform="translate(120,208)"/>
<path d="M0 0 C2.0625 0.4375 2.0625 0.4375 4 1 C4 2.65 4 4.3 4 6 C2.125 6.625 2.125 6.625 0 7 C-0.66 6.34 -1.32 5.68 -2 5 C-1.46428571 1.46428571 -1.46428571 1.46428571 0 0 Z " fill="#000000" transform="translate(13,106)"/>
<path d="M0 0 C1.67542976 0.28604898 3.34385343 0.61781233 5 1 C4.67 2.65 4.34 4.3 4 6 C2.35 6 0.7 6 -1 6 C-1.042721 4.33388095 -1.04063832 2.66617115 -1 1 C-0.67 0.67 -0.34 0.34 0 0 Z " fill="#000000" transform="translate(240,96)"/>
<path d="M0 0 C2.0625 0.4375 2.0625 0.4375 4 1 C4.5625 2.9375 4.5625 2.9375 5 5 C4 6 4 6 1.4375 6.0625 C0.2309375 6.0315625 0.2309375 6.0315625 -1 6 C-1.042721 4.33388095 -1.04063832 2.66617115 -1 1 C-0.67 0.67 -0.34 0.34 0 0 Z " fill="#000000" transform="translate(139,219)"/>
<path d="M0 0 C2.125 0.375 2.125 0.375 4 1 C4 2.65 4 4.3 4 6 C2.35 6 0.7 6 -1 6 C-1.625 4.125 -1.625 4.125 -2 2 C-1.34 1.34 -0.68 0.68 0 0 Z " fill="#000000" transform="translate(114,219)"/>
<path d="M0 0 C2.475 0.495 2.475 0.495 5 1 C4.34 2.32 3.68 3.64 3 5 C2.01 4.67 1.02 4.34 0 4 C0 2.68 0 1.36 0 0 Z " fill="#000000" transform="translate(221,67)"/>
<path d="M0 0 C1.98 0.495 1.98 0.495 4 1 C3.67 1.99 3.34 2.98 3 4 C1.68 3.67 0.36 3.34 -1 3 C-0.67 2.01 -0.34 1.02 0 0 Z " fill="#000000" transform="translate(229,67)"/>
<path d="M0 0 C1.32 0.33 2.64 0.66 4 1 C4 1.99 4 2.98 4 4 C2.68 4 1.36 4 0 4 C0 2.68 0 1.36 0 0 Z " fill="#000000" transform="translate(214,67)"/>
</svg>
