<?xml version="1.0" encoding="UTF-8"?>
<svg version="1.1" xmlns="http://www.w3.org/2000/svg" width="256" height="256">
<path d="M0 0 C5.25278132 3.12354683 9.10530298 7.27402813 11.79296875 12.77734375 C12.44783452 15.93260611 12.54948852 18.58786313 12.5234375 21.796875 C12.51723389 22.78792236 12.51103027 23.77896973 12.50463867 24.80004883 C12.4966626 25.55568115 12.48868652 26.31131348 12.48046875 27.08984375 C13.26695801 26.68145264 14.05344727 26.27306152 14.86376953 25.85229492 C17.80450121 24.32556831 20.74544263 22.79924723 23.68652344 21.27319336 C24.95516139 20.61482514 26.22371751 19.9562992 27.4921875 19.29760742 C29.32399931 18.34641898 31.15611261 17.39581342 32.98828125 16.4453125 C34.0880127 15.87449951 35.18774414 15.30368652 36.32080078 14.71557617 C37.36349121 14.17908447 38.40618164 13.64259277 39.48046875 13.08984375 C40.55603027 12.53458008 41.6315918 11.97931641 42.73974609 11.40722656 C46.74434832 9.48233492 50.13072748 9.38047734 54.48046875 10.08984375 C58.34034271 12.09125988 61.47493274 14.18432625 63.48046875 18.08984375 C64.57025878 22.50813977 64.84209789 25.98368402 63.41796875 30.33984375 C59.16925873 36.37027087 53.31004989 39.48361173 46.87109375 42.734375 C46.06307312 43.14902512 45.25505249 43.56367523 44.42254639 43.9908905 C42.72674345 44.85912069 41.02905543 45.72367792 39.32958984 46.5847168 C36.72024697 47.90752569 34.11760233 49.24284886 31.515625 50.58007812 C29.8636584 51.42391582 28.21132734 52.26704051 26.55859375 53.109375 C25.77840881 53.50929153 24.99822388 53.90920807 24.19439697 54.32124329 C18.71238511 57.08984375 18.71238511 57.08984375 16.48046875 57.08984375 C16.48046875 85.79984375 16.48046875 114.50984375 16.48046875 144.08984375 C20.11046875 144.08984375 23.74046875 144.08984375 27.48046875 144.08984375 C34.69766158 147.64761486 39.35023455 152.06810533 42.00390625 159.78125 C43.24983661 165.81686346 42.45622634 171.91698928 39.41796875 177.27734375 C38.45890625 178.66953125 38.45890625 178.66953125 37.48046875 180.08984375 C37.96257812 180.59773437 38.4446875 181.105625 38.94140625 181.62890625 C39.88886719 182.66144531 39.88886719 182.66144531 40.85546875 183.71484375 C41.48195313 184.38773438 42.1084375 185.060625 42.75390625 185.75390625 C46.86579229 191.31704619 46.776535 197.1651059 46.74609375 203.79296875 C46.7480072 204.7119696 46.74992065 205.63097046 46.75189209 206.57781982 C46.75324804 208.51086706 46.74959299 210.44392359 46.74121094 212.37695312 C46.73045384 215.34395561 46.74115136 218.31035937 46.75390625 221.27734375 C46.75258551 223.15755342 46.7500249 225.03776272 46.74609375 226.91796875 C46.75014221 227.80752258 46.75419067 228.69707642 46.75836182 229.61358643 C46.71041816 235.85989434 46.71041816 235.85989434 44.48046875 238.08984375 C42.38645935 238.33708191 42.38645935 238.33708191 39.77124023 238.33276367 C38.79360214 238.3358403 37.81596405 238.33891693 36.80870056 238.34208679 C35.750345 238.33490128 34.69198944 238.32771576 33.6015625 238.3203125 C32.51915787 238.31985428 31.43675323 238.31939606 30.32154846 238.31892395 C28.03084214 238.31589934 25.74013791 238.30800684 23.44946289 238.2956543 C19.92912572 238.2774016 16.40905141 238.27514453 12.88867188 238.27539062 C10.66796646 238.2704755 8.44726284 238.26464721 6.2265625 238.2578125 C5.16618271 238.25669968 4.10580292 238.25558685 3.01329041 238.25444031 C2.03880447 238.24806046 1.06431854 238.2416806 0.06030273 238.23510742 C-0.80192398 238.23129562 -1.6641507 238.22748383 -2.55250549 238.22355652 C-4.51953125 238.08984375 -4.51953125 238.08984375 -5.51953125 237.08984375 C-5.63822971 235.72099839 -5.68954861 234.34620418 -5.71240234 232.97241211 C-5.72846527 232.09737534 -5.7445282 231.22233856 -5.76107788 230.32078552 C-5.80554261 226.28979158 -5.84664505 222.25896554 -5.86962891 218.2277832 C-5.88613383 216.10657742 -5.91335091 213.98542599 -5.95166016 211.86450195 C-6.00669153 208.80260416 -6.02834905 205.74201468 -6.04296875 202.6796875 C-6.07697281 201.2698484 -6.07697281 201.2698484 -6.11166382 199.83152771 C-6.10881378 198.93442581 -6.10596375 198.03732391 -6.10302734 197.11303711 C-6.1111142 196.33439804 -6.11920105 195.55575897 -6.12753296 194.75352478 C-5.51953125 192.08984375 -5.51953125 192.08984375 -0.51953125 184.08984375 C-9.09953125 184.08984375 -17.67953125 184.08984375 -26.51953125 184.08984375 C-24.53953125 187.55484375 -24.53953125 187.55484375 -22.51953125 191.08984375 C-21.58800824 193.83392019 -21.39016385 196.27960574 -21.37426758 199.16821289 C-21.36788773 199.95905777 -21.36150787 200.74990265 -21.35493469 201.56471252 C-21.35382187 202.40960739 -21.35270905 203.25450226 -21.3515625 204.125 C-21.3465699 205.43760048 -21.3465699 205.43760048 -21.34147644 206.77671814 C-21.3364215 208.62335689 -21.33406767 210.47000473 -21.33422852 212.31665039 C-21.33203656 215.14549683 -21.31385086 217.97395661 -21.29492188 220.80273438 C-21.29198879 222.59765492 -21.29000342 224.39257731 -21.2890625 226.1875 C-21.28187698 227.0344191 -21.27469147 227.8813382 -21.26728821 228.75392151 C-21.29069482 234.74658911 -21.29069482 234.74658911 -23.51953125 238.08984375 C-25.61354065 238.45733643 -25.61354065 238.45733643 -28.22875977 238.44628906 C-29.6952169 238.45079071 -29.6952169 238.45079071 -31.19129944 238.4553833 C-32.249655 238.4430365 -33.30801056 238.4306897 -34.3984375 238.41796875 C-35.48084213 238.41609558 -36.56324677 238.41422241 -37.67845154 238.41229248 C-39.96917801 238.40556188 -42.25989279 238.39162757 -44.55053711 238.37109375 C-48.07090848 238.33994217 -51.59083262 238.33012521 -55.11132812 238.32421875 C-57.33203675 238.31504918 -59.55274079 238.30467355 -61.7734375 238.29296875 C-62.83381729 238.28871887 -63.89419708 238.28446899 -64.98670959 238.28009033 C-65.96119553 238.27048279 -66.93568146 238.26087524 -67.93969727 238.25097656 C-69.23303734 238.24073456 -69.23303734 238.24073456 -70.55250549 238.23028564 C-72.51953125 238.08984375 -72.51953125 238.08984375 -73.51953125 237.08984375 C-73.62789887 235.7099934 -73.66853437 234.32471986 -73.68066406 232.94067383 C-73.69027161 232.05918167 -73.69987915 231.17768951 -73.70977783 230.26948547 C-73.71402771 229.30914902 -73.71827759 228.34881256 -73.72265625 227.359375 C-73.72835632 226.37619797 -73.7340564 225.39302094 -73.7399292 224.38005066 C-73.74939791 222.29268475 -73.75592057 220.20530377 -73.75976562 218.11791992 C-73.76943766 214.93316201 -73.80042962 211.74905846 -73.83203125 208.56445312 C-73.8385644 206.53776425 -73.84381364 204.51107076 -73.84765625 202.484375 C-73.86617645 201.05905205 -73.86617645 201.05905205 -73.8850708 199.60493469 C-73.86204107 192.71962584 -72.79145376 188.41460166 -67.83203125 183.33984375 C-66.68734375 182.22609375 -66.68734375 182.22609375 -65.51953125 181.08984375 C-65.34959712 178.72275948 -65.34959712 178.72275948 -67.51953125 175.71484375 C-70.57270881 169.71753068 -70.62065317 163.20528694 -68.89453125 156.75390625 C-66.56482294 151.32485385 -62.52851506 148.06232079 -57.51953125 145.08984375 C-54.20336935 143.98445645 -51.6341649 143.92230733 -48.14453125 143.90234375 C-47.02304687 143.88816406 -45.9015625 143.87398437 -44.74609375 143.859375 C-41.51953125 144.08984375 -41.51953125 144.08984375 -36.51953125 146.08984375 C-36.51953125 129.25984375 -36.51953125 112.42984375 -36.51953125 95.08984375 C-38.49953125 100.03984375 -38.49953125 100.03984375 -40.51953125 105.08984375 C-45.22665853 109.68489657 -48.58071844 110.44492745 -54.9765625 110.37109375 C-59.73899264 109.84437337 -62.37741808 107.42230912 -65.39453125 103.90234375 C-68.21407864 96.85347527 -66.16293692 89.52098262 -64.0703125 82.5234375 C-63.81581833 81.64510757 -63.56132416 80.76677765 -63.29911804 79.86183167 C-62.76112019 78.01722221 -62.21706706 76.17436898 -61.66723633 74.33325195 C-60.83473021 71.53641104 -60.02851015 68.73291335 -59.22460938 65.92773438 C-58.69557309 64.12584254 -58.16502394 62.32439406 -57.6328125 60.5234375 C-57.39613358 59.69613632 -57.15945465 58.86883514 -56.91560364 58.01646423 C-54.1976587 49.05153078 -49.61429555 41.14907143 -41.51953125 36.08984375 C-37.25697317 34.43272541 -32.95861644 33.17931435 -28.51953125 32.08984375 C-29.01453125 30.93484375 -29.50953125 29.77984375 -30.01953125 28.58984375 C-32.27233315 22.45661751 -32.30522233 17.50738717 -29.95703125 11.46484375 C-24.41009039 0.03538197 -11.93930557 -4.31295845 0 0 Z M-20.39453125 13.83984375 C-22.09285813 17.23649751 -22.14846652 20.42223247 -21.51953125 24.08984375 C-19.69045636 27.81834257 -18.12083989 29.67560891 -14.70703125 32.02734375 C-10.76258181 33.34216023 -8.52040649 33.18099154 -4.51953125 32.08984375 C-1.1435984 29.91424258 1.29190057 27.97970325 2.48046875 24.08984375 C3.01260343 19.37665086 3.24142977 16.49475789 0.23046875 12.71484375 C-3.14081731 9.49679797 -4.81180348 8.31259085 -9.39453125 7.71484375 C-14.14813202 8.28527584 -16.96448674 10.63846888 -20.39453125 13.83984375 Z M42.91796875 22.08984375 C42.22799805 22.43926025 41.53802734 22.78867676 40.82714844 23.14868164 C36.3037959 25.46527184 31.98938605 28.00615041 27.6875 30.7109375 C10.03751767 41.36235375 -3.72920874 42.54311327 -23.92573547 42.01506042 C-30.21583429 41.92659 -34.48214578 42.9353546 -39.65625 46.60546875 C-44.65044887 52.19092039 -46.73542472 58.36004789 -48.74951172 65.44238281 C-49.69137263 68.68066428 -50.70370412 71.89474576 -51.7109375 75.11328125 C-52.48251123 77.64651422 -53.2520262 80.18037511 -54.01953125 82.71484375 C-54.40681396 83.94879883 -54.79409668 85.18275391 -55.19311523 86.45410156 C-55.53802002 87.62553711 -55.8829248 88.79697266 -56.23828125 90.00390625 C-56.55732422 91.05529785 -56.87636719 92.10668945 -57.20507812 93.18994141 C-57.59736462 96.80762696 -56.65459894 98.22571246 -54.51953125 101.08984375 C-52.12830175 101.30118905 -52.12830175 101.30118905 -49.51953125 100.08984375 C-45.04615009 91.61446999 -42.6250148 82.22064531 -39.83203125 73.08984375 C-39.08687497 70.66334002 -38.34011636 68.23736547 -37.58964539 65.8125 C-37.12558443 64.31221357 -36.66471423 62.81093573 -36.20735168 61.30859375 C-34.63151083 56.20182333 -34.63151083 56.20182333 -33.51953125 55.08984375 C-31.01953125 54.96484375 -31.01953125 54.96484375 -28.51953125 55.08984375 C-27.51953125 56.08984375 -27.51953125 56.08984375 -27.39648342 58.05574131 C-27.39786611 59.35961749 -27.39786611 59.35961749 -27.39927673 60.68983459 C-27.39790207 61.68407944 -27.3965274 62.67832428 -27.39511108 63.70269775 C-27.39870636 64.80248962 -27.40230164 65.90228149 -27.40600586 67.03540039 C-27.40585983 68.18646774 -27.40571381 69.3375351 -27.40556335 70.52348328 C-27.40626307 74.34900766 -27.41405823 78.17448406 -27.421875 82 C-27.42373897 84.64415968 -27.42516297 87.28831971 -27.42616272 89.93247986 C-27.42927576 96.19399792 -27.43748877 102.45549861 -27.44751221 108.71700901 C-27.4586742 115.84385912 -27.46418401 122.97071005 -27.46920764 130.09756672 C-27.47967141 144.76166827 -27.49747081 159.42575519 -27.51953125 174.08984375 C-23.22953125 174.08984375 -18.93953125 174.08984375 -14.51953125 174.08984375 C-14.51953125 149.99984375 -14.51953125 125.90984375 -14.51953125 101.08984375 C-11.21953125 101.08984375 -7.91953125 101.08984375 -4.51953125 101.08984375 C-4.51953125 125.17984375 -4.51953125 149.26984375 -4.51953125 174.08984375 C-2.86953125 174.08984375 -1.21953125 174.08984375 0.48046875 174.08984375 C0.320625 173.5175 0.16078125 172.94515625 -0.00390625 172.35546875 C-1.49455506 165.80564824 -0.99667236 158.92859265 2.48046875 153.08984375 C3.3173674 152.42056351 4.15426605 151.75128326 5.01652527 151.0617218 C8.45472796 146.91474392 8.1538144 143.84637579 8.0480957 138.61791992 C8.04882584 137.67109344 8.04955597 136.72426697 8.05030823 135.74874878 C8.04683104 132.62618271 8.00796271 129.50511725 7.96875 126.3828125 C7.95942237 124.21520299 7.95230602 122.04758293 7.9473114 119.87995911 C7.92823788 114.180011 7.8791332 108.48070184 7.8237915 102.78100586 C7.77260716 96.96281579 7.74979905 91.14452229 7.72460938 85.32617188 C7.67101548 73.91378206 7.58569772 62.50186608 7.48046875 51.08984375 C8.25800003 50.78208008 9.03553131 50.47431641 9.83662415 50.15722656 C14.23283778 48.38237078 18.4302711 46.21051602 22.66796875 44.08984375 C23.63379883 43.60652588 24.59962891 43.12320801 25.59472656 42.62524414 C32.03917944 39.37605125 38.41662064 36.0235649 44.73046875 32.52734375 C45.86391724 31.90182617 45.86391724 31.90182617 47.02026367 31.26367188 C49.7822264 29.7153037 52.23005443 28.34025807 54.48046875 26.08984375 C54.47124173 23.54270971 54.47124173 23.54270971 53.48046875 21.08984375 C49.60801032 17.92564969 46.78251852 19.97129558 42.91796875 22.08984375 Z M-57.51953125 157.08984375 C-59.63019247 160.65158456 -60.51953125 163.0153618 -60.51953125 167.15234375 C-58.99193915 171.63964554 -56.89061717 174.84350371 -52.69140625 177.05078125 C-48.74294807 178.37211568 -46.029821 178.26231426 -42.20703125 176.58984375 C-38.46769561 174.38157467 -36.74949481 172.35371741 -35.51953125 168.08984375 C-35.3337252 163.7909673 -36.02957364 160.86701788 -38.33203125 157.21484375 C-41.34434009 154.28860088 -43.16809567 153.27003516 -47.33203125 152.71484375 C-51.4642976 153.20099273 -54.35370971 154.37058646 -57.51953125 157.08984375 Z M10.16796875 158.21484375 C7.80731303 162.23670164 7.5746599 165.5367515 8.48046875 170.08984375 C10.8128028 174.09854291 12.98162259 176.23977865 17.35546875 177.65234375 C21.78798894 178.46357858 24.6237258 177.46322403 28.48046875 175.08984375 C31.33792969 171.86604167 32.37097614 169.85629202 32.98046875 165.58984375 C32.24047339 160.40987623 30.18511143 157.43561429 26.10546875 154.21484375 C19.4325286 151.35501226 15.19968965 153.59110022 10.16796875 158.21484375 Z M-62.51953125 191.08984375 C-65.07960158 194.74770512 -64.77609384 198.62759408 -64.71484375 202.91796875 C-64.71201385 203.66697449 -64.70918396 204.41598022 -64.70626831 205.18768311 C-64.69510385 207.57190151 -64.67000656 209.95573954 -64.64453125 212.33984375 C-64.6344966 213.95962998 -64.6253716 215.57942211 -64.6171875 217.19921875 C-64.59688112 221.16302364 -64.55772665 225.12600964 -64.51953125 229.08984375 C-53.62953125 229.08984375 -42.73953125 229.08984375 -31.51953125 229.08984375 C-31.42742488 224.35659969 -31.34787932 219.62649446 -31.29980469 214.89306641 C-31.27975498 213.28488601 -31.25250761 211.67677792 -31.21777344 210.06884766 C-31.16895861 207.75014355 -31.14649697 205.4324075 -31.12890625 203.11328125 C-31.10826111 202.40054047 -31.08761597 201.68779968 -31.06634521 200.95346069 C-31.06408175 195.85711127 -32.30767947 193.00565291 -35.51953125 189.08984375 C-43.11060814 184.60774033 -55.83845196 185.49638202 -62.51953125 191.08984375 Z M4.48046875 193.08984375 C3.29081423 196.65880731 3.35557149 199.88927842 3.3828125 203.6015625 C3.38381958 204.24726196 3.38482666 204.89296143 3.38586426 205.55822754 C3.39108664 207.96461774 3.40504792 210.37098257 3.41796875 212.77734375 C3.43859375 218.16046875 3.45921875 223.54359375 3.48046875 229.08984375 C14.37046875 229.08984375 25.26046875 229.08984375 36.48046875 229.08984375 C36.57246956 224.19591197 36.65204865 219.30499733 36.70019531 214.41088867 C36.72027082 212.74737362 36.74753751 211.08392879 36.78222656 209.4206543 C36.83092641 207.02505135 36.85347731 204.63038383 36.87109375 202.234375 C36.90206146 201.12471123 36.90206146 201.12471123 36.93365479 199.99263 C36.93524976 196.29535352 36.6098882 194.28775996 34.56567383 191.16162109 C30.77208588 187.39246206 28.07396783 186.82323318 22.68554688 186.76757812 C21.97849609 186.77080078 21.27144531 186.77402344 20.54296875 186.77734375 C19.83978516 186.76123047 19.13660156 186.74511719 18.41210938 186.72851562 C12.41173378 186.72289203 8.32484536 188.47659182 4.48046875 193.08984375 Z " fill="#28156C" transform="translate(73.51953125,17.91015625)"/>
<path d="M0 0 C0.88615683 -0.00260775 1.77231365 -0.00521549 2.68532372 -0.00790226 C4.16238257 -0.00455618 4.16238257 -0.00455618 5.66928101 -0.0011425 C6.70665216 -0.00270249 7.74402332 -0.00426248 8.81282997 -0.00586975 C12.31756603 -0.00988463 15.8222594 -0.00668822 19.32699585 -0.00355339 C21.82795233 -0.00490721 24.32890861 -0.00668704 26.8298645 -0.00886345 C32.93483702 -0.0129639 39.03979255 -0.01234444 45.14476442 -0.00945081 C50.10421125 -0.00719698 55.06365462 -0.00688416 60.02310181 -0.00797462 C61.07987812 -0.00820447 61.07987812 -0.00820447 62.15800345 -0.00843897 C63.58899419 -0.00875868 65.01998492 -0.00908289 66.45097566 -0.00941156 C79.88508894 -0.01226651 93.31919541 -0.0089791 106.75330758 -0.00361119 C118.29284771 0.00085686 129.83237778 0.00008093 141.37191772 -0.00452995 C154.75632836 -0.00987546 168.14073302 -0.01199181 181.52514458 -0.00891769 C182.95101801 -0.00859912 184.37689145 -0.00828475 185.80276489 -0.00797462 C186.5044132 -0.00782035 187.20606151 -0.00766607 187.92897189 -0.00750712 C192.88531743 -0.00664189 197.84165919 -0.00810497 202.79800415 -0.01045418 C209.46272589 -0.01354353 216.1274315 -0.01135977 222.7921524 -0.00555992 C225.24604511 -0.00423157 227.6999394 -0.00462769 230.15383148 -0.00682259 C233.48810498 -0.00953117 236.82231623 -0.00615655 240.15658569 -0.0011425 C241.1412916 -0.00337322 242.12599751 -0.00560395 243.14054298 -0.00790226 C244.46977822 -0.00399064 244.46977822 -0.00399064 245.8258667 0 C246.98187158 0.00024353 246.98187158 0.00024353 248.16123009 0.00049198 C249.91293335 0.12584114 249.91293335 0.12584114 250.91293335 1.12584114 C251.01059731 2.54030106 251.03925012 3.9596006 251.03991699 5.37742805 C251.04273682 6.29450035 251.04555664 7.21157265 251.04846191 8.15643501 C251.04542557 9.67753128 251.04542557 9.67753128 251.04232788 11.22935677 C251.04495636 12.82187515 251.04495636 12.82187515 251.04763794 14.44656563 C251.05205883 17.9750905 251.04911763 21.50356572 251.04574585 25.03209114 C251.04641882 27.47207334 251.04738879 29.91205547 251.04864502 32.35203743 C251.05012232 37.47342248 251.04796642 42.59479013 251.04330444 47.71617317 C251.03760715 54.29746829 251.04088598 60.87872263 251.04687691 67.46001625 C251.05048167 72.50070188 251.04934433 77.54137776 251.04674911 82.58206367 C251.04607961 85.00948275 251.04690908 87.4369027 251.04922867 89.86432076 C251.0517538 93.25034637 251.04791657 96.63630493 251.04232788 100.02232552 C251.04435211 101.03638969 251.04637634 102.05045387 251.04846191 103.09524727 C251.04423218 104.47085571 251.04423218 104.47085571 251.03991699 105.87425423 C251.03953997 106.6758371 251.03916294 107.47741997 251.03877449 108.30329323 C250.91293335 110.12584114 250.91293335 110.12584114 249.91293335 111.12584114 C247.88798713 111.22260528 245.85960793 111.247711 243.83235168 111.24609566 C242.86939347 111.24737729 242.86939347 111.24737729 241.88698155 111.24868482 C239.72039281 111.25034136 237.55388027 111.24481547 235.38729858 111.23936653 C233.84037274 111.23908467 232.29344676 111.23924237 230.746521 111.23980904 C226.53389303 111.24009706 222.32129329 111.23419963 218.1086719 111.22723508 C213.71107547 111.22100226 209.31347846 111.2203978 204.9158783 111.21920967 C196.58252822 111.21609614 188.2491912 111.20788246 179.91584688 111.19786018 C170.43112081 111.18669971 160.94639413 111.18118876 151.46166313 111.17616475 C131.94541246 111.16569987 112.42917395 111.14810001 92.91293335 111.12584114 C92.91293335 108.15584114 92.91293335 105.18584114 92.91293335 102.12584114 C142.08293335 102.12584114 191.25293335 102.12584114 241.91293335 102.12584114 C241.91293335 71.43584114 241.91293335 40.74584114 241.91293335 9.12584114 C163.37293335 9.12584114 84.83293335 9.12584114 3.91293335 9.12584114 C3.91293335 35.85584114 3.91293335 62.58584114 3.91293335 90.12584114 C0.94293335 90.12584114 -2.02706665 90.12584114 -5.08706665 90.12584114 C-5.11018893 78.53895712 -5.12798115 66.95207855 -5.13887882 55.3651762 C-5.1441079 49.98550352 -5.151206 44.60584657 -5.1625061 39.22618294 C-5.1733341 34.03909271 -5.1793433 28.85201765 -5.18194389 23.66491699 C-5.1837983 21.68127834 -5.18741921 19.69764056 -5.19279671 17.71400833 C-5.20000597 14.94574978 -5.20105764 12.17755476 -5.20059204 9.40928841 C-5.20418732 8.58066795 -5.20778259 7.7520475 -5.21148682 6.89831734 C-5.19884895 0.00109521 -5.19884895 0.00109521 0 0 Z " fill="#29166C" transform="translate(5.087066650390625,-0.1258411407470703)"/>
<path d="M0 0 C5.08039634 5.00767083 7.5654724 9.73720238 7.8125 16.875 C7.78975722 21.45387936 6.42911854 24.79579787 4.375 28.83984375 C3.35733193 30.64803018 3.35733193 30.64803018 3.5 32.6875 C4.7647778 34.34325394 4.7647778 34.34325394 6.375 36.0625 C9.90618324 39.93486037 11.75256539 42.92612355 11.74291992 48.2565918 C11.74753487 49.60269783 11.74753487 49.60269783 11.75224304 50.97599792 C11.74505753 51.9365358 11.73787201 52.89707367 11.73046875 53.88671875 C11.73001053 54.87750931 11.72955231 55.86829987 11.7290802 56.88911438 C11.72606265 58.97955526 11.71819123 61.06999399 11.70581055 63.16040039 C11.68750974 66.37328987 11.68530122 69.58589187 11.68554688 72.79882812 C11.68063327 74.82812751 11.67480564 76.85742493 11.66796875 78.88671875 C11.66685593 79.85332932 11.6657431 80.81993988 11.66459656 81.81584167 C11.65821671 82.70378922 11.65183685 83.59173676 11.64526367 84.5065918 C11.63954597 85.6842939 11.63954597 85.6842939 11.63371277 86.88578796 C11.5 88.6875 11.5 88.6875 10.5 89.6875 C8.97613769 89.79108779 7.44753014 89.82601138 5.92016602 89.83276367 C4.45843712 89.84233345 4.45843712 89.84233345 2.96717834 89.85209656 C1.37660866 89.85376579 1.37660866 89.85376579 -0.24609375 89.85546875 C-1.32754166 89.85879715 -2.40898956 89.86212555 -3.52320862 89.86555481 C-5.81567966 89.87062877 -8.10815812 89.87296299 -10.40063477 89.87280273 C-13.91890567 89.87498845 -17.43686281 89.89313728 -20.95507812 89.91210938 C-23.17708225 89.91504328 -25.39908788 89.91702809 -27.62109375 89.91796875 C-28.67944931 89.92515427 -29.73780487 89.93233978 -30.82823181 89.93974304 C-32.29468895 89.9351281 -32.29468895 89.9351281 -33.79077148 89.93041992 C-35.08530495 89.93255745 -35.08530495 89.93255745 -36.4059906 89.93473816 C-38.5 89.6875 -38.5 89.6875 -40.5 87.6875 C-40.7127217 84.61163879 -40.80394551 81.62827575 -40.80078125 78.55078125 C-40.80506638 77.63797897 -40.8093515 76.7251767 -40.81376648 75.78471375 C-40.81951785 73.84875315 -40.82000413 71.91277094 -40.81567383 69.97680664 C-40.812531 67.02907776 -40.83590285 64.08236906 -40.86132812 61.13476562 C-40.8636029 59.25260543 -40.86430379 57.37044254 -40.86328125 55.48828125 C-40.872491 54.61198563 -40.88170074 53.73569 -40.89118958 52.83283997 C-40.83740263 45.63204141 -39.31238719 40.1943216 -34.3125 34.75 C-33.78269531 34.16347656 -33.25289062 33.57695312 -32.70703125 32.97265625 C-32.30871094 32.54855469 -31.91039062 32.12445313 -31.5 31.6875 C-32.139375 30.759375 -32.77875 29.83125 -33.4375 28.875 C-36.47650203 23.51333213 -37.19186913 17.49943281 -36.09375 11.44921875 C-34.04334496 5.16375091 -30.07362094 0.29601309 -24.5 -3.1875 C-16.01859778 -6.36802583 -7.12305012 -6.03225093 0 0 Z M-25.375 11 C-26.85117243 14.52641192 -26.96618895 16.89139 -26.5 20.6875 C-24.58831748 24.66379964 -23.01303163 26.37178823 -19.25 28.6875 C-14.66086038 29.91127057 -11.75923227 29.7725635 -7.5 27.6875 C-4.56689692 25.18214112 -2.893636 23.34017022 -1.98828125 19.5390625 C-1.65474314 15.19565507 -2.34458947 12.21472746 -4.9375 8.6875 C-8.07112909 5.50942227 -10.89930565 4.57426697 -15.3203125 4.41796875 C-19.94307411 4.98960056 -22.54651022 7.51152928 -25.375 11 Z M-28.5 42.6875 C-30.99336211 46.42754317 -30.75481228 49.31311609 -30.6953125 53.63671875 C-30.6924826 54.40933548 -30.68965271 55.18195221 -30.68673706 55.97798157 C-30.67554878 58.44381243 -30.65044703 60.90927906 -30.625 63.375 C-30.61496843 65.04752079 -30.60584289 66.72004728 -30.59765625 68.39257812 C-30.577316 72.49113838 -30.53816585 76.58891185 -30.5 80.6875 C-19.61 80.6875 -8.72 80.6875 2.5 80.6875 C2.5928125 72.6746875 2.5928125 72.6746875 2.6875 64.5 C2.71481201 62.82268799 2.74212402 61.14537598 2.77026367 59.41723633 C2.77903182 58.07634194 2.78667498 56.73543953 2.79296875 55.39453125 C2.80831665 54.70758179 2.82366455 54.02063232 2.83947754 53.31286621 C2.84238288 47.94863457 1.42993331 44.93908886 -2 40.9375 C-5.53833274 37.98888938 -9.95148361 38.43430666 -14.3125 38.375 C-15.36147461 38.33149414 -15.36147461 38.33149414 -16.43164062 38.28710938 C-21.57016955 38.22462025 -24.42792325 39.30931974 -28.5 42.6875 Z " fill="#28156C" transform="translate(176.5,166.3125)"/>
<path d="M0 0 C4.51876621 4.7633112 5.89694672 9.21911341 6.16015625 15.75 C5.98822023 21.40956072 4.52104176 24.9222557 1.66015625 29.75 C1.66015625 32.66038864 3.14993046 33.5830156 5.09765625 35.6875 C8.60195969 39.47497948 9.78434802 42.04106791 9.78955078 47.20556641 C9.79270294 48.10304596 9.7958551 49.00052551 9.79910278 49.92520142 C9.79707855 50.89090057 9.79505432 51.85659973 9.79296875 52.8515625 C9.79392548 53.84376801 9.7948822 54.83597351 9.79586792 55.85824585 C9.79654838 57.95465152 9.79470344 60.05105931 9.79052734 62.14746094 C9.78516592 65.36918829 9.79048269 68.59077693 9.796875 71.8125 C9.79621442 73.84635448 9.79493367 75.88020887 9.79296875 77.9140625 C9.79499298 78.88381012 9.79701721 79.85355774 9.79910278 80.85269165 C9.79437454 82.1894545 9.79437454 82.1894545 9.78955078 83.55322266 C9.78875519 84.3413736 9.78795959 85.12952454 9.78713989 85.94155884 C9.66015625 87.75 9.66015625 87.75 8.66015625 88.75 C7.13647903 88.85878765 5.60783027 88.89903642 4.08032227 88.91113281 C2.61859337 88.92554413 2.61859337 88.92554413 1.12733459 88.94024658 C-0.46323509 88.9466214 -0.46323509 88.9466214 -2.0859375 88.953125 C-3.16738541 88.95882507 -4.24883331 88.96452515 -5.36305237 88.97039795 C-7.65551774 88.97986382 -9.94799682 88.9863882 -12.24047852 88.99023438 C-15.75886587 88.99994898 -19.27667157 89.03096165 -22.79492188 89.0625 C-25.0169236 89.06902867 -27.23892951 89.07427968 -29.4609375 89.078125 C-30.51929306 89.0904718 -31.57764862 89.1028186 -32.66807556 89.11553955 C-33.64571365 89.11253845 -34.62335175 89.10953735 -35.63061523 89.10644531 C-36.9251487 89.11191376 -36.9251487 89.11191376 -38.24583435 89.11749268 C-38.93685745 88.99622009 -39.62788055 88.87494751 -40.33984375 88.75 C-42.94400816 84.84375339 -42.64557641 81.52117409 -42.640625 76.98828125 C-42.64491013 76.12365768 -42.64919525 75.25903412 -42.65361023 74.36820984 C-42.6593546 72.53657913 -42.659853 70.7049256 -42.65551758 68.87329102 C-42.65237509 66.09025283 -42.67575383 63.30829601 -42.70117188 60.52539062 C-42.70344681 58.74218883 -42.70414746 56.9589842 -42.703125 55.17578125 C-42.71233475 54.35153152 -42.72154449 53.5272818 -42.73103333 52.67805481 C-42.66988097 44.91674879 -40.79414959 38.55619654 -35.33984375 32.75 C-34.34984375 32.255 -34.34984375 32.255 -33.33984375 31.75 C-34.68091861 28.27321539 -34.68091861 28.27321539 -36.38671875 24.96875 C-38.64720091 19.70664399 -38.17610395 12.73392845 -36.65234375 7.296875 C-33.99091912 1.48609788 -29.38937383 -2.98142622 -23.33984375 -5.25 C-15.16385004 -7.64297377 -6.39827299 -5.46546523 0 0 Z M-25.33984375 7.75 C-27.73351439 11.147468 -28.59415726 13.72036439 -28.33984375 17.8125 C-27.57459118 22.07023503 -25.85163799 24.15432599 -22.33984375 26.75 C-18.09129711 28.63824295 -16.14636094 28.98238631 -11.65234375 27.6875 C-7.19266112 25.07900639 -5.0095848 22.80387257 -3.40234375 17.875 C-3.31849373 13.68249898 -4.20187776 11.35781761 -6.33984375 7.75 C-9.43864515 5.08830913 -12.38998779 3.90507852 -16.40234375 3.25 C-20.27818035 3.90971687 -22.34098827 5.21763315 -25.33984375 7.75 Z M-29.33984375 40.75 C-32.57380973 44.89416128 -32.74214037 48.6068436 -32.6328125 53.67578125 C-32.62856766 54.42337204 -32.62432281 55.17096283 -32.61994934 55.94120789 C-32.60323431 58.31534732 -32.56559722 60.68861967 -32.52734375 63.0625 C-32.51228756 64.67772206 -32.49860078 66.29295751 -32.48632812 67.90820312 C-32.45591315 71.85606682 -32.39718325 75.80206958 -32.33984375 79.75 C-21.44984375 79.75 -10.55984375 79.75 0.66015625 79.75 C0.7291612 74.99888122 0.78885132 70.24951229 0.82495117 65.49829102 C0.84000501 63.88332211 0.86045273 62.26839387 0.88647461 60.65356445 C0.92300911 58.32753445 0.9399164 56.00204659 0.953125 53.67578125 C0.96860886 52.95787918 0.98409271 52.23997711 1.00004578 51.50032043 C1.00152542 47.05779221 0.40768966 44.27082293 -2.33984375 40.75 C-6.84700759 37.78407897 -10.5028977 37.34245765 -15.83984375 37.375 C-17.10828125 37.36726563 -18.37671875 37.35953125 -19.68359375 37.3515625 C-23.65609569 37.78446335 -26.00909529 38.55821438 -29.33984375 40.75 Z " fill="#28156C" transform="translate(246.33984375,167.25)"/>
<path d="M0 0 C28.38 0 56.76 0 86 0 C86 3.3 86 6.6 86 10 C57.62 10 29.24 10 0 10 C0 6.7 0 3.4 0 0 Z " fill="#29156C" transform="translate(136,72)"/>
<path d="M0 0 C28.38 0 56.76 0 86 0 C86 3.3 86 6.6 86 10 C57.62 10 29.24 10 0 10 C0 6.7 0 3.4 0 0 Z " fill="#29156C" transform="translate(153,46)"/>
<path d="M0 0 C28.71 0 57.42 0 87 0 C87 2.97 87 5.94 87 9 C58.29 9 29.58 9 0 9 C0 6.03 0 3.06 0 0 Z " fill="#29166D" transform="translate(140,21)"/>
</svg>
