<?xml version="1.0" encoding="UTF-8"?>
<svg version="1.1" xmlns="http://www.w3.org/2000/svg" width="512" height="512">
<path d="M0 0 C1.01723145 -0.00335861 2.03446289 -0.00671722 3.08251953 -0.01017761 C6.43295526 -0.01964729 9.78334079 -0.0216288 13.13378906 -0.02270508 C15.47397888 -0.02592067 17.81416851 -0.02928497 20.15435791 -0.03279114 C25.05668605 -0.03877263 29.95899659 -0.04063207 34.86132812 -0.04003906 C41.12313315 -0.03993755 47.38482451 -0.05358252 53.64660263 -0.07081127 C58.4800874 -0.08196586 63.313545 -0.0839572 68.14704132 -0.08342934 C70.45455568 -0.08460451 72.76207085 -0.08900017 75.06957245 -0.0967617 C78.30687773 -0.10663048 81.54394026 -0.10365634 84.78125 -0.09765625 C85.72188293 -0.10327576 86.66251587 -0.10889526 87.63165283 -0.11468506 C99.00188012 -0.0615108 109.70087307 1.37710793 118.33691406 9.27026367 C126.09409348 17.8011681 128.16454117 28.30234744 130.46191406 39.27026367 C132.03972656 46.63338867 132.03972656 46.63338867 133.64941406 54.14526367 C152.78941406 59.09526367 171.92941406 64.04526367 191.64941406 69.14526367 C190.99132816 75.06803682 190.33984405 79.98117677 188.87109375 85.61767578 C188.60494514 86.64893837 188.60494514 86.64893837 188.3334198 87.70103455 C187.75265787 89.94334214 187.1625399 92.18304453 186.57128906 94.42260742 C186.15847479 95.99998378 185.74590179 97.5774233 185.33355713 99.15492249 C184.47047089 102.45000968 183.60232929 105.74371591 182.73095703 109.03662109 C181.62194226 113.23044184 180.52892915 117.42824728 179.44013596 121.62735653 C178.59329879 124.88357778 177.73621914 128.13703979 176.87631989 131.38983345 C176.46939302 132.93527044 176.06594044 134.48162704 175.66622162 136.02894402 C171.67439481 151.44597948 167.31194462 162.88471806 153.46582031 171.62963867 C147.58508465 174.79430641 142.57183438 175.4857441 136.02441406 175.45776367 C135.29351562 175.47387695 134.56261719 175.48999023 133.80957031 175.5065918 C127.13958049 175.51235172 121.04433474 173.94294239 114.64941406 172.14526367 C115.34005539 167.92721455 116.0339018 163.70970899 116.73071289 159.49267578 C116.96727066 158.05825043 117.20295463 156.62368069 117.43774414 155.18896484 C117.77552919 153.12583377 118.11646133 151.0632437 118.45800781 149.00073242 C118.66224365 147.75960693 118.86647949 146.51848145 119.0769043 145.23974609 C119.64941406 142.14526367 119.64941406 142.14526367 120.64941406 139.14526367 C117.34941406 139.14526367 114.04941406 139.14526367 110.64941406 139.14526367 C110.40034302 140.66325562 110.40034302 140.66325562 110.14624023 142.21191406 C109.51701635 146.04242525 108.88434121 149.87236033 108.25073242 153.70214844 C107.97931367 155.34555294 107.70877533 156.98910314 107.43920898 158.6328125 C101.13134069 197.07909357 101.13134069 197.07909357 90.64941406 205.14526367 C84.16159654 208.76178358 78.43117979 210.26375554 71.02001953 210.30639648 C70.36250198 210.31136139 69.70498444 210.31632629 69.02754211 210.32144165 C66.85721781 210.33601639 64.68696673 210.34285934 62.51660156 210.34838867 C61.39895605 210.35262974 61.39895605 210.35262974 60.25873184 210.35695648 C56.3114817 210.37193462 52.36426793 210.38117122 48.41699219 210.38549805 C44.36215577 210.39096374 40.30765836 210.41495507 36.25292778 210.44347 C33.11627269 210.46220893 29.97969718 210.46730804 26.84299088 210.46883392 C25.3496326 210.47183843 23.85627497 210.47979146 22.36297226 210.4930191 C11.40531026 210.58311051 1.2611569 210.21176544 -7.54931641 202.98413086 C-14.06954097 196.32781053 -16.45886138 188.41700388 -17.97558594 179.45776367 C-18.1730542 178.38502197 -18.37052246 177.31228027 -18.57397461 176.20703125 C-19.18546063 172.85624483 -19.76852087 169.50127065 -20.35058594 166.14526367 C-20.74876817 163.9444605 -21.14847766 161.74393304 -21.54980469 159.54370117 C-22.26089705 155.59369583 -22.96995548 151.64347567 -23.65136719 147.68823242 C-23.85499878 146.51296997 -23.85499878 146.51296997 -24.06274414 145.31396484 C-24.35058594 143.14526367 -24.35058594 143.14526367 -24.35058594 139.14526367 C-27.65058594 139.14526367 -30.95058594 139.14526367 -34.35058594 139.14526367 C-34.19912109 139.93175293 -34.04765625 140.71824219 -33.89160156 141.52856445 C-33.20556986 145.1080668 -32.52800045 148.68912098 -31.85058594 152.27026367 C-31.61210937 153.50776367 -31.37363281 154.74526367 -31.12792969 156.02026367 C-30.78955078 157.81850586 -30.78955078 157.81850586 -30.44433594 159.65307617 C-30.23486328 160.75280762 -30.02539062 161.85253906 -29.80957031 162.9855957 C-29.35877917 166.08886108 -29.26809091 169.01457741 -29.35058594 172.14526367 C-40.43545397 176.24715317 -53.706099 177.38729454 -64.91308594 173.14526367 C-76.6726694 167.28171446 -82.82823153 158.25352349 -87.07653809 146.06196594 C-88.73801508 140.76427763 -90.09036037 135.38735641 -91.44433594 130.00463867 C-91.88395423 128.30277561 -92.32477318 126.6012223 -92.76672363 124.89996338 C-93.68042068 121.36940496 -94.5836801 117.83641044 -95.47851562 114.30102539 C-96.62716447 109.76407823 -97.79631396 105.23272594 -98.97237396 100.70281601 C-99.87896373 97.20601857 -100.77800073 93.70731756 -101.6743927 90.20789337 C-102.10339445 88.53446989 -102.53404135 86.86146728 -102.96635437 85.18889618 C-103.56459107 82.8672082 -104.15334937 80.54333105 -104.73925781 78.21850586 C-104.91887054 77.52768417 -105.09848328 76.83686249 -105.28353882 76.12510681 C-106.46512841 71.37434861 -106.46512841 71.37434861 -105.35058594 69.14526367 C-103.07984924 68.36894226 -103.07984924 68.36894226 -100.03637695 67.62060547 C-98.90172501 67.33658371 -97.76707306 67.05256195 -96.59803772 66.75993347 C-95.36266769 66.45783463 -94.12729767 66.15573578 -92.85449219 65.84448242 C-90.9310933 65.35828828 -89.00770021 64.87206962 -87.0846777 64.38438892 C-82.32710547 63.17993797 -77.56563677 61.99162587 -72.79956055 60.82128906 C-70.12921678 60.164827 -67.46209803 59.49734951 -64.79759216 58.81758118 C-62.28345458 58.17681635 -59.76493574 57.55296606 -57.24208069 56.94743347 C-56.10427658 56.65395523 -54.96647247 56.36047699 -53.79418945 56.05810547 C-52.789048 55.80876755 -51.78390656 55.55942963 -50.74830627 55.30253601 C-48.14459272 54.3371179 -48.14459272 54.3371179 -47.05500793 51.7081604 C-46.26337884 48.82797833 -45.58165137 45.95903668 -44.98339844 43.03198242 C-44.7371875 41.86602539 -44.49097656 40.70006836 -44.23730469 39.4987793 C-43.73214851 37.06755327 -43.23209173 34.63526176 -42.73730469 32.2019043 C-40.4396818 21.39831482 -37.36938458 12.4877912 -27.97558594 5.95776367 C-19.17453419 0.34925031 -10.16883201 -0.00485741 0 0 Z M3.64941406 64.14526367 C-5.29775573 75.56061823 -9.61997148 89.17240208 -7.94433594 103.65698242 C-5.23062832 118.34007899 1.66473092 130.70270394 13.96191406 139.45776367 C27.0031899 147.52547737 40.74664316 150.36927941 55.83691406 147.02026367 C69.45183662 143.12769938 79.89323757 135.06000473 87.14550781 122.96166992 C93.6110604 110.85345327 95.61043584 98.18569516 92.96582031 84.64526367 C88.14807946 69.29246294 78.87267937 58.35159911 64.77441406 50.89526367 C43.26442233 40.59850071 19.53519169 46.95826194 3.64941406 64.14526367 Z M-47.35058594 84.14526367 C-49.4663653 86.45939735 -50.27567548 87.97010593 -50.47558594 91.10620117 C-50.25196914 94.86575858 -49.74242685 96.6957991 -47.22558594 99.58276367 C-43.76435018 101.46387006 -41.29195467 102.07488209 -37.35058594 102.14526367 C-33.77670991 100.55687433 -32.53969022 99.42892009 -30.35058594 96.14526367 C-29.90976433 91.59010711 -29.71903255 89.26262737 -31.97558594 85.27026367 C-37.34940858 80.46210657 -41.18994826 80.54187182 -47.35058594 84.14526367 Z M118.64941406 84.14526367 C116.36065889 87.36382564 115.64941406 89.26384501 115.64941406 93.20776367 C116.95075421 97.03045037 118.43847733 98.70215964 121.64941406 101.14526367 C125.9478718 102.47387788 127.84783594 102.50824244 131.96191406 100.64526367 C135.26549757 97.57216273 136.02587172 95.58800285 136.64941406 91.14526367 C135.71551407 87.12949371 133.85327339 84.70835114 130.64941406 82.14526367 C126.00843674 80.26378638 122.85634533 81.7301735 118.64941406 84.14526367 Z " fill="#000000" transform="translate(213.3505859375,42.854736328125)"/>
<path d="M0 0 C18.48 0 36.96 0 56 0 C56 3.63 56 7.26 56 11 C58.64 11 61.28 11 64 11 C64 16.28 64 21.56 64 27 C67.3 27 70.6 27 74 27 C74 28.65 74 30.3 74 32 C76.64 32 79.28 32 82 32 C81.76494751 31.11477661 81.76494751 31.11477661 81.52514648 30.21166992 C80.82065615 27.5391297 80.12895301 24.86344149 79.4375 22.1875 C79.19064453 21.25873047 78.94378906 20.32996094 78.68945312 19.37304688 C78.46064453 18.48037109 78.23183594 17.58769531 77.99609375 16.66796875 C77.78138428 15.84578857 77.5666748 15.0236084 77.34545898 14.17651367 C77 12 77 12 78 9 C80.87581074 8.05790091 83.62235794 7.32200866 86.56640625 6.66796875 C87.43385971 6.46770584 88.30131317 6.26744293 89.1950531 6.06111145 C91.03712974 5.64025219 92.88079085 5.22627879 94.72583008 4.81860352 C97.53200036 4.19428557 100.32905248 3.53721519 103.12695312 2.87695312 C104.91881402 2.47193201 106.71112025 2.06887511 108.50390625 1.66796875 C109.33443008 1.47019333 110.16495392 1.27241791 111.02064514 1.06864929 C116.67667106 -0.14242972 120.5149807 0.0753328 126 2 C129.23932111 5.07320208 130.49466764 7.57834189 131 12 C125.27969661 14.00696889 119.46043115 15.34598315 113.55859375 16.70703125 C109.5608972 18.15954229 107.68278812 19.73768967 105 23 C102.82563852 29.52308444 104.1632887 35.81637368 105.78515625 42.296875 C105.96509628 43.0529303 106.14503632 43.8089856 106.33042908 44.58795166 C107.09273147 47.78994864 107.87593272 50.98673541 108.6574707 54.18408203 C109.2282941 56.53246328 109.78823694 58.8832558 110.34765625 61.234375 C110.52780777 61.9542157 110.70795929 62.6740564 110.89356995 63.41571045 C111.79435935 67.20795375 111.97012703 69.11949187 111 73 C104.73 74.32 98.46 75.64 92 77 C91.01 72.91625 91.01 72.91625 90 68.75 C89.68675781 67.47334473 89.68675781 67.47334473 89.3671875 66.17089844 C89.12355469 65.15044434 89.12355469 65.15044434 88.875 64.109375 C88.70742188 63.41811523 88.53984375 62.72685547 88.3671875 62.01464844 C88 60 88 60 88 56 C83.38 56 78.76 56 74 56 C74 57.32 74 58.64 74 60 C70.7 60 67.4 60 64 60 C64.13792969 61.07765625 64.27585937 62.1553125 64.41796875 63.265625 C64.41090733 69.67739589 60.65084679 74.51403151 57.3125 79.75 C56.68666016 80.77738281 56.06082031 81.80476563 55.41601562 82.86328125 C51.98468357 88.37497064 48.98078668 93.00960666 43 96 C38.93261238 96.25767704 34.86347546 96.27103377 30.78857422 96.29516602 C28.77110916 96.31232051 26.75530907 96.35619871 24.73828125 96.40039062 C22.81822266 96.41295898 22.81822266 96.41295898 20.859375 96.42578125 C19.68858398 96.44036377 18.51779297 96.45494629 17.31152344 96.4699707 C12.46595477 95.78228863 9.33485387 93.54218224 6.1640625 89.87890625 C4.42592197 87.2628724 2.70202458 84.63973042 1 82 C0.26652344 80.93523437 -0.46695313 79.87046875 -1.22265625 78.7734375 C-5.543391 72.35357562 -8.06390533 67.84630183 -7 60 C-10.63 60 -14.26 60 -18 60 C-18 58.68 -18 57.36 -18 56 C-22.95 56 -27.9 56 -33 56 C-33 63.26 -33 70.52 -33 78 C-37.29 78 -41.58 78 -46 78 C-46 88.89 -46 99.78 -46 111 C-42.7 111 -39.4 111 -36 111 C-36 113.64 -36 116.28 -36 119 C-35.113125 118.9175 -34.22625 118.835 -33.3125 118.75 C-29.17081054 119.06258034 -27.87770982 120.05155294 -25 123 C-24.39872742 125.94866943 -24.39872742 125.94866943 -24.43237305 129.42089844 C-24.4327507 130.72194519 -24.43312836 132.02299194 -24.43351746 133.36346436 C-24.45904899 134.77877767 -24.48512894 136.19408118 -24.51171875 137.609375 C-24.52104816 139.06096173 -24.52816367 140.51256424 -24.53315735 141.96417236 C-24.55221776 145.77862267 -24.60130829 149.59211593 -24.65667725 153.40618896 C-24.70789159 157.30060886 -24.73067593 161.19518392 -24.75585938 165.08984375 C-24.80942969 172.72699808 -24.89472867 180.36336478 -25 188 C-24.37818848 188.29801514 -23.75637695 188.59603027 -23.11572266 188.90307617 C-20.78582132 190.11104371 -19.2335358 191.46624527 -17.375 193.3125 C-16.78460938 193.88613281 -16.19421875 194.45976562 -15.5859375 195.05078125 C-6.94058315 205.67647539 -12 224.3193575 -12 235 C-42.69 235 -73.38 235 -105 235 C-105 199.57383966 -105 199.57383966 -99.1484375 192.8828125 C-98.56320313 192.30273438 -97.97796875 191.72265625 -97.375 191.125 C-96.48941406 190.23167969 -96.48941406 190.23167969 -95.5859375 189.3203125 C-94 188 -94 188 -92 188 C-92.00666183 187.19233688 -92.01332367 186.38467377 -92.02018738 185.55253601 C-92.08027057 177.94524203 -92.12596002 170.33806292 -92.15543652 162.73059368 C-92.17110009 158.81939774 -92.19235063 154.90839766 -92.22631836 150.99731445 C-92.25888769 147.22367741 -92.2768478 143.4502289 -92.28463173 139.67646217 C-92.29017965 138.23591964 -92.30101336 136.79538754 -92.31719017 135.35492516 C-92.33892959 133.3391766 -92.3402251 131.32323879 -92.34057617 129.30737305 C-92.35056892 127.58528877 -92.35056892 127.58528877 -92.36076355 125.82841492 C-92 123 -92 123 -90.60371399 121.16828918 C-87.34320701 118.7930433 -84.97892251 118.91350168 -81 119 C-81 116.36 -81 113.72 -81 111 C-77.7 111 -74.4 111 -71 111 C-71 100.11 -71 89.22 -71 78 C-72.98 78 -74.96 78 -77 78 C-80.39126608 75.78263372 -82.48874255 73.97603696 -84.375 70.375 C-85.2643779 65.57235932 -85.15594615 60.8689852 -85 56 C-85.7425 55.9175 -86.485 55.835 -87.25 55.75 C-90.67276023 54.81651994 -91.91631794 53.8680159 -94 51 C-94.88767498 45.86372891 -95.34833127 39.76594439 -93.01171875 34.97265625 C-91.75 33.625 -91.75 33.625 -89 32 C-87.68 32 -86.36 32 -85 32 C-85.02320313 31.28714844 -85.04640625 30.57429688 -85.0703125 29.83984375 C-85.17580627 24.24113865 -85.24390432 19.23577675 -83 14 C-79.57609818 10.57609818 -76.74930399 9.16226271 -71.96246338 8.87974548 C-71.24298523 8.88196609 -70.52350708 8.88418671 -69.78222656 8.88647461 C-68.96167786 8.88655014 -68.14112915 8.88662567 -67.29571533 8.88670349 C-66.41953552 8.89186478 -65.54335571 8.89702606 -64.640625 8.90234375 C-63.28405792 8.90446617 -63.28405792 8.90446617 -61.90008545 8.90663147 C-59.01668973 8.91222089 -56.13337218 8.92477147 -53.25 8.9375 C-51.29296987 8.94251637 -49.33593853 8.94707904 -47.37890625 8.95117188 C-42.58588329 8.9613352 -37.79302896 8.98091272 -33 9 C-33 16.59 -33 24.18 -33 32 C-28.05 32 -23.1 32 -18 32 C-18 30.35 -18 28.7 -18 27 C-14.37 27 -10.74 27 -7 27 C-7 21.72 -7 16.44 -7 11 C-4.69 11 -2.38 11 0 11 C0 7.37 0 3.74 0 0 Z " fill="#000000" transform="translate(228,263)"/>
<path d="M0 0 C3.55096433 2.84983274 4.6640758 5.23157441 5.64746094 9.62304688 C5.90742859 10.75101685 6.16739624 11.87898682 6.4352417 13.0411377 C6.83081268 14.86155579 6.83081268 14.86155579 7.234375 16.71875 C7.51726379 17.96877808 7.80015259 19.21880615 8.09161377 20.50671387 C8.68866562 23.14759139 9.27612581 25.79034756 9.85595703 28.43505859 C10.59834315 31.82075068 11.35716951 35.2024703 12.12228012 38.58309174 C12.85287552 41.81453937 13.57503287 45.04783488 14.296875 48.28125 C14.56868591 49.49486206 14.84049683 50.70847412 15.12054443 51.9588623 C15.36790344 53.08683228 15.61526245 54.21480225 15.87011719 55.37695312 C16.08899597 56.36860474 16.30787476 57.36025635 16.53338623 58.38195801 C17 61 17 61 17 65 C17.825 65.20625 18.65 65.4125 19.5 65.625 C26.00510952 68.18057874 30.69983461 71.80587648 34 78 C34.68600193 80.23142273 35.28799311 82.48964742 35.82421875 84.76171875 C36.13037109 86.04498047 36.43652344 87.32824219 36.75195312 88.65039062 C36.90543213 89.31272705 37.05891113 89.97506348 37.21704102 90.6574707 C37.68893026 92.69367158 38.17244518 94.72683312 38.65820312 96.75976562 C41 106.67120869 41 106.67120869 41 109 C19.04053196 114.30607451 -2.92313837 119.59717529 -24.95507812 124.5954895 C-26.68710216 124.98874248 -28.4187152 125.38381024 -30.14990234 125.7807312 C-32.55834222 126.33208156 -34.96830143 126.8761733 -37.37890625 127.41796875 C-38.08209488 127.57992737 -38.78528351 127.74188599 -39.50978088 127.90875244 C-43.068904 128.69873646 -46.35252782 129.17821525 -50 129 C-51.00935306 125.16200401 -52.00571204 121.32087994 -52.99072266 117.4765625 C-53.49105212 115.53472773 -54.00129752 113.59545654 -54.51171875 111.65625 C-58.42461235 96.32409548 -58.42461235 96.32409548 -55.7578125 90.1015625 C-55.21898437 89.28429687 -54.68015625 88.46703125 -54.125 87.625 C-53.59132813 86.79226563 -53.05765625 85.95953125 -52.5078125 85.1015625 C-51 83 -51 83 -49 81 C-49.1076653 78.46568789 -49.1076653 78.46568789 -49.71240234 75.57763672 C-49.91403992 74.49560974 -50.11567749 73.41358276 -50.32342529 72.29876709 C-51.32260892 67.42705958 -52.42687541 62.58996982 -53.6015625 57.7578125 C-54.09649151 55.68232441 -54.59127913 53.60680261 -55.0859375 51.53125 C-55.85829966 48.3115947 -56.63285181 45.09248922 -57.41015625 41.87402344 C-58.16724781 38.7324739 -58.91609705 35.58904532 -59.6640625 32.4453125 C-60.0155687 31.00612961 -60.0155687 31.00612961 -60.37417603 29.53787231 C-62.61978352 20.06489341 -62.61978352 20.06489341 -62 16 C-59.26866427 12.70284878 -57.11422802 11.4095709 -52.9753418 10.44433594 C-51.97717941 10.20438904 -50.97901703 9.96444214 -49.9506073 9.71722412 C-48.34116997 9.35446381 -48.34116997 9.35446381 -46.69921875 8.984375 C-45.58948196 8.72368225 -44.47974518 8.4629895 -43.33638 8.19439697 C-40.99025652 7.64646921 -38.64247503 7.10559952 -36.29321289 6.57128906 C-32.70758863 5.75457568 -29.12810756 4.91434978 -25.54882812 4.0703125 C-23.26595052 3.54026273 -20.98275687 3.01157191 -18.69921875 2.484375 C-17.63233322 2.23443787 -16.56544769 1.98450073 -15.4662323 1.72698975 C-4.89758695 -0.65750055 -4.89758695 -0.65750055 0 0 Z " fill="#000000" transform="translate(400,274)"/>
<path d="M0 0 C2.31 9.24 4.62 18.48 7 28 C6.01 28.66 5.02 29.32 4 30 C3.03058311 32.23423458 3.03058311 32.23423458 2.37426758 34.90869141 C2.09420364 35.92959869 1.81413971 36.95050598 1.52558899 38.00234985 C1.23483994 39.10759003 0.94409088 40.2128302 0.64453125 41.3515625 C0.33803146 42.4807309 0.03153168 43.60989929 -0.28425598 44.77328491 C-1.26271526 48.38773231 -2.22525383 52.00620628 -3.1875 55.625 C-3.84726474 58.07319786 -4.508059 60.52111853 -5.16992188 62.96875 C-6.79191696 68.97599876 -8.40085406 74.98663094 -10 81 C-9.39542969 81.29777344 -8.79085937 81.59554687 -8.16796875 81.90234375 C-1.94890511 85.05109489 -1.94890511 85.05109489 0 87 C0.55690457 94.12627703 -1.15787872 100.20706134 -3.140625 107.015625 C-3.62580597 108.71570709 -3.62580597 108.71570709 -4.12078857 110.45013428 C-4.8048581 112.83515121 -5.49435806 115.21861652 -6.18896484 117.60058594 C-7.24916256 121.24711963 -8.28372406 124.90027912 -9.31640625 128.5546875 C-9.98544457 130.87544295 -10.6559668 133.19577123 -11.328125 135.515625 C-11.63558655 136.60731995 -11.9430481 137.69901489 -12.25982666 138.8237915 C-12.55983582 139.83874695 -12.85984497 140.85370239 -13.16894531 141.89941406 C-13.42653625 142.79017639 -13.6841272 143.68093872 -13.94952393 144.59869385 C-15.19227547 147.43952669 -16.61862031 149.03136533 -19 151 C-21.578125 151.171875 -21.578125 151.171875 -24.25 150.75 C-25.14203125 150.62109375 -26.0340625 150.4921875 -26.953125 150.359375 C-27.96632813 150.18148437 -27.96632813 150.18148437 -29 150 C-29.27972656 151.08539063 -29.55945313 152.17078125 -29.84765625 153.2890625 C-33.76272068 167.57721819 -33.76272068 167.57721819 -41 172 C-45.66252858 173.55417619 -49.48753327 173.54448802 -54.125 171.875 C-58.18622088 169.22637769 -61.15702234 166.6530524 -62.63671875 161.99609375 C-63.56843108 156.39580133 -62.39190391 151.73594863 -60.69140625 146.3828125 C-59.86066516 143.93332252 -59.86066516 143.93332252 -60 141 C-60.54269531 140.82984375 -61.08539063 140.6596875 -61.64453125 140.484375 C-64.8186993 139.40916132 -67.45283675 138.44767903 -70.0625 136.3125 C-72.66115517 129.90248391 -68.7383563 120.95365316 -66.91015625 114.640625 C-66.45327675 113.04042511 -66.45327675 113.04042511 -65.98716736 111.40789795 C-65.34529216 109.16483063 -64.70050954 106.92259347 -64.05297852 104.68115234 C-63.06226605 101.24918955 -62.08222055 97.81431021 -61.10351562 94.37890625 C-60.4771912 92.19513209 -59.85025909 90.0115321 -59.22265625 87.828125 C-58.92988297 86.80205139 -58.63710968 85.77597778 -58.33546448 84.71881104 C-58.0585527 83.76391785 -57.78164093 82.80902466 -57.49633789 81.82519531 C-57.25508682 80.98772766 -57.01383575 80.15026001 -56.76527405 79.28741455 C-54.79470326 73.39735163 -54.79470326 73.39735163 -52 72 C-48.11287189 71.85603229 -44.7398898 71.96205702 -41 73 C-38.0236199 63.83872569 -35.30140439 54.62735302 -32.7734375 45.33203125 C-32.35786591 43.80641068 -32.35786591 43.80641068 -31.93389893 42.24996948 C-30.78602039 38.0276553 -29.64161685 33.80444947 -28.50585938 29.57885742 C-27.66426832 26.45304957 -26.81329408 23.32991793 -25.9609375 20.20703125 C-25.5811525 18.77892876 -25.5811525 18.77892876 -25.19369507 17.32197571 C-23.52346684 11.23452864 -22.24380828 6.57066579 -16.875 2.8125 C-11.37163008 -0.06187155 -6.05656008 -1.51414002 0 0 Z " fill="#000000" transform="translate(106,146)"/>
<path d="M0 0 C8.18314157 1.00634103 14.28517363 1.87932623 20.03132629 8.25325012 C22.16656446 11.2323955 23.039802 13.60997105 23.9987793 17.13549805 C24.33560226 18.34993088 24.67242523 19.56436371 25.01945496 20.81559753 C25.37124055 22.13091842 25.72282371 23.44629347 26.07421875 24.76171875 C26.4461293 26.11772436 26.81917879 27.47341805 27.1933136 28.82881165 C28.17179709 32.38438609 29.13603526 35.94366439 30.09692383 39.50402832 C31.26918654 43.83810502 32.4568496 48.16798077 33.64369678 52.49808216 C34.56633073 55.86454112 35.48615381 59.23167668 36.39738464 62.60124207 C36.72475113 63.80621841 37.05211761 65.01119476 37.3894043 66.25268555 C37.82098091 67.84888985 37.82098091 67.84888985 38.26127625 69.4773407 C38.90881093 71.9658102 38.90881093 71.9658102 40 74 C40.515625 73.835 41.03125 73.67 41.5625 73.5 C44.80842738 72.83416874 47.69543832 72.75966824 51 73 C54.60214906 75.43461833 55.37675836 79.47713153 56.5625 83.4375 C56.92516968 84.62315552 56.92516968 84.62315552 57.29516602 85.83276367 C58.21478951 88.88341901 59.10853706 91.9409915 60 95 C60.20185913 95.68783569 60.40371826 96.37567139 60.61169434 97.08435059 C62.00666608 101.83907588 63.3823543 106.59889703 64.73873901 111.36477661 C65.20324591 112.9919201 65.67158982 114.61797328 66.14382935 116.2428894 C66.81542428 118.56092358 67.47022005 120.88310572 68.12109375 123.20703125 C68.4283992 124.25145889 68.4283992 124.25145889 68.74191284 125.31698608 C69.90701777 129.559756 70.11835323 132.73580686 69 137 C66.68008014 140.60876423 62.98388179 141.02282145 59 142 C59.13277344 142.61746094 59.26554687 143.23492187 59.40234375 143.87109375 C59.96628809 146.57555677 60.49179532 149.28451827 61 152 C61.15210938 152.79921875 61.30421875 153.5984375 61.4609375 154.421875 C62.29261148 159.78155175 61.8661901 163.19219725 59 168 C55.3479918 171.84107675 52.04764808 173.84546052 46.6875 174.25 C41.30862903 173.88533078 38.38438725 172.21957925 34.375 168.6875 C30.51361437 163.80141009 29.45273467 156.92456041 28 151 C27.32453125 151.11859375 26.6490625 151.2371875 25.953125 151.359375 C25.06109375 151.48828125 24.1690625 151.6171875 23.25 151.75 C21.92742187 151.95882812 21.92742187 151.95882812 20.578125 152.171875 C18 152 18 152 15.95330811 150.30804443 C13.840027 147.81097463 13.07230502 146.023277 12.16894531 142.89941406 C11.86893616 141.88445862 11.568927 140.86950317 11.25982666 139.8237915 C10.95236511 138.73209656 10.64490356 137.64040161 10.328125 136.515625 C10.00084412 135.38606384 9.67356323 134.25650269 9.33636475 133.0927124 C8.64771723 130.7039367 7.96559992 128.31327013 7.28955078 125.92089844 C6.25640559 122.27261965 5.19821451 118.6323052 4.13671875 114.9921875 C3.46983841 112.66710088 2.80442548 110.34159278 2.140625 108.015625 C1.82506653 106.93202698 1.50950806 105.84842896 1.18438721 104.73199463 C-0.42751685 98.96883608 -1.4673526 93.98871533 -1 88 C0.69178249 85.01450148 2.27104029 84.91988669 5.62109375 83.9296875 C6.73613281 83.62289062 7.85117187 83.31609375 9 83 C6.190808 72.33443744 3.36965488 61.67210656 0.53491211 51.01330566 C0.06047502 49.22761628 -0.41226908 47.44147727 -0.88476562 45.65527344 C-1.56191395 43.1015319 -2.24738713 40.55026204 -2.9375 38 C-3.12401123 37.29117676 -3.31052246 36.58235352 -3.50268555 35.85205078 C-4.3115902 32.90024514 -4.79581393 31.20418607 -7 29 C-5.59806002 19.18642015 -2.57246372 9.56328115 0 0 Z " fill="#000000" transform="translate(407,145)"/>
<path d="M0 0 C2.50632369 2.20571515 4.88691322 4.47831386 7.23046875 6.85546875 C7.80539062 7.42007812 8.3803125 7.9846875 8.97265625 8.56640625 C18.91440086 19.12629042 22.97368383 34.1755179 22.578125 48.3984375 C20.99012648 64.18920926 15.14101151 78.05936274 3.23046875 88.85546875 C-11.47867045 100.55299893 -27.21158698 103.77430061 -45.76953125 101.85546875 C-55.31315495 100.21141618 -63.3041414 95.94242281 -70.76953125 89.85546875 C-71.40246094 89.38367188 -72.03539062 88.911875 -72.6875 88.42578125 C-83.05878168 80.32107106 -89.35772168 67.296986 -91.48828125 54.47265625 C-93.16027643 38.91381224 -90.38420152 23.6616106 -80.625 11.09375 C-78.42144919 8.58237779 -76.14625642 6.20269555 -73.76953125 3.85546875 C-73.228125 3.29214844 -72.68671875 2.72882813 -72.12890625 2.1484375 C-52.97689738 -16.18138917 -20.39106604 -15.78941503 0 0 Z M-52.26953125 -0.89453125 C-53.9246875 -0.26804687 -53.9246875 -0.26804687 -55.61328125 0.37109375 C-58.82752392 1.88274253 -61.19466129 3.41465845 -63.76953125 5.85546875 C-65.12788796 9.48019984 -65.12788796 9.48019984 -65.76953125 12.85546875 C-63.80476037 14.59109762 -61.83450726 16.31757046 -59.84375 18.0234375 C-57.76953125 19.85546875 -57.76953125 19.85546875 -55.39453125 22.41796875 C-51.12302419 24.75712738 -47.27263957 23.12219678 -42.76953125 21.85546875 C-41.43686377 21.51948321 -40.10376594 21.18517571 -38.76953125 20.85546875 C-38.06831482 18.46290626 -37.38338224 16.06756386 -36.70703125 13.66796875 C-36.50787109 12.99443359 -36.30871094 12.32089844 -36.10351562 11.62695312 C-35.01262687 7.7035813 -34.39536327 4.74542119 -35.76953125 0.85546875 C-38.11481876 -1.55496564 -39.63837668 -3.02166446 -43.03515625 -3.390625 C-46.40729172 -3.08713281 -49.11416218 -2.11834262 -52.26953125 -0.89453125 Z M-29.76953125 2.85546875 C-32.51338389 8.45459953 -34.67477215 15.5708078 -33.76953125 21.85546875 C-31.2813221 25.45519083 -28.29491629 28.27245717 -24.76953125 30.85546875 C-21.28588124 31.41952785 -21.28588124 31.41952785 -17.76953125 29.85546875 C-16.85429687 29.66726563 -15.9390625 29.4790625 -14.99609375 29.28515625 C-11.80988609 28.49069502 -9.48937117 27.7084979 -6.76953125 25.85546875 C-4.23848739 20.69963866 -3.76953125 15.53705217 -3.76953125 9.85546875 C-5.37080885 7.95011652 -5.37080885 7.95011652 -7.51953125 6.29296875 C-8.56367188 5.42478516 -8.56367188 5.42478516 -9.62890625 4.5390625 C-10.3353125 3.98347656 -11.04171875 3.42789062 -11.76953125 2.85546875 C-12.4346875 2.28957031 -13.09984375 1.72367187 -13.78515625 1.140625 C-18.31853327 -1.7953613 -25.50980052 -0.00322097 -29.76953125 2.85546875 Z M-75.76953125 17.85546875 C-79.85738592 23.51113591 -84.6732806 31.63736541 -83.76953125 38.85546875 C-81.43338524 42.21231407 -78.98428588 44.22521497 -75.76953125 46.85546875 C-69.82953125 44.87546875 -63.88953125 42.89546875 -57.76953125 40.85546875 C-57.24359375 38.53515625 -57.24359375 38.53515625 -56.70703125 36.16796875 C-56.50980469 35.29785156 -56.31257813 34.42773438 -56.109375 33.53125 C-55.72117121 30.47470291 -55.69865688 28.7589273 -56.76953125 25.85546875 C-58.72823907 23.7458721 -60.60609194 21.90980751 -62.76953125 20.04296875 C-63.32898438 19.54087891 -63.8884375 19.03878906 -64.46484375 18.52148438 C-69.28668962 14.24122264 -70.17766179 14.16272477 -75.76953125 17.85546875 Z M-10.68359375 31.16796875 C-11.44414062 31.43867188 -12.2046875 31.709375 -12.98828125 31.98828125 C-14.179375 32.41753906 -14.179375 32.41753906 -15.39453125 32.85546875 C-16.59722656 33.28472656 -16.59722656 33.28472656 -17.82421875 33.72265625 C-19.80699317 34.43078997 -21.78839373 35.14276832 -23.76953125 35.85546875 C-25.18337567 39.9290205 -26.02878096 43.52955685 -25.76953125 47.85546875 C-22.16297066 53.34243567 -16.74908312 58.08193447 -10.76953125 60.85546875 C-8.12596647 60.69188413 -8.12596647 60.69188413 -5.58203125 59.73046875 C-4.72222656 59.45976562 -3.86242187 59.1890625 -2.9765625 58.91015625 C-0.45347591 57.93557761 -0.45347591 57.93557761 1.23046875 54.85546875 C1.86001062 52.72833829 2.41521557 50.57858121 2.91796875 48.41796875 C3.18996094 47.28488281 3.46195313 46.15179688 3.7421875 44.984375 C4.32352132 41.28537605 4.32352132 41.28537605 3.23046875 37.85546875 C1.46345104 35.65166776 1.46345104 35.65166776 -0.70703125 33.60546875 C-1.41730469 32.8990625 -2.12757813 32.19265625 -2.859375 31.46484375 C-5.7576284 29.02296154 -7.34984357 29.97378958 -10.68359375 31.16796875 Z M8.23046875 40.85546875 C6.9938184 43.63080493 6.47596724 46.50447681 5.91796875 49.48046875 C5.74974609 50.28226562 5.58152344 51.0840625 5.40820312 51.91015625 C4.99615833 53.88797128 4.61073269 55.87129825 4.23046875 57.85546875 C6.21046875 59.50546875 8.19046875 61.15546875 10.23046875 62.85546875 C12.58386768 61.96414129 12.58386768 61.96414129 13.34765625 58.8203125 C14.43287881 54.66524804 14.45703672 50.6877299 14.35546875 46.41796875 C14.34644531 45.68642578 14.33742188 44.95488281 14.328125 44.20117188 C14.30483028 42.41912577 14.26897065 40.63725116 14.23046875 38.85546875 C11.68499327 38.85546875 10.41917551 39.55085383 8.23046875 40.85546875 Z M-66.20703125 47.35546875 C-66.99658203 47.57460938 -67.78613281 47.79375 -68.59960938 48.01953125 C-72.93861498 49.35234512 -72.93861498 49.35234512 -75.75048828 52.68359375 C-76.30453597 54.76115055 -76.58886057 56.71535937 -76.76953125 58.85546875 C-77.0015625 60.12970703 -77.0015625 60.12970703 -77.23828125 61.4296875 C-76.48001534 65.35371358 -73.90274987 67.7662524 -71.26953125 70.66796875 C-70.74488281 71.26544922 -70.22023438 71.86292969 -69.6796875 72.47851562 C-68.38724387 73.94720157 -67.07981197 75.40267373 -65.76953125 76.85546875 C-63.8316704 76.37776352 -61.89425451 75.89825304 -59.95703125 75.41796875 C-58.87808594 75.15113281 -57.79914063 74.88429688 -56.6875 74.609375 C-54.69544695 74.09469463 -52.72141601 73.506097 -50.76953125 72.85546875 C-48.4431571 67.21595505 -46.42272024 61.02626629 -46.76953125 54.85546875 C-49.3071083 50.37889634 -52.4592613 47.61792839 -56.76953125 44.85546875 C-59.87255123 44.85546875 -63.24171126 46.42082687 -66.20703125 47.35546875 Z M-42.76953125 55.85546875 C-45.45967475 61.40761448 -46.04637838 67.79594639 -46.76953125 73.85546875 C-46.21523438 74.32597656 -45.6609375 74.79648437 -45.08984375 75.28125 C-44.36539063 75.90386719 -43.6409375 76.52648437 -42.89453125 77.16796875 C-42.17523438 77.78285156 -41.4559375 78.39773438 -40.71484375 79.03125 C-38.76953125 80.85546875 -38.76953125 80.85546875 -36.76953125 83.85546875 C-34.05860124 83.16425513 -31.36207768 82.44441059 -28.671875 81.67578125 C-26.99071848 81.20062261 -25.29771929 80.7592495 -23.5859375 80.41015625 C-21.44234724 79.93697017 -21.44234724 79.93697017 -18.76953125 77.85546875 C-16.91233985 73.3672562 -15.62895718 68.69398356 -15.87109375 63.8046875 C-17.29903575 60.70667419 -19.6253237 58.86680466 -22.14453125 56.60546875 C-22.63953125 56.1465625 -23.13453125 55.68765625 -23.64453125 55.21484375 C-29.36814094 50.07277729 -36.71295371 51.39448612 -42.76953125 55.85546875 Z M-27.89453125 84.91796875 C-29.75464844 85.49224609 -29.75464844 85.49224609 -31.65234375 86.078125 C-35.12523383 87.62413388 -35.12523383 87.62413388 -36.19921875 91.5390625 C-36.38742187 92.63347656 -36.575625 93.72789062 -36.76953125 94.85546875 C-28.95248343 95.38543809 -19.04289687 94.57028243 -12.88671875 89.21875 C-12.51804687 88.76886719 -12.149375 88.31898438 -11.76953125 87.85546875 C-14.01911459 85.27213646 -14.01911459 85.27213646 -16.76953125 82.85546875 C-20.98501824 82.85546875 -23.89862252 83.6207583 -27.89453125 84.91796875 Z " fill="#000000" transform="translate(452.76953125,410.14453125)"/>
<path d="M0 0 C6.03656159 5.14127126 11.21980774 10.98811397 15 18 C15 18.66 15 19.32 15 20 C-22.29 20 -59.58 20 -98 20 C-91.85417097 4.63542743 -78.54352663 -5.00249762 -63.796875 -11.38671875 C-41.51890393 -19.05486096 -18.2919973 -13.97590805 0 0 Z " fill="#000000" transform="translate(298,14)"/>
<path d="M0 0 C9.4213836 6.67084543 15.36676264 16.767761 18.0390625 27.90234375 C20.2300226 41.44082359 16.77003832 53.17021576 9.18359375 64.328125 C2.52702491 72.96056297 -7.78224131 78.1899727 -18.38671875 79.92578125 C-31.88064672 81.47141779 -43.90049975 77.90037082 -54.78125 69.796875 C-63.55864362 61.60205175 -68.44482456 50.5533461 -68.94946289 38.66503906 C-69.17825202 25.04008651 -64.92321828 14.46239462 -55.703125 4.4609375 C-40.64381423 -9.85775143 -17.24810784 -10.42293633 0 0 Z M-52.859375 16.3984375 C-58.0151008 23.73974272 -60.39842677 31.4407965 -59.546875 40.4609375 C-57.65159652 50.41918037 -52.65463197 58.55381535 -44.796875 64.953125 C-36.76882187 70.3330356 -28.03815686 71.61783504 -18.546875 70.4609375 C-8.03120367 67.81716702 -1.03411069 61.79125161 5.0078125 53.0234375 C9.53968286 44.98855383 9.86159603 35.4389367 7.765625 26.54296875 C3.87232238 16.07971795 -2.68314111 9.17553551 -12.73828125 4.42578125 C-27.56521975 -1.2768874 -43.22225622 4.18669631 -52.859375 16.3984375 Z " fill="#000000" transform="translate(281.546875,103.5390625)"/>
<path d="M0 0 C1.38125018 2.76250036 1.19079306 4.94731099 1 8 C-1 10 -1 10 -4.5 10.25 C-8 10 -8 10 -10 8 C-10.32954432 4.90228335 -10.45334601 2.82668977 -8.9375 0.0625 C-5.81857551 -1.64787795 -3.34442199 -0.80513863 0 0 Z " fill="#000000" transform="translate(344,130)"/>
<path d="M0 0 C1.875 1.0625 1.875 1.0625 3 3 C2.55555556 9.44444444 2.55555556 9.44444444 1 11 C-2.4375 11.1875 -2.4375 11.1875 -6 11 C-8 9 -8 9 -8.3125 5.5 C-8.209375 4.345 -8.10625 3.19 -8 2 C-4.76746204 -0.15502531 -3.74849077 -0.46856135 0 0 Z " fill="#000000" transform="translate(176,129)"/>
</svg>
