<?xml version="1.0" encoding="UTF-8"?>
<svg version="1.1" xmlns="http://www.w3.org/2000/svg" width="256" height="256">
<path d="M0 0 C14.38688941 10.00169639 26.00381204 23.84159531 29.8359375 41.38671875 C30.34475428 45.54663971 30.51506028 49.7512567 30.60864258 53.94067383 C30.78449241 58.6439407 31.99121304 61.6213445 34.125 65.75 C35.16576101 72.18012809 35.06428757 78.15220112 31.625 83.8125 C28.51662735 87.83858267 24.95648276 90.19391434 20.125 91.75 C19.465 91.75 18.805 91.75 18.125 91.75 C17.97804687 92.48863281 17.83109375 93.22726563 17.6796875 93.98828125 C14.41369031 108.76034899 7.00835589 120.48178833 -5.75 128.875 C-10.40034562 131.75 -10.40034562 131.75 -13.875 131.75 C-13.38 136.205 -13.38 136.205 -12.875 140.75 C-12.11292236 139.93834381 -11.35084473 139.12668762 -10.56567383 138.29043579 C-6.09676105 134.60076014 -1.39181872 135.04858165 4.17578125 135.10302734 C5.83049942 135.08988495 5.83049942 135.08988495 7.51864624 135.07647705 C11.15866635 135.05450255 14.79746791 135.06903036 18.4375 135.0859375 C20.97046135 135.08256885 23.50342113 135.07771582 26.03637695 135.07144165 C31.34245704 135.06407287 36.64810195 135.07429824 41.95410156 135.09814453 C48.07896896 135.125354 54.20300406 135.11653887 60.3278513 135.0890125 C66.2321773 135.0635445 72.13624584 135.06629596 78.0406189 135.08092117 C80.54763913 135.08425533 83.05468062 135.08016785 85.56167603 135.06852341 C89.06642832 135.05581692 92.56958522 135.07519222 96.07421875 135.10302734 C97.10920502 135.09290619 98.14419128 135.08278503 99.21054077 135.07235718 C103.79761944 135.13981067 107.09357466 135.21520857 110.75317383 138.16543579 C114.60908159 142.36719447 114.26799373 145.5699914 114.25439453 151.03930664 C114.25702301 152.32480659 114.25702301 152.32480659 114.25970459 153.63627625 C114.26411681 156.47758999 114.26118757 159.31884184 114.2578125 162.16015625 C114.25848566 164.12788403 114.25945578 166.09561174 114.26071167 168.06333923 C114.26218774 172.19010204 114.26003676 176.31684322 114.25537109 180.44360352 C114.24967013 185.74580891 114.25295572 191.04796373 114.25894356 196.35016727 C114.26254843 200.4137765 114.26141099 204.47737363 114.25881577 208.5409832 C114.25814648 210.49670861 114.25897496 212.45243511 114.26129532 214.40815926 C114.26382104 217.13549861 114.25998257 219.86275477 114.25439453 222.59008789 C114.25641876 223.40621552 114.25844299 224.22234314 114.26052856 225.0632019 C114.23926326 230.63573674 114.23926326 230.63573674 113.125 231.75 C110.21948235 231.85017963 107.3376589 231.88438581 104.43164062 231.87698364 C103.50860893 231.87854363 102.58557724 231.88010362 101.63457489 231.88171089 C98.51678407 231.8857251 95.39904125 231.88252962 92.28125 231.87939453 C90.05615205 231.88074839 87.83105433 231.88252823 85.60595703 231.88470459 C79.5441534 231.88928081 73.48236669 231.88748859 67.42056274 231.8843255 C61.09222364 231.88180287 54.76388603 231.88413917 48.43554688 231.88571167 C37.1241163 231.88765053 25.81269437 231.88453273 14.50126553 231.87945233 C4.23521485 231.87498429 -6.03082453 231.87576022 -16.296875 231.88037109 C-28.20462974 231.88571678 -40.11237761 231.88771774 -52.02013397 231.88475883 C-58.32861096 231.88319561 -64.63708015 231.88300352 -70.94555664 231.88629532 C-76.87486551 231.88917286 -82.80415293 231.8872005 -88.73345947 231.88140106 C-90.91644251 231.88007283 -93.09942733 231.88046863 -95.28240967 231.88266373 C-98.24884481 231.88537278 -101.21521001 231.88199713 -104.18164062 231.87698364 C-105.49527966 231.88032973 -105.49527966 231.88032973 -106.83545685 231.88374341 C-112.76085018 231.86414982 -112.76085018 231.86414982 -113.875 230.75 C-113.99542234 228.72692612 -114.04525108 226.69962421 -114.06787109 224.6730957 C-114.08393402 223.37116776 -114.09999695 222.06923981 -114.11654663 220.7278595 C-114.12803547 219.29384004 -114.13864378 217.85981329 -114.1484375 216.42578125 C-114.15376118 215.70603811 -114.15908485 214.98629498 -114.16456985 214.24474144 C-114.19132775 210.43180785 -114.21069009 206.61890723 -114.22509766 202.8059082 C-114.24171081 198.87254171 -114.2864513 194.94001883 -114.3374691 191.00697041 C-114.37118953 187.9794167 -114.38268049 184.95206147 -114.38832474 181.92433739 C-114.39502907 180.47507503 -114.41023017 179.02582536 -114.43421555 177.57674599 C-114.63336911 164.81165796 -114.63336911 164.81165796 -111.63500977 160.92797852 C-109.05102787 158.88890709 -107.33820266 157.75599536 -104.19140625 156.9140625 C-102.82048828 156.53036499 -102.82048828 156.53036499 -101.421875 156.13891602 C-100.43703125 155.88682373 -99.4521875 155.63473145 -98.4375 155.375 C-96.89642578 154.95335571 -96.89642578 154.95335571 -95.32421875 154.52319336 C-91.84649508 153.57760979 -88.36108649 152.66423988 -84.875 151.75 C-82.12260394 151.01316388 -79.37190978 150.2700535 -76.62109375 149.52734375 C-69.37892627 147.57638861 -62.12873771 145.65757447 -54.875 143.75 C-54.545 139.79 -54.215 135.83 -53.875 131.75 C-54.679375 131.54375 -55.48375 131.3375 -56.3125 131.125 C-65.11834847 127.72625147 -70.98238482 121.97527747 -76.875 114.75 C-76.91367188 116.09191406 -76.91367188 116.09191406 -76.953125 117.4609375 C-77.59185266 131.07744989 -80.76741748 139.37509232 -90.875 148.75 C-98.53674289 154.68750311 -105.65667206 156.06731056 -115.1875 155.9375 C-116.10595703 155.93685547 -117.02441406 155.93621094 -117.97070312 155.93554688 C-124.73444475 155.89055525 -124.73444475 155.89055525 -125.875 154.75 C-126.01376358 151.61891938 -126.08828852 148.51161759 -126.11328125 145.37890625 C-126.121353 144.42741196 -126.12942474 143.47591766 -126.13774109 142.49559021 C-126.15160822 140.47209507 -126.16231854 138.44857627 -126.17016602 136.42504883 C-126.18725515 133.35646619 -126.23110191 130.2889959 -126.27539062 127.22070312 C-126.28552824 125.25261208 -126.29404099 123.28451186 -126.30078125 121.31640625 C-126.31828934 120.40870987 -126.33579742 119.50101349 -126.35383606 118.56581116 C-126.3186139 108.00807362 -122.46472798 100.4917972 -115.24609375 92.953125 C-110.30552047 88.36254291 -105.75440476 85.26595536 -98.875 84.75 C-99.6175 83.4196875 -99.6175 83.4196875 -100.375 82.0625 C-102.71164378 76.62145805 -102.62353874 70.54750596 -101.875 64.75 C-101.38128906 63.94820313 -100.88757813 63.14640625 -100.37890625 62.3203125 C-98.36520437 58.87871292 -98.50385823 56.21588014 -98.4375 52.25 C-97.74679639 34.10446729 -89.67529512 18.83869451 -76.5625 6.5 C-55.52443119 -11.39859714 -23.67221246 -14.12431035 0 0 Z M-60.9375 45.875 C-62.21848354 46.83802746 -63.50105421 47.7989472 -64.78515625 48.7578125 C-65.43718018 49.25772705 -66.0892041 49.7576416 -66.76098633 50.27270508 C-68.875 51.75 -68.875 51.75 -71.35424805 53.0144043 C-73.95329245 54.39869746 -75.8682742 55.58716789 -77.875 57.75 C-79.03946729 61.97678313 -78.82286988 65.9637691 -78.5625 70.3125 C-78.5227002 71.48184082 -78.48290039 72.65118164 -78.44189453 73.85595703 C-78.30865829 77.16012365 -78.10820122 80.4515635 -77.875 83.75 C-77.82907715 84.50490723 -77.7831543 85.25981445 -77.73583984 86.03759766 C-76.92667815 97.75680461 -71.70818539 108.9132925 -62.875 116.75 C-50.87859853 125.77915801 -39.69109932 128.43874507 -24.875 126.75 C-12.6496887 123.96448603 -3.13759164 116.83775885 3.65625 106.390625 C10.02037024 94.94874924 10.28345497 83.47903611 10.1875 70.6875 C10.18298828 69.53572266 10.17847656 68.38394531 10.17382812 67.19726562 C10.16214426 64.38145482 10.14576281 61.56575602 10.125 58.75 C2.07665908 56.39994784 -5.97251101 54.05276651 -14.02276421 51.70927429 C-17.76054612 50.62107803 -21.49803148 49.5318846 -25.23486328 48.44042969 C-28.83921811 47.38770816 -32.44432 46.33758331 -36.04996109 45.28927612 C-37.4273805 44.88830499 -38.80452531 44.4863893 -40.18139267 44.08352661 C-42.10571945 43.52065356 -44.0311066 42.96140944 -45.95654297 42.40234375 C-47.05352509 42.08257568 -48.1505072 41.76280762 -49.2807312 41.43334961 C-54.55306916 40.04457676 -56.86472337 42.79548623 -60.9375 45.875 Z M-89.9375 63.625 C-92.89748159 66.87143143 -93.26658208 69.22825475 -93.234375 73.640625 C-92.59669404 77.38353499 -90.58204137 79.17186536 -87.875 81.75 C-87.215 81.75 -86.555 81.75 -85.875 81.75 C-85.875 75.15 -85.875 68.55 -85.875 61.75 C-88.09291796 61.52577574 -88.09291796 61.52577574 -89.9375 63.625 Z M18.125 61.75 C18.125 68.35 18.125 74.95 18.125 81.75 C22.58344637 79.60272998 22.58344637 79.60272998 25.125 75.75 C25.81823821 70.59995426 25.81823821 70.59995426 24.0703125 65.8984375 C22.62720493 64.02120257 22.62720493 64.02120257 20.125 61.75 C19.465 61.75 18.805 61.75 18.125 61.75 Z M-45.875 134.75 C-46.205 140.03 -46.535 145.31 -46.875 150.75 C-54.3 153.225 -54.3 153.225 -61.875 155.75 C-61.875 161.03 -61.875 166.31 -61.875 171.75 C-46.035 171.75 -30.195 171.75 -13.875 171.75 C-13.875 165.81 -13.875 159.87 -13.875 153.75 C-16.185 152.76 -18.495 151.77 -20.875 150.75 C-21.205 145.47 -21.535 140.19 -21.875 134.75 C-29.795 134.75 -37.715 134.75 -45.875 134.75 Z M-4.4677124 145.31793213 C-6.37016737 148.60574594 -6.40529611 151.48750419 -6.32910156 155.18066406 C-6.3295837 155.93447231 -6.33006584 156.68828056 -6.33056259 157.46493149 C-6.32758285 159.89898052 -6.2971527 162.33179593 -6.265625 164.765625 C-6.25974198 166.27066458 -6.25566242 167.77571232 -6.25341797 169.28076172 C-6.2324682 174.85396616 -6.17662305 180.42699527 -6.125 186 C-6.0425 198.4575 -5.96 210.915 -5.875 223.75 C31.085 223.75 68.045 223.75 106.125 223.75 C106.2075 211.2925 106.29 198.835 106.375 186 C106.41141602 182.06868164 106.44783203 178.13736328 106.48535156 174.08691406 C106.49873052 170.55832609 106.49873052 170.55832609 106.5067749 167.02972412 C106.51291134 165.45985377 106.52696778 163.89000211 106.54730225 162.32025146 C106.57658988 159.94005664 106.58062405 157.56101212 106.57910156 155.18066406 C106.60069021 154.1342594 106.60069021 154.1342594 106.622715 153.06671524 C106.59658154 150.01394866 106.25388466 147.97273786 104.7177124 145.31793213 C100.67509595 142.87317651 96.82667291 143.1929571 92.1875 143.23242188 C90.67470459 143.22190796 90.67470459 143.22190796 89.13134766 143.21118164 C85.79561886 143.19356782 82.46073752 143.2052369 79.125 143.21875 C76.80859209 143.21605607 74.49218528 143.21217449 72.17578125 143.20715332 C67.32020302 143.20125366 62.46491904 143.20983662 57.609375 143.22851562 C51.38135354 143.25130504 45.15402155 143.23818452 38.92602539 143.21422577 C34.14252515 143.19978068 29.35918873 143.20436795 24.57568359 143.21473694 C22.27913329 143.21740777 19.98256817 143.214122 17.68603516 143.20481873 C14.4777886 143.19467473 11.27066294 143.21012517 8.0625 143.23242188 C6.63478271 143.22027649 6.63478271 143.22027649 5.17822266 143.20788574 C1.33191596 143.25747894 -1.13643887 143.30335821 -4.4677124 145.31793213 Z M-84.6784668 161.05810547 C-86.79911508 161.62144437 -88.92190723 162.17612467 -91.04492188 162.73046875 C-92.39337014 163.08801041 -93.74168214 163.44606649 -95.08984375 163.8046875 C-96.93243774 164.29171143 -96.93243774 164.29171143 -98.81225586 164.78857422 C-102.00317971 165.63320343 -102.00317971 165.63320343 -104.875 167.75 C-105.88451397 170.7785419 -105.996045 172.79005342 -105.98852539 175.95581055 C-105.98844986 177.01668381 -105.98837433 178.07755707 -105.98829651 179.170578 C-105.98313522 180.31440445 -105.97797394 181.4582309 -105.97265625 182.63671875 C-105.9712413 183.80886429 -105.96982635 184.98100983 -105.96836853 186.18867493 C-105.96276388 189.93830907 -105.95021056 193.68788385 -105.9375 197.4375 C-105.9324856 199.97721268 -105.92792259 202.5169263 -105.92382812 205.05664062 C-105.91279294 211.28778335 -105.89552515 217.5188816 -105.875 223.75 C-98.945 223.75 -92.015 223.75 -84.875 223.75 C-86.195 220.78 -87.515 217.81 -88.875 214.75 C-89.87939965 207.82998182 -89.93203771 200.54236529 -86.19921875 194.42578125 C-81.39275234 188.34326181 -77.38657268 186.56683976 -69.875 183.75 C-69.875 175.17 -69.875 166.59 -69.875 157.75 C-74.82841005 157.75 -79.89281627 159.78348236 -84.6784668 161.05810547 Z M-53.875 215.75 C-53.545 217.73 -53.215 219.71 -52.875 221.75 C-49.08657527 224.27561648 -46.08966671 224.00391573 -41.70703125 223.9453125 C-40.91221848 223.9424826 -40.1174057 223.93965271 -39.29850769 223.93673706 C-36.76135162 223.92554705 -34.22454928 223.90044491 -31.6875 223.875 C-29.96680198 223.86496866 -28.24609841 223.85584308 -26.52539062 223.84765625 C-22.30845757 223.82561161 -18.09178875 223.79109006 -13.875 223.75 C-13.875 221.11 -13.875 218.47 -13.875 215.75 C-27.075 215.75 -40.275 215.75 -53.875 215.75 Z " fill="#474747" transform="translate(133.875,16.25)"/>
<path d="M0 0 C2.97 0 5.94 0 9 0 C9.33 0.66 9.66 1.32 10 2 C11.32 2 12.64 2 14 2 C14.33 1.34 14.66 0.68 15 0 C17.97 0 20.94 0 24 0 C23.8281043 4.38334042 23.39850089 6.51975534 20.5625 9.9375 C17.04285467 12.490303 13.6714291 12.71827734 9.41015625 12.48046875 C5.26523905 11.65417245 3.71339926 10.26999398 1 7 C0.125 3.1875 0.125 3.1875 0 0 Z " fill="#484848" transform="translate(88,120)"/>
<path d="M0 0 C2.92384863 1.33543992 3.84866453 2.40736495 6 5 C6.875 8.8125 6.875 8.8125 7 12 C4.03 12 1.06 12 -2 12 C-2.33 11.34 -2.66 10.68 -3 10 C-4.32 10 -5.64 10 -7 10 C-7.33 10.66 -7.66 11.32 -8 12 C-10.97 12 -13.94 12 -17 12 C-16.8281043 7.61665958 -16.39850089 5.48024466 -13.5625 2.0625 C-9.40689777 -0.95156331 -4.90792696 -0.97840359 0 0 Z " fill="#484848" transform="translate(129,84)"/>
<path d="M0 0 C2.92384863 1.33543992 3.84866453 2.40736495 6 5 C6.875 8.8125 6.875 8.8125 7 12 C4.03 12 1.06 12 -2 12 C-2.33 11.34 -2.66 10.68 -3 10 C-4.32 10 -5.64 10 -7 10 C-7.33 10.66 -7.66 11.32 -8 12 C-10.97 12 -13.94 12 -17 12 C-16.8281043 7.61665958 -16.39850089 5.48024466 -13.5625 2.0625 C-9.40689777 -0.95156331 -4.90792696 -0.97840359 0 0 Z " fill="#474747" transform="translate(81,84)"/>
<path d="M0 0 C2.5 1.5 2.5 1.5 4 4 C4.791013 8.02098277 4.62153384 10.96411027 2.5 14.5 C-1.03588973 16.62153384 -3.97901723 16.791013 -8 16 C-10.5 14.5 -10.5 14.5 -12 12 C-12.791013 7.97901723 -12.62153384 5.03588973 -10.5 1.5 C-6.96411027 -0.62153384 -4.02098277 -0.791013 0 0 Z " fill="#484848" transform="translate(188,192)"/>
<path d="M0 0 C2.64 0 5.28 0 8 0 C8 2.64 8 5.28 8 8 C5.36 8 2.72 8 0 8 C0 5.36 0 2.72 0 0 Z " fill="#484848" transform="translate(220,224)"/>
<path d="M0 0 C2.64 0 5.28 0 8 0 C8 2.64 8 5.28 8 8 C5.36 8 2.72 8 0 8 C0 5.36 0 2.72 0 0 Z " fill="#484848" transform="translate(204,224)"/>
<path d="M0 0 C2.64 0 5.28 0 8 0 C8 2.64 8 5.28 8 8 C5.36 8 2.72 8 0 8 C0 5.36 0 2.72 0 0 Z " fill="#484848" transform="translate(188,224)"/>
<path d="M0 0 C2.64 0 5.28 0 8 0 C8 2.64 8 5.28 8 8 C5.36 8 2.72 8 0 8 C0 5.36 0 2.72 0 0 Z " fill="#484848" transform="translate(172,224)"/>
<path d="M0 0 C2.64 0 5.28 0 8 0 C8 2.64 8 5.28 8 8 C5.36 8 2.72 8 0 8 C0 5.36 0 2.72 0 0 Z " fill="#484848" transform="translate(156,224)"/>
<path d="M0 0 C2.64 0 5.28 0 8 0 C8 2.64 8 5.28 8 8 C5.36 8 2.72 8 0 8 C0 5.36 0 2.72 0 0 Z " fill="#484848" transform="translate(140,224)"/>
</svg>
