<?xml version="1.0" encoding="UTF-8"?>
<svg version="1.1" xmlns="http://www.w3.org/2000/svg" width="256" height="256">
<path d="M0 0 C2.43509376 3.1134413 4.22765614 6.47666583 6 10 C6.391875 10.71414062 6.78375 11.42828125 7.1875 12.1640625 C8.33450966 14.75586317 7.83807595 16.34609284 7 19 C6.34 19.66 5.68 20.32 5 21 C5.3185177 23.10820797 5.3185177 23.10820797 6 25 C7.3921875 24.6596875 7.3921875 24.6596875 8.8125 24.3125 C12 24 12 24 13.52954102 25.16870117 C15.26523361 27.33031999 16.459437 29.51479246 17.71484375 31.98828125 C18.48779785 33.49648437 18.48779785 33.49648437 19.27636719 35.03515625 C20.09862793 36.65744141 20.09862793 36.65744141 20.9375 38.3125 C25.27421104 46.76627999 29.67472902 55.1727544 34.25 63.5 C37.94296256 70.23608528 41.62963402 76.97453596 45.25 83.75 C45.63317383 84.45962891 46.01634766 85.16925781 46.41113281 85.90039062 C49 90.76755799 49 90.76755799 49 93 C49.886875 92.505 50.77375 92.01 51.6875 91.5 C54.94518385 90.02482241 56.53428611 89.85830131 60 90 C61.37257477 92.21954651 62.72259151 94.44835409 64.0625 96.6875 C64.45244141 97.31333984 64.84238281 97.93917969 65.24414062 98.58398438 C66.83397185 101.27122123 67.95495514 103.51594651 68.24609375 106.64453125 C66.19550693 110.52071887 62.78749912 111.9814326 59 114 C58.08976074 114.48936035 57.17952148 114.9787207 56.24169922 115.48291016 C53.15225478 117.1169418 50.04789916 118.71873786 46.9375 120.3125 C38.01380688 124.87665495 38.01380688 124.87665495 29.20703125 129.66015625 C28.52455322 130.04067139 27.8420752 130.42118652 27.13891602 130.81323242 C25.38356426 131.79992297 23.63671621 132.80170022 21.890625 133.8046875 C19 135 19 135 16.34765625 135.0859375 C12.84040917 133.46361689 11.93229138 131.14074926 10.1875 127.75 C9.28064453 126.04070312 9.28064453 126.04070312 8.35546875 124.296875 C7.05678014 121.13810502 6.38032704 119.34160093 7 116 C8.53125 114.41796875 8.53125 114.41796875 10.5 113.1875 C11.1496875 112.76855469 11.799375 112.34960938 12.46875 111.91796875 C13.22671875 111.46357422 13.22671875 111.46357422 14 111 C13.34 109.35 12.68 107.7 12 106 C-2.85334908 108.38859206 -2.85334908 108.38859206 -15.4375 116.25 C-19.35361872 123.14236895 -21.29816975 130.16378384 -19.54296875 138.0546875 C-19.07873183 139.71792481 -18.5460654 141.36180379 -18 143 C-17.40316406 142.71125 -16.80632812 142.4225 -16.19140625 142.125 C-6.07521636 137.79593211 5.49199349 137.11249221 16 140.625 C21.86594509 143.13257958 27.47431628 146.47431628 32 151 C33.96237118 151.30226634 33.96237118 151.30226634 36.23095703 151.25537109 C37.10591827 151.26233002 37.98087952 151.26928894 38.88235474 151.27645874 C39.8312558 151.27546173 40.78015686 151.27446472 41.7578125 151.2734375 C43.76563044 151.29374023 45.77344289 151.31459126 47.78125 151.3359375 C50.94763801 151.35847058 54.11380914 151.37497922 57.28027344 151.38085938 C60.33568662 151.39042847 63.39012052 151.42427582 66.4453125 151.4609375 C67.38206818 151.45589203 68.31882385 151.45084656 69.28396606 151.44564819 C76.43844098 151.55180581 81.69920499 153.21915323 87.20703125 157.859375 C91.86395071 163.34343587 94.72204594 168.17813174 95.25 175.4375 C95 178 95 178 94 179 C92.40389018 179.09333705 90.80366572 179.11745372 89.20483398 179.11352539 C88.18385117 179.11344986 87.16286835 179.11337433 86.11094666 179.11329651 C85.0005452 179.10813522 83.89014374 179.10297394 82.74609375 179.09765625 C81.61551041 179.0962413 80.48492706 179.09482635 79.32008362 179.09336853 C75.69252935 179.08775019 72.06503576 179.07519458 68.4375 179.0625 C65.98502693 179.05748736 63.5325529 179.05292405 61.08007812 179.04882812 C55.05336187 179.0377748 49.02669124 179.02049788 43 179 C43 182.3 43 185.6 43 189 C43.84080612 188.99333817 44.68161224 188.98667633 45.54789734 188.97981262 C53.47831064 188.91965892 61.40864711 188.87400395 69.33923626 188.84456348 C73.41627944 188.8289189 77.49313383 188.80770292 81.57006836 188.77368164 C85.50581018 188.74104476 89.4413706 188.7231379 93.37723732 188.71536827 C94.87752957 188.7098325 96.37781209 188.69902239 97.87802696 188.68280983 C99.98229672 188.66097728 102.08582044 188.6580354 104.19018555 188.65942383 C105.98555 188.64943108 105.98555 188.64943108 107.81718445 188.63923645 C112.55422738 189.17616748 115.06445791 190.98649607 118.25 194.4375 C121.99256661 199.91768683 121.21850514 206.1493585 121.25 212.5625 C121.2809375 214.14321289 121.2809375 214.14321289 121.3125 215.75585938 C121.32023437 217.27083008 121.32023437 217.27083008 121.328125 218.81640625 C121.3374707 219.73881104 121.34681641 220.66121582 121.35644531 221.61157227 C121 224 121 224 119.90237427 225.6254673 C117.04458885 227.69031835 114.70332094 227.37777827 111.20556641 227.38095093 C110.51091593 227.3856309 109.81626545 227.39031087 109.10056496 227.39513266 C106.76737129 227.40712148 104.43476078 227.39761066 102.1015625 227.38818359 C100.4311285 227.39224758 98.76069719 227.39758849 97.090271 227.40411377 C92.54900294 227.41781376 88.00793889 227.41247769 83.46666718 227.40297651 C78.71947164 227.39539379 73.97229386 227.40242166 69.22509766 227.40713501 C61.25224666 227.41259661 53.27947898 227.40539034 45.30664062 227.39111328 C36.0822132 227.37478599 26.85798469 227.38007421 17.63356209 227.3965925 C9.72097633 227.41019584 1.80845053 227.41213267 -6.10414314 227.40427649 C-10.83319485 227.39959363 -15.56215299 227.39899192 -20.29119873 227.40888596 C-24.73666468 227.41753662 -29.18187359 227.41156865 -33.62731171 227.39420319 C-35.26118289 227.39022815 -36.89507561 227.39138971 -38.52893829 227.39799118 C-40.75477545 227.40615695 -42.97978253 227.39594639 -45.20556641 227.38095093 C-46.45254303 227.37981985 -47.69951965 227.37868877 -48.98428345 227.37752342 C-52 227 -52 227 -53.90039062 225.62249184 C-55.44568922 223.34237817 -55.3881752 221.66142117 -55.3984375 218.921875 C-55.40230469 217.92542969 -55.40617187 216.92898437 -55.41015625 215.90234375 C-55.39855469 214.86207031 -55.38695312 213.82179687 -55.375 212.75 C-55.38660156 211.72519531 -55.39820313 210.70039063 -55.41015625 209.64453125 C-55.3824347 202.46464957 -54.47913445 197.62335035 -50.375 191.625 C-46.83184411 189.20073544 -43.21236424 189.18001557 -39 189 C-39.12447813 178.91727165 -39.64197162 170.39674722 -43.7265625 161.0234375 C-46.92219228 153.43626741 -48.53165717 145.20309559 -49 137 C-49.05285156 136.17242187 -49.10570312 135.34484375 -49.16015625 134.4921875 C-49.6312525 120.44122986 -45.94530787 107.58349059 -36.875 96.8125 C-27.55813096 87.01981063 -15.95084383 82.15771891 -3 79 C-3.43868408 78.18321777 -3.87736816 77.36643555 -4.3293457 76.52490234 C-5.96821174 73.47253331 -7.60630789 70.41975366 -9.24389648 67.36669922 C-9.95062307 66.04947842 -10.65764942 64.73241841 -11.36499023 63.41552734 C-12.38605783 61.51442757 -13.40601903 59.61273773 -14.42578125 57.7109375 C-15.34484253 55.99849854 -15.34484253 55.99849854 -16.2824707 54.25146484 C-16.84925537 53.17848145 -17.41604004 52.10549805 -18 51 C-18.56485107 49.93088379 -19.12970215 48.86176758 -19.71166992 47.76025391 C-21.05188696 44.88883193 -21.27556256 43.12304234 -21 40 C-20.01 39.67 -19.02 39.34 -18 39 C-19.1375562 36.40858714 -19.1375562 36.40858714 -21 34 C-21.79664063 34.03609375 -22.59328125 34.0721875 -23.4140625 34.109375 C-26 34 -26 34 -27.73046875 32.171875 C-28.45169922 30.97304688 -28.45169922 30.97304688 -29.1875 29.75 C-29.67605469 28.96109375 -30.16460937 28.1721875 -30.66796875 27.359375 C-31.32732422 26.19148438 -31.32732422 26.19148438 -32 25 C-32.38800781 24.36578125 -32.77601562 23.7315625 -33.17578125 23.078125 C-34.26339003 20.33590761 -34.05251417 17.92586067 -34 15 C-30.45929322 13.06074205 -26.91726567 11.12390879 -23.375 9.1875 C-22.37597656 8.64029297 -21.37695312 8.09308594 -20.34765625 7.52929688 C-4.39040604 -1.1890683 -4.39040604 -1.1890683 0 0 Z M-10.3515625 11.1875 C-11.20234375 11.63867188 -12.053125 12.08984375 -12.9296875 12.5546875 C-13.81914063 13.03164063 -14.70859375 13.50859375 -15.625 14 C-16.5221875 14.47695313 -17.419375 14.95390625 -18.34375 15.4453125 C-20.5644813 16.62655255 -22.78310197 17.81158589 -25 19 C-24.34 20.65 -23.68 22.3 -23 24 C-17.89545207 23.4462522 -14.03424443 20.97407204 -9.6875 18.4375 C-8.94693359 18.01275391 -8.20636719 17.58800781 -7.44335938 17.15039062 C-5.62531882 16.10648347 -3.81216252 15.05407808 -2 14 C-2.66 12.35 -3.32 10.7 -4 9 C-6.62874429 9 -8.03230115 9.95056062 -10.3515625 11.1875 Z M-4 24 C-6.25324159 24.99417008 -6.25324159 24.99417008 -8.625 26.4375 C-9.44226563 26.91058594 -10.25953125 27.38367188 -11.1015625 27.87109375 C-12.04128906 28.42990234 -12.04128906 28.42990234 -13 29 C-12.34 30.65 -11.68 32.3 -11 34 C-7.51329166 32.8905928 -4.22515763 31.73662334 -1 30 C-1.34444881 27.52733235 -1.34444881 27.52733235 -2 25 C-2.66 24.67 -3.32 24.34 -4 24 Z M2.6484375 36.1875 C1.79765625 36.63867188 0.946875 37.08984375 0.0703125 37.5546875 C-0.81914063 38.03164063 -1.70859375 38.50859375 -2.625 39 C-3.5221875 39.47695313 -4.419375 39.95390625 -5.34375 40.4453125 C-7.5644813 41.62655255 -9.78310197 42.81158589 -12 44 C-6.85624741 54.39787862 -1.58172299 64.71632386 3.85449219 74.96435547 C5.00242462 77.12957329 6.14588932 79.29711015 7.2890625 81.46484375 C12.02065975 90.41251282 16.9179741 99.24666043 22 108 C23.10859375 107.44570312 24.2171875 106.89140625 25.359375 106.3203125 C30.90625 103.546875 36.453125 100.7734375 42 98 C40.71312563 93.86672754 39.16222121 90.11905499 37.1640625 86.28125 C36.60001709 85.19440918 36.03597168 84.10756836 35.45483398 82.98779297 C34.85098877 81.83682129 34.24714355 80.68584961 33.625 79.5 C32.99735112 78.29710354 32.36982985 77.0941405 31.74243164 75.89111328 C24.38066287 61.80788286 16.72835506 47.88469957 9 34 C6.37125571 34 4.96769885 34.95056062 2.6484375 36.1875 Z M-29.3125 100.625 C-37.83884342 109.78162754 -41.50081515 121.52568281 -41.2578125 133.83203125 C-40.94414757 137.6863079 -40.37364363 141.44613912 -39.6875 145.25 C-39.56995361 145.91136963 -39.45240723 146.57273926 -39.33129883 147.25415039 C-38.42947928 151.85429447 -36.95419867 155.77411379 -35 160 C-34.1646875 158.9171875 -34.1646875 158.9171875 -33.3125 157.8125 C-31 155 -31 155 -28.125 153 C-25.47668637 149.26120428 -25.94874821 148.21918025 -26.6875 143.8125 C-26.91308594 142.66910156 -27.13867188 141.52570313 -27.37109375 140.34765625 C-29.12935512 130.98846374 -28.40358509 121.5959573 -23.5 113.3125 C-17.41841847 104.96123732 -8.99709634 102.32220537 0.72998047 100.37963867 C2.5075154 100.00847909 4.2582495 99.51351248 6 99 C7.342681 96.09158479 7.342681 96.09158479 6.00390625 93.73828125 C5.52824219 92.93777344 5.05257812 92.13726562 4.5625 91.3125 C4.08941406 90.50425781 3.61632812 89.69601563 3.12890625 88.86328125 C2.75636719 88.24839844 2.38382813 87.63351563 2 87 C-9.06163176 87 -21.27308034 93.28598432 -29.3125 100.625 Z M47.234375 103.359375 C46.22784882 103.87785004 46.22784882 103.87785004 45.20098877 104.40679932 C43.77765975 105.14128351 42.35538486 105.87781348 40.93408203 106.61621094 C38.77535979 107.73683536 36.61260744 108.84935391 34.44921875 109.9609375 C33.06485235 110.67659643 31.68073 111.39272769 30.296875 112.109375 C29.65602966 112.43871033 29.01518433 112.76804565 28.35491943 113.10736084 C24.3769055 115.18168277 20.6843435 117.45561076 17 120 C17.66 121.65 18.32 123.3 19 125 C23.20904827 123.41372057 27.17667643 121.44280651 31.1640625 119.375 C31.83795013 119.02743652 32.51183777 118.67987305 33.20614624 118.32177734 C34.62368127 117.58997676 36.04063313 116.85704554 37.45703125 116.12304688 C39.62341985 115.00081855 41.7920279 113.88297182 43.9609375 112.765625 C45.34128001 112.05234294 46.72149286 111.33880987 48.1015625 110.625 C48.74848053 110.29161621 49.39539856 109.95823242 50.06192017 109.61474609 C52.81422191 108.18582248 55.41602121 106.72265253 58 105 C57.34 103.35 56.68 101.7 56 100 C52.73353936 100 50.07937758 101.88005136 47.234375 103.359375 Z M-15 151 C-15.64582031 151.350625 -16.29164062 151.70125 -16.95703125 152.0625 C-22.09229131 155.28462396 -25.07031668 159.779837 -28 165 C-28.34289062 165.59296875 -28.68578125 166.1859375 -29.0390625 166.796875 C-32.46712774 174.03746139 -31 180.62264817 -31 189 C-9.22 189 12.56 189 35 189 C35 174.70130135 33.90821679 165.70291504 24.40625 155.24609375 C17.96314119 149.18288522 10.7643931 146.78548512 2 146.5 C-4.38985858 146.70120076 -9.40040499 147.94384761 -15 151 Z M38 159 C38.47859241 160.60433809 38.95789558 162.20846416 39.4375 163.8125 C39.70433594 164.70582031 39.97117187 165.59914062 40.24609375 166.51953125 C40.80387873 168.35473055 41.39344575 170.18033726 42 172 C56.52 172 71.04 172 86 172 C82.1097927 163.76179224 82.1097927 163.76179224 75 160 C70.81490507 158.90195073 66.82649527 158.88515341 62.51171875 158.90234375 C61.4569207 158.90446617 61.4569207 158.90446617 60.3808136 158.90663147 C58.14966456 158.91219891 55.91861836 158.92474525 53.6875 158.9375 C52.16862125 158.94251921 50.64974091 158.94708138 49.13085938 158.95117188 C45.42053988 158.96215764 41.71027999 158.97939966 38 159 Z M-44.81986332 198.39796829 C-49.71336246 205.04087747 -47 207.35902997 -47 219 C5.8 219 58.6 219 113 219 C114.26710519 203.78885438 114.26710519 203.78885438 111 198 C108.26013752 196.63006876 106.07727307 196.86774219 103.00917053 196.85955811 C101.73180527 196.85384796 100.45444 196.84813782 99.1383667 196.84225464 C97.71472178 196.84100923 96.29107674 196.83988414 94.86743164 196.83886719 C93.37448503 196.83424008 91.88153961 196.82921557 90.38859558 196.82382202 C86.32665911 196.81068716 82.26473917 196.80425116 78.20278478 196.79981136 C75.66698625 196.79688289 73.13119228 196.79277855 70.59539604 196.78830719 C62.66698161 196.7746305 54.73857753 196.76496422 46.81015211 196.7611053 C37.64738512 196.75662147 28.48476707 196.7390593 19.32204539 196.7101047 C12.24600512 196.68851747 5.17000686 196.67840263 -1.906066 196.67706418 C-6.13548887 196.67601418 -10.36477177 196.67006511 -14.59416008 196.65224457 C-18.57092956 196.63581447 -22.54745307 196.63358352 -26.52424431 196.64238358 C-27.98558204 196.64315663 -29.44693272 196.63877601 -30.90823746 196.62892532 C-32.89951419 196.61628689 -34.8908889 196.62384464 -36.88218689 196.63250732 C-37.99772414 196.63104076 -39.11326139 196.6295742 -40.26260281 196.6280632 C-43.0138578 196.77101094 -43.0138578 196.77101094 -44.81986332 198.39796829 Z " fill="#267D12" transform="translate(95,15)"/>
</svg>
