<?xml version="1.0" encoding="UTF-8"?>
<svg version="1.1" xmlns="http://www.w3.org/2000/svg" width="256" height="256">
<path d="M0 0 C3 0.25 3 0.25 5 2.25 C5.2561264 4.36065769 5.2561264 4.36065769 5.26501465 7.02357483 C5.27328781 8.03143036 5.28156097 9.03928589 5.29008484 10.0776825 C5.28910294 11.1877919 5.28812103 12.29790131 5.28710938 13.44165039 C5.29394241 14.60766785 5.30077545 15.7736853 5.30781555 16.97503662 C5.32500187 20.17998901 5.33350616 23.3848345 5.33885384 26.58982396 C5.34704183 29.94757818 5.36797242 33.30524812 5.38806152 36.66294861 C5.43707989 45.21275964 5.46931627 53.76260654 5.5 62.3125 C5.53310798 71.51890746 5.56922913 80.72524938 5.62413073 89.93155664 C5.65111042 94.56546747 5.66297097 99.19928036 5.67224121 103.83326721 C5.6852207 106.27304387 5.69874204 108.71281773 5.71289062 111.15258789 C5.71190872 112.24852768 5.71092682 113.34446747 5.70991516 114.47361755 C5.78188609 123.41299426 6.33716322 131.42440843 12.171875 138.51953125 C16.54645378 142.66042527 21.66008822 144.43345776 27.625 144.6875 C33.74537914 144.36817587 39.1053486 141.9899934 43.65881348 137.84968567 C49.78950961 130.5373644 49.55525258 121.17105971 49.4858551 112.13187599 C49.46835121 109.77841311 49.47623101 107.42615306 49.4901123 105.07267761 C49.5195243 99.22741973 49.5066597 93.38240287 49.49493408 87.53710938 C49.48665104 82.58889081 49.49499257 77.64120409 49.52406311 72.69305992 C49.531035 70.40266341 49.51463662 68.11326939 49.49694824 65.82295227 C49.50064928 46.5469753 55.23399659 31.08732985 69 17.25 C69.59167969 16.62351562 70.18335937 15.99703125 70.79296875 15.3515625 C74.99553933 11.25104109 79.74964775 8.58750939 84.9375 5.9375 C85.59371338 5.59960449 86.24992676 5.26170898 86.92602539 4.91357422 C101.21734306 -2.05995324 120.06178352 -2.10185415 134.96484375 2.99609375 C146.67919039 7.83561147 161.35549166 16.86654624 166.78637695 29.00805664 C167.70626483 31.00093476 168.55658992 32.59142992 170 34.25 C173.0880875 35.03214931 175.32722296 35.35045625 178.4375 35.4375 C180.0670883 35.55326935 181.69604194 35.67833278 183.32421875 35.8125 C184.12263184 35.87695312 184.92104492 35.94140625 185.74365234 36.0078125 C199.51441986 37.48591263 213.82425498 45.08104247 224 54.25 C224.89460937 55.05179688 225.78921875 55.85359375 226.7109375 56.6796875 C236.65423145 66.07814342 243.68616102 77.21702358 248 90.25 C248.24715759 90.99561188 248.49431519 91.74122375 248.7489624 92.50942993 C251.59695421 102.27618087 251.45503362 111.84741466 251.43359375 121.92578125 C251.43816632 123.82325932 251.44347505 125.72073575 251.44947815 127.61820984 C251.45836862 131.579445 251.45603355 135.54047812 251.44604492 139.50170898 C251.43457311 144.5379381 251.4547604 149.57346414 251.48396206 154.60960102 C251.50245216 158.52453424 251.50200608 162.43930303 251.49632454 166.35426903 C251.49617282 168.20911837 251.50209135 170.06397994 251.51461601 171.918787 C251.59877232 186.42394333 250.13698433 199.58336723 243.1875 212.625 C242.84493164 213.28927002 242.50236328 213.95354004 242.14941406 214.63793945 C239.31620632 219.98251821 235.95979435 224.67738034 232 229.25 C231.40316406 230.04277344 230.80632812 230.83554688 230.19140625 231.65234375 C221.99135931 241.37254199 210.73987258 247.79544315 199 252.25 C197.88882813 252.683125 196.77765625 253.11625 195.6328125 253.5625 C175.54826223 260.1207205 152.41127696 257.61009366 133.625 248.5 C127.11288969 245.15082527 121.40519087 241.21693215 116 236.25 C115.29488281 235.61320313 114.58976562 234.97640625 113.86328125 234.3203125 C99.88934674 221.06503748 90.59373583 201.90233184 89.85955811 182.54760742 C89.8476413 181.15026166 89.84105547 179.75286361 89.83886719 178.35546875 C89.83141983 177.20282784 89.83141983 177.20282784 89.82382202 176.02690125 C89.80927917 173.49709151 89.80240939 170.9673446 89.796875 168.4375 C89.79263393 167.13150848 89.79263393 167.13150848 89.78830719 165.7991333 C89.77334163 161.18591003 89.76409723 156.57271779 89.75976562 151.95947266 C89.75430406 147.23026509 89.73031766 142.50134879 89.70179367 137.77223206 C89.68301907 134.10527768 89.67795374 130.43839116 89.67642975 126.77139282 C89.67343286 125.03014546 89.6655067 123.28889841 89.65224457 121.54769897 C89.48167318 97.41890862 95.76393616 75.75732028 113.046875 58.07421875 C124.22185446 47.1329789 140.80981305 36.25 157 36.25 C148.66361357 23.95791648 137.64597148 15.61689 123 12.25 C106.66931088 10.64902196 93.28266689 13.24195053 80 23.25 C69.3233571 32.15028637 62.93242592 44.27146017 61.63497925 58.15634155 C61.48139337 61.71691687 61.4640576 65.27469662 61.48357964 68.83814049 C61.49643209 71.19886479 61.48472325 73.55845734 61.46754456 75.91914368 C61.44108 80.07942649 61.43524005 84.2394224 61.43664551 88.39978027 C61.43889016 95.06606422 61.4244398 101.73199492 61.38105965 108.39814186 C61.3713296 110.70578411 61.37987722 113.0128512 61.38975525 115.32048035 C61.37224285 127.49255292 59.64777084 137.84507986 51.28515625 147.16015625 C44.48401203 153.71095161 36.80974958 156.40818854 27.4375 156.75 C17.98958719 156.41417372 9.7954146 152.85584294 3 146.25 C-4.12594897 137.42965872 -5.29686424 129.87091699 -5.25878906 118.75878906 C-5.2622937 117.50291489 -5.26579834 116.24704071 -5.26940918 114.95310974 C-5.27668803 111.52153675 -5.27500446 108.09020586 -5.26865101 104.65864658 C-5.26357732 101.0654576 -5.26828585 97.47227876 -5.27142334 93.87908936 C-5.27505712 87.85020088 -5.27027738 81.82136149 -5.26074219 75.79248047 C-5.24983899 68.81799408 -5.25339904 61.84362446 -5.264395 54.86914086 C-5.27346112 48.87921912 -5.27475707 42.88933258 -5.26951766 36.89940619 C-5.26639677 33.3223655 -5.26599227 29.74537977 -5.27259064 26.16834259 C-5.27942322 22.18672615 -5.26996249 18.20524148 -5.25878906 14.22363281 C-5.26283752 13.03400436 -5.26688599 11.84437592 -5.27105713 10.61869812 C-5.26541748 9.53919388 -5.25977783 8.45968964 -5.25396729 7.34747314 C-5.25321323 6.40581928 -5.25245918 5.46416542 -5.25168228 4.49397659 C-4.83819447 0.8073564 -3.57164973 0.29763748 0 0 Z M120.51171875 66.61328125 C104.17753665 83.760362 100.42875955 103.43005557 100.95239258 126.43676758 C100.96810303 127.03513428 100.98381348 127.63350098 101 128.25 C101.94359375 128.54132813 102.8871875 128.83265625 103.859375 129.1328125 C124.7591682 135.73072992 140.7292244 145.82867102 151.7421875 165.3359375 C160.44888507 182.87928336 160.64171847 200.05646871 160.75 219.25 C160.77821158 221.7786658 160.80814608 224.307313 160.83984375 226.8359375 C160.91308576 232.97388529 160.96508834 239.11172067 161 245.25 C167.56492112 246.03441153 173.46837378 246.35914408 180 245.25 C180.00879936 244.36368896 180.00879936 244.36368896 180.01777649 243.45947266 C180.08243632 237.2282225 180.16702762 230.99745479 180.26245117 224.76660156 C180.29540844 222.45091166 180.32352794 220.13514706 180.34643555 217.81933594 C180.52664274 200.07467908 180.92146169 183.45134259 189 167.25 C189.48082031 166.26515625 189.96164063 165.2803125 190.45703125 164.265625 C199.36604199 147.53142478 215.13812327 135.85847734 233.13671875 130.27734375 C235.74959468 129.55805012 238.36367694 128.87721032 241 128.25 C241.66431899 106.69653949 238.29391322 86.83981722 223.6875 70.125 C222.14022166 68.48549977 220.57809036 66.85986399 219 65.25 C218.33484375 64.54875 217.6696875 63.8475 216.984375 63.125 C206.87327743 53.24545428 191.44692142 46.18659896 177.25 46.0625 C175.64125 46.1553125 175.64125 46.1553125 174 46.25 C174.15339844 47.343125 174.30679688 48.43625 174.46484375 49.5625 C175.11694868 54.77933947 175.34164034 60.00005734 175.5625 65.25 C175.60568359 66.21550781 175.64886719 67.18101563 175.69335938 68.17578125 C175.79841713 70.53374425 175.90056914 72.89179416 176 75.25 C177.299375 75.394375 178.59875 75.53875 179.9375 75.6875 C183.875 76.125 183.875 76.125 185 77.25 C185.09268999 78.60094982 185.11747326 79.95667091 185.11352539 81.31079102 C185.11341209 82.60201622 185.11341209 82.60201622 185.11329651 83.91932678 C185.10813522 84.85473801 185.10297394 85.79014923 185.09765625 86.75390625 C185.0962413 87.70692123 185.09482635 88.65993622 185.09336853 89.64183044 C185.08775152 92.69875165 185.07519616 95.75560077 185.0625 98.8125 C185.05748719 100.87955624 185.05292391 102.94661362 185.04882812 105.01367188 C185.03777656 110.09247588 185.02050055 115.1712257 185 120.25 C180.545 120.745 180.545 120.745 176 121.25 C175.67 129.17 175.34 137.09 175 145.25 C172.69 145.25 170.38 145.25 168 145.25 C165.47871644 142.72871644 165.70646931 141.73760987 165.5859375 138.2421875 C165.54726562 137.25605469 165.50859375 136.26992187 165.46875 135.25390625 C165.4378125 134.22136719 165.406875 133.18882812 165.375 132.125 C165.33632812 131.08472656 165.29765625 130.04445313 165.2578125 128.97265625 C165.16335234 126.39861689 165.07778786 123.82458845 165 121.25 C163.88625 121.12625 162.7725 121.0025 161.625 120.875 C158 120.25 158 120.25 156 118.25 C155.75949097 116.41500854 155.75949097 116.41500854 155.77294922 114.16748047 C155.77310028 113.32675995 155.77325134 112.48603943 155.77340698 111.61984253 C155.78372955 110.71146637 155.79405212 109.80309021 155.8046875 108.8671875 C155.8075174 107.93778351 155.81034729 107.00837952 155.81326294 106.05081177 C155.82447931 103.0754115 155.8495864 100.10030965 155.875 97.125 C155.88502792 95.11068142 155.8941541 93.09635814 155.90234375 91.08203125 C155.92442339 86.13790544 155.95896307 81.19400335 156 76.25 C158.97 75.92 161.94 75.59 165 75.25 C165.08176324 72.10362929 165.14086233 68.95943205 165.1875 65.8125 C165.21263672 64.93400391 165.23777344 64.05550781 165.26367188 63.15039062 C165.33209102 56.96986094 164.32816113 51.97459913 162 46.25 C146.59884169 46.25 131.00227031 56.13533636 120.51171875 66.61328125 Z M166 86.25 C166 94.17 166 102.09 166 110.25 C168.97 110.25 171.94 110.25 175 110.25 C175 102.33 175 94.41 175 86.25 C172.03 86.25 169.06 86.25 166 86.25 Z M101 139.25 C100.89986928 145.36567607 100.82794538 151.48085759 100.78027344 157.59716797 C100.76036539 159.67049489 100.73322889 161.74376724 100.69824219 163.81689453 C100.29405023 188.41316373 104.79145671 208.15159513 122.203125 226.58203125 C129.68193362 233.8503436 139.5954737 240.410182 150 242.25 C150.10252838 235.40402212 150.17193196 228.55824655 150.21972656 221.71166992 C150.23967881 219.38900352 150.26685049 217.06638627 150.30175781 214.74389648 C150.6359307 191.91693981 148.204531 173.66845928 132 156.25 C123.50845943 147.93593536 112.80763592 141.40646178 101 139.25 Z M209.3125 156.3125 C196.11570713 170.09372226 190.80476393 187.26590823 190.90234375 206.1171875 C190.9037587 207.15191193 190.90517365 208.18663635 190.90663147 209.25271606 C190.91220961 212.54350732 190.92475812 215.83422946 190.9375 219.125 C190.94251782 221.36197818 190.94708024 223.59895743 190.95117188 225.8359375 C190.96217188 231.30731508 190.97888823 236.7786526 191 242.25 C200.93939147 240.42367334 209.5071671 234.85731628 217 228.25 C217.75023437 227.59386719 218.50046875 226.93773437 219.2734375 226.26171875 C234.16543251 212.36082921 240.25728567 193.82158411 241.09967041 173.89193726 C241.2353868 168.17740622 241.18452186 162.46522148 241.125 156.75 C241.1149338 155.04036992 241.10581449 153.330734 241.09765625 151.62109375 C241.07596845 147.49724711 241.04164698 143.37369136 241 139.25 C229.58586204 139.25 217.20951284 148.9151606 209.3125 156.3125 Z " fill="#28156C" transform="translate(5,-0.25)"/>
</svg>
