<?xml version="1.0" encoding="UTF-8"?>
<svg version="1.1" xmlns="http://www.w3.org/2000/svg" width="2120" height="2436">
<path d="M0 0 C1.43325123 1.18861466 2.8494987 2.39796699 4.25 3.625 C5.07113281 4.33785156 5.89226562 5.05070312 6.73828125 5.78515625 C10.6728658 9.26597992 14.45201497 12.80971856 18.0625 16.625 C27.76418123 26.4649944 38.12232019 31.93837764 51.9375 32.875 C67.04467484 32.55419127 77.32928945 24.9317699 87.41162109 14.53686523 C103.59393272 -2.1372006 122.69210826 -14.37627252 146.4440918 -14.75537109 C169.7105575 -14.71180464 188.7850848 -8.73479509 205.73046875 8 C207.52782501 9.80766896 209.31355237 11.62607628 211.09570312 13.44873047 C222.07617767 24.63943053 232.86849071 33.45936737 249.125 33.9375 C265.91335141 33.57850381 276.92905459 23.26534764 288.0625 11.6875 C303.88334993 -4.22846526 323.07539825 -13.53875668 345.75 -13.625 C368.73673987 -13.6131877 386.68714986 -4.94512411 403.25 10.625 C404.9763094 12.16986547 406.70545526 13.71156752 408.4375 15.25 C411.33614308 17.84209918 414.09000222 20.47807613 416.75 23.3125 C425.76940461 32.45953769 436.23845293 34.6750661 448.62890625 35.8671875 C454.12096069 37.01654949 457.60333985 39.35195332 460.83288097 43.89647007 C464.34805707 49.74930212 464.36500144 56.05149219 464.77156067 62.71116638 C464.88126078 64.23137904 464.99311725 65.75143725 465.10684186 67.27135414 C465.363411 70.74921719 465.60650141 74.22772615 465.84166741 77.70710063 C466.28057034 84.14974531 466.7681603 90.58842274 467.25806236 97.02736092 C468.05389839 107.52459059 468.83617631 118.02274379 469.60594177 128.52191162 C469.65789953 129.23051092 469.70985729 129.93911022 469.76338952 130.66918222 C469.97810088 133.59793055 470.19274491 136.52668379 470.40728112 139.45544495 C470.97564095 147.21367204 471.54656053 154.97171034 472.11746371 162.7297506 C473.49447351 181.44370638 474.86718409 200.15797671 476.23935745 218.87228761 C476.88945614 227.73820123 477.54010021 236.6040748 478.19080483 245.46994396 C480.42236917 275.87523958 482.65302273 306.28060182 484.88051128 336.68619633 C485.01977623 338.587155 485.15904124 340.48811366 485.29830633 342.38907233 C485.43788039 344.29425902 485.57745438 346.19944573 485.71702832 348.10463244 C485.99697869 351.92595626 486.27693109 355.74727993 486.55688477 359.56860352 C486.62629371 360.51603784 486.69570266 361.46347217 486.76721491 362.43961662 C489.02210224 393.21839793 491.28236819 423.99678098 493.5458226 454.77493338 C495.9447005 487.39482713 498.3388136 520.01506714 500.72746211 552.63571161 C500.98971098 556.21687886 501.25197908 559.79804471 501.51426125 563.37920952 C501.57882982 564.260851 501.64339839 565.14249248 501.70992358 566.05085037 C502.74685197 580.20791058 503.78808553 594.36465095 504.83087877 608.52128022 C505.8783173 622.74247805 506.9208737 636.96402734 507.95851978 651.18594307 C508.57425225 659.62321043 509.19358771 668.06019476 509.81819989 676.49680949 C510.23578381 682.14205721 510.64854075 687.7876449 511.05749137 693.43352455 C511.290091 696.64289321 511.52540256 699.85201948 511.76515957 703.06086243 C513.3969314 724.92816783 513.3969314 724.92816783 513.45400715 735.72589779 C513.45995498 736.41120614 513.46590282 737.09651448 513.47203089 737.80258975 C513.34628222 756.03429394 505.63801876 772.33953983 492.89453125 785.109375 C477.36707457 799.87995418 458.89535132 804.78587336 437.96790314 804.75642776 C436.60335189 804.75807877 435.23880111 804.76016567 433.87425113 804.76264787 C430.11805066 804.76820665 426.36187303 804.76754355 422.60566977 804.76587028 C418.5214982 804.76513875 414.43733303 804.77016314 410.3531642 804.7744453 C402.24975846 804.78202404 394.1463593 804.78421829 386.04295039 804.78477435 C376.3377817 804.78568811 366.63261911 804.79235603 356.92745305 804.79912117 C333.4700362 804.81518224 310.01262001 804.82108455 286.55519865 804.82586992 C275.4585707 804.82820574 264.36194327 804.83180837 253.26531573 804.8355653 C215.28135215 804.84840083 177.29738886 804.85912007 139.31342316 804.8625679 C136.92894386 804.86278953 134.54446457 804.86301132 132.15998527 804.86323325 C129.76974295 804.86345389 127.37950062 804.86367438 124.98925829 804.8638947 C120.19401073 804.86433725 115.39876318 804.86478437 110.60351562 804.86523438 C109.41457275 804.86534377 108.22562987 804.86545316 107.00065842 804.86556586 C68.44783386 804.86919662 29.8950281 804.88511736 -8.65778925 804.90842474 C-49.41688277 804.9330209 -90.17596554 804.94674064 -130.9350667 804.94793582 C-135.40943432 804.94810727 -139.88380194 804.9483227 -144.35816956 804.94857025 C-145.45988679 804.94862602 -146.56160403 804.94868179 -147.69670663 804.94873925 C-165.42621576 804.94988987 -183.15570559 804.96091284 -200.8852082 804.97545731 C-218.70600068 804.98982386 -236.52676843 804.99305839 -254.34756511 804.98501733 C-264.93350418 804.98056185 -275.5193634 804.98441845 -286.10529198 805.00025584 C-293.18047784 805.01001131 -300.25560782 805.00882214 -307.33079319 804.99881961 C-311.35943527 804.99343171 -315.3879241 804.99270409 -319.41655344 805.00532833 C-323.08958049 805.01674184 -326.7623309 805.01406206 -330.43534878 805.00066125 C-332.36200661 804.99711912 -334.28867497 805.00814081 -336.21529984 805.01995254 C-353.85944338 804.9149369 -369.71496291 800.61514769 -383.75 789.625 C-384.79800781 788.82449219 -384.79800781 788.82449219 -385.8671875 788.0078125 C-398.82793938 777.4677458 -407.04464776 760.98222763 -409.14541465 744.52790171 C-410.23056315 731.07408043 -409.03673494 717.79636021 -408.02348328 704.36607361 C-407.82153877 701.59949082 -407.62285191 698.83267617 -407.42400295 696.06586939 C-406.99131584 690.06940004 -406.55069307 684.07355593 -406.10472679 678.07806015 C-405.44157321 669.16231795 -404.79088004 660.24569623 -404.14261693 651.32886054 C-403.05124109 636.32210365 -401.94973407 621.31610652 -400.84226036 606.31052971 C-399.74552771 591.4503864 -398.65290031 576.58995121 -397.56583595 561.72909737 C-397.46427173 560.34073391 -397.46427173 560.34073391 -397.3606557 558.92432271 C-397.08579464 555.16685998 -396.81096217 551.40939517 -396.53616793 547.65192756 C-393.95986653 512.42448319 -391.37201249 477.19789642 -388.7782179 441.97173619 C-386.47509985 410.69254876 -384.17941996 379.41282497 -381.89086914 348.13256836 C-381.818095 347.13790127 -381.74532086 346.14323417 -381.67034145 345.11842566 C-381.52349517 343.1113495 -381.37664956 341.10427329 -381.22980462 339.09719703 C-380.86404104 334.09794187 -380.49827167 329.09868714 -380.13249493 324.09943295 C-380.06033024 323.11310071 -379.98816556 322.12676848 -379.91381406 321.1105474 C-377.65727824 290.26970255 -375.39426861 259.42933257 -373.13019914 228.58903999 C-372.37950177 218.36324412 -371.62923138 208.13741727 -370.88024497 197.91149592 C-370.77920994 196.53207159 -370.77920994 196.53207159 -370.6761338 195.12478009 C-370.54050541 193.27302954 -370.40487711 191.42127899 -370.26924889 189.56952843 C-369.04143641 172.80658279 -367.81045966 156.04387403 -366.57419618 139.28154939 C-365.92086792 130.42212206 -365.26992961 121.56252717 -364.62252418 112.70266501 C-364.18936308 106.77827923 -363.75291397 100.85414149 -363.31382982 94.93019176 C-363.06406706 91.55932253 -362.81615795 88.18834597 -362.57123157 84.81711995 C-360.90025667 61.83789147 -360.90025667 61.83789147 -359.86828327 52.80425358 C-359.74808112 51.72649884 -359.62787898 50.64874411 -359.50403434 49.53833014 C-358.41560136 45.33299833 -356.37233759 41.89844778 -352.93359375 39.19921875 C-347.68842853 36.53556661 -343.63968327 35.49676527 -337.8125 34.9375 C-322.68871407 33.08460393 -313.15617605 24.22628973 -302.9375 13.75 C-287.13996032 -2.40657467 -268.5382597 -13.20750828 -245.49658203 -13.61645508 C-220.25752496 -13.71245236 -201.78737945 -4.66059662 -183.75 12.625 C-181.94242047 14.35107595 -180.13183316 16.07359151 -178.3137207 17.78857422 C-177.14326724 18.89301341 -175.97857568 20.00360627 -174.82104492 21.12158203 C-166.21355024 29.253785 -157.20033006 33.67701811 -145.25 34 C-129.484792 33.53848923 -118.77750591 25.32327158 -108.25 14.1875 C-79.4375686 -15.34840916 -35.24922916 -26.60668611 0 0 Z M-84.296875 119.6171875 C-93.42208523 130.80574145 -95.79359136 143.33526028 -94.98828125 157.34765625 C-93.60626617 170.55609544 -85.93022552 180.46725177 -76.14453125 188.8359375 C-64.8478296 197.27621377 -52.42325632 198.84855761 -38.75 197.625 C-26.6300294 195.26012769 -16.40880856 188.20897355 -8.75 178.625 C-1.25563268 166.41988751 1.95754771 154.52552046 -0.875 140.3125 C-3.92837604 128.0279871 -10.75585112 117.16299057 -21.5625 110.3125 C-43.67510376 98.04664891 -66.73164354 101.19878765 -84.296875 119.6171875 Z M113.25 121.625 C104.65943209 132.21582269 103.12317808 145.48790539 104.25 158.625 C106.387265 170.922494 113.75389692 181.96962013 123.66796875 189.44921875 C126.13916679 191.00894152 128.62265512 192.34726389 131.25 193.625 C132.05695312 194.0375 132.86390625 194.45 133.6953125 194.875 C143.8176058 199.33252366 156.31796072 199.19399022 166.8125 196 C172.14847824 193.91136675 176.70183334 191.08160666 181.25 187.625 C182.796875 186.5421875 182.796875 186.5421875 184.375 185.4375 C193.16424154 177.82015733 198.58318432 164.86039712 199.40625 153.4609375 C199.90558524 140.35338743 195.48691222 128.28132612 187 118.375 C177.17958728 108.03601763 165.77289033 103.35071657 151.625 102.375 C135.71337136 102.68276845 123.44277457 109.82575553 113.25 121.625 Z M-232.75 211.625 C-239.87390994 221.29206919 -241.11336741 229.72087788 -241.0625 241.5 C-241.06067719 242.16461243 -241.05885437 242.82922485 -241.05697632 243.51397705 C-240.74052516 312.39312785 -211.53253662 379.83978417 -165.75 430.625 C-165.20424316 431.2324707 -164.65848633 431.83994141 -164.09619141 432.46582031 C-158.55854385 438.60251899 -153.04898647 444.69876128 -146.6875 450 C-144.41097617 451.90934256 -142.24571162 453.92222774 -140.0625 455.9375 C-92.4574601 498.65259623 -25.25092651 526.52205587 38.8828125 526.828125 C39.86935822 526.83518463 40.85590393 526.84224426 41.87234497 526.84951782 C71.20207366 527.14678302 71.20207366 527.14678302 100.25 523.625 C101.28688965 523.44227539 102.3237793 523.25955078 103.39208984 523.07128906 C170.74271129 511.07288963 235.55009929 474.56171669 278.25 420.625 C279.2065038 419.4568329 280.16493909 418.29024544 281.125 417.125 C321.75655806 367.57240659 350.75700512 295.71474108 345.25 230.625 C343.72211428 221.1139114 338.70032637 212.91253879 331.17578125 206.90625 C323.19150721 201.5941975 314.32448073 199.27856657 304.828125 201.0859375 C295.54290386 203.53700519 287.62324443 208.56513336 282.25 216.625 C278.28252967 223.8986956 277.2100933 230.5988913 276.96020508 238.80419922 C275.47936869 286.74256452 260.51911183 332.41420431 231.25 370.625 C230.62738281 371.44097656 230.00476562 372.25695312 229.36328125 373.09765625 C192.81685947 419.8741109 139.00583301 449.80026809 80.25 457.4375 C19.42276231 464.50213694 -40.87502061 447.96041755 -88.95166016 410.08447266 C-92.56247516 407.1540556 -95.98084101 404.0346612 -99.37109375 400.8515625 C-101.46780132 398.88912685 -103.61327314 397.03257701 -105.8125 395.1875 C-146.40016688 359.61167053 -168.73187594 302.79290441 -172.60449219 250.03662109 C-172.80555669 246.70421307 -172.91699223 243.37071665 -173.03222656 240.03442383 C-173.49651589 227.66355687 -175.414184 218.98719522 -184.3203125 209.7890625 C-191.3445435 203.53275386 -199.96526932 199.99834888 -209.48828125 200.31640625 C-218.45189701 201.53942118 -226.46737852 205.06868016 -232.75 211.625 Z " fill="#FFFFFF" transform="translate(995.75,418.375)"/>
<path d="M0 0 C2.23058651 2.02812326 4.4308452 4.0558452 6.5625 6.1875 C6.78164063 5.50945312 7.00078125 4.83140625 7.2265625 4.1328125 C11.87636477 -9.51416815 18.43868365 -20.04348062 31.5625 -26.6875 C40.44088563 -31.02580207 48.06733101 -32.18093324 57.8125 -32.125 C58.83375977 -32.11936035 59.85501953 -32.1137207 60.90722656 -32.10791016 C75.32123487 -31.87572278 87.04028703 -28.22228504 97.8125 -18.3125 C107.44823226 -8.13974445 111.90147024 4.67313537 111.81697559 18.5575161 C111.82018207 19.35307565 111.82338855 20.14863519 111.82669219 20.96830261 C111.83495995 23.62057523 111.82907927 26.27262013 111.82319641 28.92489624 C111.82621856 30.85110739 111.83010836 32.77731735 111.83478898 34.70352519 C111.84506944 39.98650998 111.84288702 45.26942692 111.83860838 50.55241728 C111.83614127 56.25396169 111.84515514 61.95548977 111.85264587 67.6570282 C111.86539516 78.82293569 111.86718629 89.98881914 111.86484561 101.15473269 C111.86306259 110.23051406 111.86481174 119.30628813 111.86907005 128.38206863 C111.86966524 129.67376697 111.87026043 130.96546531 111.87087366 132.29630602 C111.87208541 134.92038817 111.87329954 137.54447032 111.87451603 140.16855247 C111.88230304 157.78719102 111.88622252 175.40582567 111.88219929 193.02446556 C111.88204291 193.71318976 111.88188654 194.40191395 111.88172542 195.11150858 C111.88091966 198.60209207 111.88007389 202.09267555 111.87921212 205.58325903 C111.87895549 206.62308692 111.87895549 206.62308692 111.87869367 207.68392144 C111.87834701 209.08577696 111.87799848 210.48763248 111.87764808 211.889488 C111.87229088 233.70238299 111.88022217 255.51523755 111.89868164 277.328125 C111.9194056 301.84547912 111.93009254 326.36280585 111.92610615 350.88016951 C111.92419327 363.85781441 111.92669025 376.83542248 111.94082069 389.81306076 C111.95272798 400.86069211 111.95414664 411.90826396 111.94203053 422.95589612 C111.93613739 428.59165166 111.93505457 434.22729833 111.94703293 439.86304665 C111.95787626 445.02477925 111.95480667 450.18631187 111.94077124 455.34803505 C111.93812007 457.21268686 111.94050402 459.07735426 111.94850711 460.94199078 C112.00934004 476.17600694 110.74122748 489.60867612 100 501.375 C86.88518423 513.72560658 70.59402193 513.54109988 53.70288086 513.50317383 C50.76703575 513.50001831 47.83220522 513.52351807 44.89648438 513.54882812 C27.90308987 513.60716135 13.37293433 512.42549712 0.25 500.5 C-9.47074035 490.22939959 -10.73332457 477.0577773 -10.75634766 463.61132812 C-10.76565973 462.25055352 -10.77583028 460.88978456 -10.78678894 459.52902222 C-10.81395905 455.85607129 -10.82919953 452.18315843 -10.84221697 448.51013374 C-10.85790471 444.66373481 -10.88467678 440.81741297 -10.9102478 436.97106934 C-10.95693606 429.69692521 -10.99372816 422.42276642 -11.02692068 415.14854956 C-11.06521262 406.86310509 -11.11460414 398.57773826 -11.16490483 390.29235935 C-11.26807655 373.25746248 -11.3573847 356.22252059 -11.4375 339.1875 C-11.97693237 339.59597168 -12.51636475 340.00444336 -13.07214355 340.42529297 C-13.7850354 340.96299316 -14.49792725 341.50069336 -15.23242188 342.0546875 C-16.28907043 342.85302002 -16.28907043 342.85302002 -17.36706543 343.66748047 C-48.709041 366.67734308 -93.15036092 369.45943082 -130.36523438 363.98999023 C-158.85658401 359.44595505 -186.43535664 349.30532877 -208.4375 330.1875 C-209.66533203 329.14142578 -209.66533203 329.14142578 -210.91796875 328.07421875 C-236.63543537 305.62625952 -250.92695354 276.27850035 -257.4375 243.1875 C-257.61312973 242.33078201 -257.78875946 241.47406403 -257.9697113 240.59138489 C-260.13042184 228.14308461 -259.74897551 215.54351754 -259.73908257 202.95061898 C-259.7380001 200.21535185 -259.74292863 197.4801073 -259.747688 194.74484509 C-259.75872306 188.27722597 -259.75925545 181.80966495 -259.75317383 175.34204102 C-259.74714666 168.72554604 -259.75942686 162.1092644 -259.7807439 155.49280578 C-259.79850784 149.76317336 -259.80433804 144.03360791 -259.80110615 138.30394906 C-259.79931562 134.90362141 -259.8017003 131.50344575 -259.81582069 128.10314369 C-259.87736108 109.39832342 -259.09865971 91.53099003 -253.6875 73.5 C-253.43218506 72.63117188 -253.17687012 71.76234375 -252.91381836 70.8671875 C-250.41746324 62.65206053 -247.20542079 54.89268633 -243.4375 47.1875 C-242.91671875 46.094375 -242.3959375 45.00125 -241.859375 43.875 C-225.25372417 10.98613817 -194.63519387 -12.85277356 -160.09448242 -24.52124023 C-106.92036535 -41.42918706 -43.04923923 -38.39526742 0 0 Z M-122.25 71.375 C-134.7926013 85.14126972 -137.5906047 102.62162245 -137.58276367 120.5378418 C-137.58612228 121.64954239 -137.5894809 122.76124298 -137.59294128 123.90663147 C-137.60240748 127.56667207 -137.60439233 131.22666669 -137.60546875 134.88671875 C-137.60868471 137.44489053 -137.61204904 140.00306212 -137.61555481 142.56123352 C-137.62153552 147.91997782 -137.62343883 153.27870517 -137.62280273 158.63745117 C-137.62220315 164.80060008 -137.63273664 170.96366113 -137.6485464 177.12678784 C-137.66328615 183.08869132 -137.66678838 189.05056842 -137.66619301 195.01249123 C-137.66736734 197.5332659 -137.67175818 200.05404133 -137.67952538 202.57480431 C-137.68940662 206.11333721 -137.6864151 209.65164849 -137.68041992 213.19018555 C-137.68603943 214.21556427 -137.69165894 215.24094299 -137.69744873 216.2973938 C-137.62113063 234.17112866 -134.07402 250.2934851 -121.33984375 263.3359375 C-107.32891509 276.63025782 -88.10946149 279.53913025 -69.4375 279.1875 C-51.92844506 278.37176382 -34.6117984 273.4375446 -22.4375 260.1875 C-12.85287046 247.03082102 -10.1264821 232.8466353 -10.1628418 216.86987305 C-10.1551754 215.10166199 -10.1551754 215.10166199 -10.14735413 213.29772949 C-10.13354422 209.43150645 -10.13440853 205.56546341 -10.13671875 201.69921875 C-10.13440407 199.67642969 -10.13089987 197.65364493 -10.127312 195.63085777 C-10.1162616 189.27903359 -10.1157538 182.92726856 -10.12182617 176.57543945 C-10.12785944 170.06058508 -10.1155612 163.54594703 -10.0942561 157.03112954 C-10.07654099 151.40354546 -10.07065431 145.7760296 -10.07389385 140.14841872 C-10.07569151 136.80238599 -10.07187539 133.45662957 -10.05917931 130.11060143 C-9.98548017 107.97142302 -10.28274773 87.76321144 -26.5390625 71.0234375 C-50.318421 48.58849503 -98.32174429 49.52514512 -122.25 71.375 Z " fill="#FFFFFF" transform="translate(259.4375,1619.8125)"/>
<path d="M0 0 C48.22496883 -1.06017828 104.72071317 4.63673394 142.46875 38.06201172 C143.91507813 39.29371094 143.91507813 39.29371094 145.390625 40.55029297 C165.15654014 57.68747693 176.98887383 80.87011675 182.78125 106.18701172 C182.92860596 106.82944824 183.07596191 107.47188477 183.2277832 108.13378906 C186.11941981 122.00077047 186.79157884 135.99246444 186.8046875 150.10888672 C186.81114168 151.77980657 186.81787179 153.45072537 186.82485962 155.12164307 C186.83670834 158.59056214 186.84055275 162.05938249 186.83935547 165.52832031 C186.83915138 169.93796019 186.86660188 174.34696222 186.90089989 178.75645065 C186.92328582 182.19517855 186.92718968 185.63375466 186.92613602 189.07254791 C186.92846868 190.6974027 186.93715755 192.32226321 186.95280075 193.94704437 C187.06059625 206.28144956 186.63093123 219.11643219 177.46875 228.47607422 C170.35865119 234.11416039 162.58872941 235.21319852 153.78753662 235.18226624 C152.90207161 235.18312066 152.0166066 235.18397509 151.10430932 235.1848554 C148.13169357 235.18650499 145.15913401 235.18099731 142.18652344 235.17553711 C140.05788169 235.1752551 137.92923984 235.17541324 135.80059814 235.17597961 C130.01588704 235.17626705 124.23119658 235.17037898 118.44649029 235.16340566 C112.40331311 235.15716319 106.36013547 235.15656761 100.31695557 235.15538025 C88.87064357 235.15226958 77.4243411 235.14405972 65.9780333 235.13403076 C52.94795998 235.12286145 39.9178862 235.11735711 26.88780928 235.11233532 C0.0814509 235.10187691 -26.72489902 235.08428255 -53.53125 235.06201172 C-53.43669 240.25435489 -53.33038879 245.44628674 -53.21386719 250.63818359 C-53.17592007 252.39918691 -53.14101203 254.16025874 -53.109375 255.92138672 C-52.70443397 281.96113188 -52.70443397 281.96113188 -40.0234375 304.02685547 C-21.69393706 318.99498984 5.44141626 319.38911617 27.88232422 317.35986328 C40.91899953 315.85856595 53.49050337 312.84684201 62.03125 302.21044922 C66.58045815 295.41136095 66.84881223 288.30967793 67.0625 280.29638672 C67.50965477 276.73634684 68.2714523 274.87854787 70.46875 272.06201172 C73.25614699 270.37316166 75.34439105 269.81004745 78.5851593 269.79458618 C79.39671478 269.78605621 80.20827026 269.77752625 81.04441833 269.76873779 C82.36688316 269.77009735 82.36688316 269.77009735 83.71606445 269.77148438 C84.65150085 269.76476715 85.58693726 269.75804993 86.55072021 269.75112915 C89.64454454 269.73212463 92.73815217 269.72822356 95.83203125 269.72607422 C97.98430979 269.71964751 100.13658744 269.71291924 102.28886414 269.7059021 C106.80221583 269.69392284 111.31549095 269.6902219 115.82885742 269.69140625 C121.60590477 269.69160936 127.38245974 269.66431802 133.15939045 269.62986183 C137.60585271 269.60759819 142.05219644 269.60356857 146.49870872 269.6046257 C148.62812177 269.60226853 150.75753803 269.59343848 152.88689613 269.57796097 C155.86936281 269.55831432 158.85076733 269.5641344 161.83325195 269.57617188 C162.70882248 269.56493286 163.58439301 269.55369385 164.48649597 269.54211426 C170.29274427 269.60151376 173.72472199 270.65056453 178.46875 274.06201172 C181.58071996 279.26979819 181.94992364 283.91845422 181.84375 289.81201172 C181.83432373 290.63403076 181.82489746 291.4560498 181.81518555 292.30297852 C181.23293545 316.69948965 173.93739574 338.6942789 157.46875 357.06201172 C156.92863281 357.68462891 156.38851563 358.30724609 155.83203125 358.94873047 C131.08395796 385.69161067 88.96701183 394.42284124 54.46875 398.06201172 C53.62795898 398.15192383 52.78716797 398.24183594 51.92089844 398.33447266 C-7.98317813 404.2784773 -79.55125636 400.30179774 -128.26953125 360.85107422 C-138.63424332 352.14913331 -147.48640272 342.65324299 -154.53125 331.06201172 C-155.21703125 329.93666016 -155.9028125 328.81130859 -156.609375 327.65185547 C-165.05362628 313.14086054 -170.00433131 296.60361022 -172.53125 280.06201172 C-172.70307297 278.94749634 -172.87489594 277.83298096 -173.05192566 276.68469238 C-173.78254121 270.73273825 -173.69519593 264.76314442 -173.70825195 258.77490234 C-173.71482315 257.45653885 -173.72139435 256.13817535 -173.72816467 254.77986145 C-173.74908225 250.42600697 -173.75956561 246.0721527 -173.76953125 241.71826172 C-173.77358545 240.2069141 -173.77770255 238.69556664 -173.78188133 237.18421936 C-173.80091761 230.06896984 -173.81514367 222.95373049 -173.8234933 215.83846045 C-173.83321578 207.69242394 -173.85940996 199.54666277 -173.89999419 191.40072298 C-173.93045253 185.06393126 -173.94499045 178.72721701 -173.94827431 172.39035368 C-173.95059411 168.625859 -173.95914027 164.86165872 -173.98473549 161.09724426 C-174.12615646 139.16156217 -173.26425239 117.36754937 -165.78125 96.49951172 C-165.43690918 95.50902832 -165.09256836 94.51854492 -164.73779297 93.49804688 C-156.51375288 70.5612402 -141.95832886 50.7939789 -122.53125 36.06201172 C-121.75394531 35.46904297 -120.97664062 34.87607422 -120.17578125 34.26513672 C-85.61598779 9.02548856 -41.97274481 1.02826748 0 0 Z M-40.15625 95.37451172 C-57.08921782 114.53550162 -53.53125 137.03207693 -53.53125 162.06201172 C-12.28125 162.06201172 28.96875 162.06201172 71.46875 162.06201172 C73.04699966 125.83281263 73.04699966 125.83281263 57.359375 94.80029297 C44.1155049 82.62359422 26.11117675 79.66198322 8.71875 79.74951172 C7.57857422 79.75370117 6.43839844 79.75789063 5.26367188 79.76220703 C-12.31043658 79.99699472 -26.84308694 83.64624902 -40.15625 95.37451172 Z " fill="#FFFFFF" transform="translate(1138.53125,1585.93798828125)"/>
<path d="M0 0 C28.94082592 27.62915572 41.7310005 63.89047126 43.0824585 103.54443359 C43.22685791 110.23273701 43.21906843 116.91987987 43.19921875 123.609375 C43.20124856 126.0734872 43.20416745 128.5375988 43.20791626 131.00170898 C43.21229703 136.12457085 43.20604741 141.24727402 43.19189453 146.37011719 C43.17480559 152.86452375 43.18466986 159.35855806 43.20261192 165.85295105 C43.21356579 170.92886041 43.20995087 176.00468469 43.20222855 181.08059692 C43.20025842 183.47226 43.20257047 185.86393136 43.20966721 188.25558472 C43.31081041 231.89472819 34.68809187 273.08826714 3.5703125 305.43359375 C-23.98624167 332.6792136 -61.64558063 345.47472737 -99.19921875 351.171875 C-100.31248535 351.34178955 -100.31248535 351.34178955 -101.44824219 351.51513672 C-153.20971856 359.0681599 -213.77064254 354.97716031 -260.19921875 329.171875 C-261.24980469 328.60855469 -262.30039063 328.04523438 -263.3828125 327.46484375 C-271.25394728 323.09426566 -278.23420736 317.83710949 -285.19921875 312.171875 C-286.02550781 311.5015625 -286.85179687 310.83125 -287.703125 310.140625 C-293.651207 305.09251367 -298.44418741 299.33643348 -303.19921875 293.171875 C-303.87984375 292.31851562 -304.56046875 291.46515625 -305.26171875 290.5859375 C-328.8444041 259.91002257 -332.35513042 221.26749249 -332.3671875 183.98046875 C-332.37040837 181.62557455 -332.37377303 179.27068054 -332.37727356 176.91578674 C-332.38323747 171.99292538 -332.38511634 167.07008151 -332.38452148 162.1472168 C-332.38442015 155.89319703 -332.39805514 149.63929152 -332.41529369 143.38529873 C-332.42650949 138.5231527 -332.42843776 133.66103344 -332.42791176 128.79887581 C-332.42907816 126.49600901 -332.43342288 124.19314121 -332.44124413 121.8902874 C-332.57471608 78.52650363 -325.20564405 37.51744824 -294.19921875 5.171875 C-293.40257812 4.30046875 -292.6059375 3.4290625 -291.78515625 2.53125 C-233.50228084 -59.09716811 -111.00296216 -58.71887198 0 0 Z M-173.19921875 46.171875 C-174.55273438 46.57212891 -174.55273438 46.57212891 -175.93359375 46.98046875 C-188.00921994 51.19943753 -197.31814642 59.60043084 -203.38671875 70.671875 C-210.65651146 86.46401699 -209.64245003 103.21136499 -209.59765625 120.234375 C-209.59832726 122.95711593 -209.60259268 125.67984973 -209.60635376 128.40258789 C-209.61178069 134.08777308 -209.60470097 139.77284058 -209.59033203 145.45800781 C-209.57401138 151.98997844 -209.57930208 158.52166794 -209.59581125 165.05363178 C-209.60951428 170.70595069 -209.61130313 176.35818598 -209.60349524 182.01051617 C-209.59886666 185.36712267 -209.59927222 188.72349397 -209.60810471 192.08010864 C-209.87836308 223.40922286 -209.87836308 223.40922286 -194.94921875 250.171875 C-179.54289005 264.22265532 -158.31654755 267.01974942 -138.25244141 266.28125 C-119.9595892 265.30679129 -103.86995859 259.68445275 -91.19921875 246.171875 C-82.0768299 234.25612083 -80.052316 220.61722861 -80.03808594 206.0546875 C-80.03312103 204.83759598 -80.02815613 203.62050446 -80.02304077 202.36653137 C-80.01096534 199.03752439 -80.00348197 195.70857996 -79.99903011 192.37955856 C-79.99608864 190.29324834 -79.99198172 188.20694349 -79.98752594 186.12063599 C-79.9738617 179.57457284 -79.96419145 173.02852212 -79.96032405 166.48244572 C-79.95585458 158.96117915 -79.93835412 151.44009533 -79.90932345 143.91888428 C-79.88759251 138.08334493 -79.87761363 132.24785654 -79.87628293 126.41227722 C-79.87524244 122.93764192 -79.86949894 119.46317862 -79.85146332 115.98858643 C-79.83167313 112.10040618 -79.83631667 108.21244776 -79.84277344 104.32421875 C-79.82895126 102.63254326 -79.82895126 102.63254326 -79.81484985 100.9066925 C-79.89069699 86.20928701 -83.08002823 70.80299496 -93.45703125 59.75390625 C-110.92644595 43.89042429 -132.70409496 42.19188223 -155.22265625 42.99902344 C-161.40383183 43.35796966 -167.25284835 44.41083453 -173.19921875 46.171875 Z " fill="#FFFFFF" transform="translate(2077.19921875,1631.828125)"/>
<path d="M0 0 C1.05964714 -0.00744736 1.05964714 -0.00744736 2.14070129 -0.01504517 C4.46791577 -0.02959756 6.79506202 -0.03645822 9.12231445 -0.04199219 C10.32132857 -0.04623325 10.32132857 -0.04623325 11.5445652 -0.05056 C15.7771093 -0.06552703 20.00961956 -0.07477136 24.2421875 -0.07910156 C28.59180851 -0.08457342 32.94111448 -0.10858124 37.29063702 -0.13707352 C40.65461601 -0.15579762 44.0185207 -0.16091073 47.38254738 -0.16243744 C48.98475676 -0.16544397 50.58696548 -0.17340405 52.18912315 -0.18662262 C63.39710468 -0.27247205 73.92058063 -0.08368705 83.0402832 7.28222656 C89.67371924 14.37263264 90.94781012 22.7521177 90.93612671 32.04512024 C90.93894799 32.95267018 90.94176927 33.86022012 90.94467604 34.79527158 C90.95302418 37.84342208 90.95436052 40.89153626 90.95581055 43.93969727 C90.96047884 46.12281903 90.96562243 48.30593983 90.97120667 50.48905945 C90.98249204 55.19585898 90.99092434 59.90265217 90.9973259 64.60946083 C91.00801017 72.06161986 91.02825843 79.51373354 91.05044556 86.96586609 C91.08099384 97.4245863 91.11021484 107.88330782 91.13598633 118.34204102 C91.13762451 119.00574206 91.13926269 119.66944311 91.14095052 120.35325631 C91.16554856 130.41754537 91.18373775 140.4818362 91.19946289 150.54614258 C91.21784805 162.24717366 91.24683651 173.94812924 91.2874676 185.64910477 C91.30847935 191.83727441 91.32398653 198.02534911 91.32627487 204.21355629 C91.3284332 210.04371264 91.34442285 215.87367165 91.3706646 221.70376778 C91.37781521 223.83409789 91.37997934 225.96445203 91.37656212 228.09479141 C91.35017185 247.68875706 92.45170496 267.46656518 106.86450195 282.48925781 C120.94120614 294.66063032 139.82036098 297.43562798 157.7980957 296.16113281 C173.47833212 294.44604819 186.52205506 289.34565696 196.6105957 276.93066406 C206.1465617 263.4611121 207.9701276 247.71154371 207.92266846 231.63586426 C207.92407861 230.7319106 207.92548875 229.82795693 207.92694163 228.89661074 C207.93056339 225.89687801 207.92727174 222.89719351 207.92407227 219.89746094 C207.92546859 217.73489851 207.92736892 215.57233636 207.92973328 213.40977478 C207.93421527 208.76690959 207.93608602 204.12405321 207.93619537 199.48118591 C207.93733955 192.13493629 207.95020478 184.78873648 207.96575928 177.44250488 C207.96833213 176.2006233 207.97090498 174.95874171 207.9735558 173.67922735 C207.97882178 171.14068854 207.98410726 168.60214976 207.98941183 166.06361103 C208.02447994 148.97159851 208.0510705 131.8796492 208.04858398 114.78759766 C208.04699472 103.24218893 208.06304214 91.69695136 208.09929061 80.1515975 C208.11773147 74.04800358 208.12710892 67.94469544 208.11481476 61.84107971 C208.103365 56.10185806 208.115113 50.36314845 208.14444923 44.62399483 C208.15107932 42.52219632 208.14924108 40.42035079 208.13815117 38.31857109 C208.07637404 25.54787402 208.09009529 15.81685189 217.4855957 6.22363281 C225.87623824 -1.34841045 238.29515383 -0.2833592 248.8293457 -0.23730469 C250.47261687 -0.23933022 252.11588715 -0.24224562 253.75915527 -0.2460022 C257.18840162 -0.25040305 260.61741213 -0.24406728 264.04663086 -0.22998047 C268.41746042 -0.21288983 272.78773711 -0.22274312 277.15854645 -0.24069786 C280.54742514 -0.25159662 283.93617518 -0.2480616 287.32505798 -0.24031448 C288.93562385 -0.23832927 290.54620184 -0.24071196 292.15675354 -0.24775314 C303.46996157 -0.28637268 315.20051562 -0.28291906 323.7980957 8.16113281 C330.39889062 16.18390748 331.12314347 25.25592871 330.88142395 35.3114624 C330.85942044 36.78688519 330.85942044 36.78688519 330.83697242 38.2921145 C330.80382863 40.43591769 330.76585241 42.57965043 330.72359276 44.7232933 C330.63079259 49.43975317 330.56169377 54.15649169 330.49055135 58.8733201 C330.45193596 61.41313622 330.41206383 63.95293351 330.37101996 66.49271154 C330.22152409 75.84837944 330.11772398 85.20359821 330.04289246 94.56011963 C330.03464906 95.57925192 330.03464906 95.57925192 330.02623913 96.61897275 C329.9755463 102.92593621 329.9279757 109.2329217 329.88240588 115.53992414 C329.85104233 119.85833582 329.81795426 124.17673144 329.78320312 128.49511719 C329.77745573 129.21213068 329.77170834 129.92914416 329.76578679 130.66788533 C329.67012372 142.23753932 329.4777595 153.80370774 329.25074104 165.37144086 C329.01908113 177.29922671 328.90079828 189.22452879 328.88183707 201.15455842 C328.86795864 207.83469052 328.80085792 214.50411754 328.60785866 221.18224335 C326.69561058 253.09491524 326.69561058 253.09491524 340.09542078 280.65261197 C344.91067496 285.55341305 350.24538851 289.72086861 355.75288302 293.80843616 C362.85554515 299.31020927 367.06616034 307.32498744 368.7980957 316.16113281 C369.84576331 329.64341265 366.93370085 339.47290606 358.7980957 350.16113281 C355.78185191 353.48604254 352.59174614 356.60869264 349.3605957 359.72363281 C344.14486368 364.80006013 339.03538228 369.85252377 334.35327148 375.43164062 C327.76228466 382.7613974 318.61920093 387.49767682 308.85668945 388.61035156 C295.20527686 389.2378906 285.10349013 384.97735271 274.7980957 376.16113281 C268.36625125 370.20448564 262.25953248 363.90644031 256.1105957 357.66113281 C254.42705474 355.96251827 252.74281558 354.26459544 251.05786133 352.56738281 C246.96318399 348.43991143 242.87722659 344.30396627 238.7980957 340.16113281 C235.63417032 343.30387847 232.5988768 346.48342832 229.6730957 349.84863281 C205.73259981 376.33598997 172.95423129 388.60281037 137.6965332 390.65625 C105.51232789 392.27275276 72.95125459 388.65788433 43.7980957 374.16113281 C42.64825195 373.59394531 41.4984082 373.02675781 40.3137207 372.44238281 C28.8436097 366.51885131 19.16360033 358.99190227 9.7980957 350.16113281 C9.05946289 349.49855469 8.32083008 348.83597656 7.55981445 348.15332031 C-17.70879439 324.54534829 -29.96975231 286.45685935 -31.29822791 252.71458614 C-31.3379077 250.18783361 -31.34960764 247.662668 -31.34907532 245.13560486 C-31.35275201 244.17785945 -31.35642869 243.22011404 -31.3602168 242.23334605 C-31.37115451 239.05163588 -31.37508034 235.86995848 -31.37890625 232.68823242 C-31.385178 230.39596963 -31.39182542 228.10370784 -31.39881897 225.81144714 C-31.41976308 218.31213069 -31.43020682 210.81281424 -31.44018555 203.31347656 C-31.4442356 200.7263901 -31.44835259 198.13930374 -31.45253563 195.55221748 C-31.46938437 184.79371215 -31.48402284 174.03521044 -31.49128437 163.2766943 C-31.49319392 160.49297522 -31.49511432 157.70925615 -31.49707031 154.92553711 C-31.49755405 154.23374906 -31.49803779 153.54196101 -31.49853619 152.82920969 C-31.50684583 141.60998469 -31.53220805 130.39086597 -31.56465099 119.17168742 C-31.59774506 107.63276379 -31.61540213 96.09391023 -31.61892861 84.55493742 C-31.62127863 78.08418591 -31.63023471 71.61360311 -31.65538979 65.14289665 C-31.67865942 59.05988405 -31.68290801 52.97715147 -31.6726284 46.89410591 C-31.67213281 44.66447646 -31.6784602 42.43483324 -31.69218445 40.20524597 C-31.70989958 37.15638818 -31.70279879 34.10853606 -31.68965149 31.05967712 C-31.70062074 30.18223199 -31.71158998 29.30478686 -31.72289163 28.40075248 C-31.63569306 19.99817453 -28.66112009 12.884761 -22.9753418 6.66503906 C-16.40686482 1.09485484 -8.31375074 0.04458075 0 0 Z " fill="#FFFFFF" transform="translate(517.201904296875,1594.8388671875)"/>
<path d="M0 0 C5.56150063 4.14284322 10.42485972 8.74781535 15.26391602 13.70092773 C16.109254 14.55288223 16.95459198 15.40483673 17.82554626 16.28260803 C20.48809939 18.96831393 23.14014975 21.66408612 25.79125977 24.36108398 C28.47631059 27.08121467 31.16352758 29.79915737 33.8533783 32.51454163 C35.51817011 34.19630506 37.17986683 35.88113915 38.83815002 37.56932068 C39.58330368 38.32423294 40.32845734 39.0791452 41.09619141 39.85693359 C41.75140274 40.52341415 42.40661407 41.18989471 43.0816803 41.87657166 C44.66355347 43.51030006 44.66355347 43.51030006 46.72875977 44.42358398 C46.9955957 43.69526367 47.26243164 42.96694336 47.53735352 42.21655273 C55.54480429 23.44498779 74.39816535 8.41510559 92.79516602 0.66186523 C105.38086355 -4.3526333 117.1341585 -5.9499155 130.63330078 -5.94702148 C132.8957155 -5.95137647 135.15614338 -5.98776557 137.41821289 -6.02563477 C153.36106878 -6.14890678 168.36822471 -3.38098845 180.54125977 7.67358398 C191.05463358 18.95562428 191.08222776 33.24959074 191.04443359 47.75415039 C191.04127505 50.28632765 191.06479211 52.81733175 191.09008789 55.34936523 C191.14676331 69.59270922 189.72240564 82.26755113 179.98266602 93.42358398 C166.87227617 106.07061285 148.17889324 105.73041628 131.14941406 105.87988281 C115.21029207 106.04585834 101.90901284 108.70077535 88.41625977 117.61108398 C71.97740047 134.81454139 71.42080942 157.13372877 71.47338867 179.43481445 C71.47063243 181.40269617 71.46694872 183.37057677 71.4624176 185.3384552 C71.45436293 189.54526147 71.45212247 193.75201477 71.45436478 197.95882797 C71.45721767 204.6163231 71.44277507 211.27371385 71.42538452 217.93118286 C71.37853739 236.85148588 71.3544052 255.77178014 71.34790039 274.69213867 C71.34414799 285.16522237 71.32611293 295.63818624 71.29280603 306.11121857 C71.2726295 312.72470372 71.27020222 319.33787911 71.28108621 325.9513824 C71.28369691 330.06543894 71.26967331 334.17931559 71.25100517 338.29332542 C71.24569318 340.19559383 71.24716295 342.09789557 71.25604057 344.00015068 C71.34166439 363.96093378 71.34166439 363.96093378 64.35375977 372.23608398 C53.67234847 381.13726006 42.30616558 380.73199551 28.91235352 380.68920898 C27.40503375 380.69056016 25.89771441 380.69250443 24.39039612 380.69500732 C21.24964195 380.69793645 18.10900244 380.69373227 14.96826172 380.68432617 C10.96861123 380.67292303 6.96922901 380.67951062 2.96958828 380.6914711 C-0.13703894 380.69874144 -3.24360386 380.69637835 -6.35023308 380.69121552 C-7.82403534 380.6898938 -9.29784351 380.69147409 -10.77163887 380.69617462 C-34.28059416 380.75473515 -34.28059416 380.75473515 -42.92749023 372.92358398 C-49.66571119 365.78899709 -50.72932316 357.65252659 -50.49501038 348.17713928 C-50.48331249 347.18324029 -50.47161461 346.1893413 -50.45956224 345.16532415 C-50.41752972 341.8539923 -50.35398069 338.54341643 -50.29101562 335.23242188 C-50.257444 332.84968841 -50.22559781 330.46693011 -50.19534302 328.08415222 C-50.12921251 322.9588333 -50.05602432 317.83367834 -49.97892952 312.70851326 C-49.85977643 304.5811032 -49.79247936 296.45360547 -49.73643494 288.32554626 C-49.73161217 287.63965023 -49.7267894 286.95375419 -49.72182048 286.24707342 C-49.69221121 282.02991713 -49.66358203 277.81275459 -49.63522939 273.59558968 C-49.59147125 267.08714445 -49.54646117 260.57871412 -49.49658203 254.0703125 C-49.49105607 253.34653085 -49.48553011 252.6227492 -49.47983669 251.87703478 C-49.38803965 240.18940758 -49.21303099 228.50435595 -49.00947947 216.81820673 C-48.8019118 204.77407315 -48.69573669 192.73187338 -48.67791742 180.6859588 C-48.66493283 173.93912927 -48.60338599 167.20048743 -48.42875862 160.45567513 C-46.35293616 129.08372386 -46.35293616 129.08372386 -58.67819566 101.62192219 C-62.94172908 97.20820518 -67.67658616 93.4603616 -72.68127376 89.92548972 C-81.68253356 83.49001758 -87.08362085 73.17767553 -89.27124023 62.42358398 C-90.35373527 50.64035934 -87.84453859 41.15590947 -80.44970703 31.94628906 C-76.65471582 27.55161864 -72.58651448 23.4433027 -68.46582031 19.35742188 C-66.96435323 17.86665697 -65.47386399 16.36551767 -63.98413086 14.86303711 C-46.10477882 -3.04545212 -24.03454829 -17.46379163 0 0 Z " fill="#FFFFFF" transform="translate(1492.271240234375,1596.576416015625)"/>
<path d="M0 0 C0.89847656 -0.020625 1.79695312 -0.04125 2.72265625 -0.0625 C7.6941592 -0.09187372 11.08188873 0.00896343 15.125 3.25 C16.68832654 4.81332654 16.25437792 6.32887358 16.25922108 8.5032711 C16.26367892 9.42651188 16.26813676 10.34975266 16.27272969 11.30097044 C16.27254533 12.32711253 16.27236097 13.35325463 16.27217102 14.41049194 C16.27584771 15.49137105 16.2795244 16.57225015 16.2833125 17.68588316 C16.29439902 21.33795674 16.29820153 24.99000192 16.30200195 28.64208984 C16.30826277 31.24817496 16.31490922 33.85425918 16.32191467 36.46034241 C16.34170107 44.30279093 16.35174784 52.14524078 16.36064246 59.98770803 C16.36502163 63.67723738 16.37038938 67.36676528 16.37563133 71.05629349 C16.39264545 83.31480041 16.40714096 95.57330643 16.41438007 107.83182335 C16.41629009 111.01483537 16.41821041 114.19784738 16.42016602 117.38085938 C16.42064976 118.17201986 16.4211335 118.96318034 16.4216319 119.77831538 C16.42993715 132.60262494 16.45528157 145.42684137 16.48774669 158.25111024 C16.52077747 171.40563263 16.5388252 184.56010763 16.54202431 197.71467173 C16.54419307 205.10532504 16.55299489 212.49584254 16.57848549 219.88645554 C16.60239627 226.83523834 16.60604327 233.78377244 16.59572411 240.73258781 C16.59522601 243.28885269 16.60162619 245.84512919 16.61528015 248.40135765 C16.63282618 251.87971797 16.62597801 255.3571818 16.61274719 258.83554077 C16.62371644 259.85722143 16.63468568 260.87890208 16.64598733 261.93154275 C16.63740644 262.85999903 16.62882555 263.7884553 16.61998463 264.74504662 C16.62096144 265.54837248 16.62193824 266.35169835 16.62294465 267.17936742 C16.125 269.25 16.125 269.25 14.23456639 270.989308 C11.89801862 272.3856457 10.08367509 272.89074784 7.40625 273.34765625 C6.48513428 273.50838623 5.56401855 273.66911621 4.61499023 273.8347168 C3.62829346 273.99238525 2.64159668 274.15005371 1.625 274.3125 C0.07631226 274.56737183 0.07631226 274.56737183 -1.50366211 274.82739258 C-16.4025762 277.21007496 -31.17328396 278.3714167 -46.25 278.9375 C-47.48564697 278.98608154 -48.72129395 279.03466309 -49.99438477 279.0847168 C-72.94171551 279.80378529 -95.83556226 276.44917312 -113.93359375 261.1328125 C-132.53131599 243.09638972 -138.69954859 217.64335252 -139.23622131 192.48748779 C-139.28692723 187.77846973 -139.29105678 183.07102065 -139.26611328 178.36181641 C-139.25002297 174.75514924 -139.2660528 171.14960229 -139.28515625 167.54296875 C-139.31084836 139.78764424 -136.19813956 111.63246982 -115.6953125 90.91015625 C-102.46117055 78.4275376 -84.36501065 72.11404342 -66.265625 72.08203125 C-65.54506424 72.07793243 -64.82450348 72.07383362 -64.08210754 72.0696106 C-61.76302253 72.0600988 -59.44410159 72.06007457 -57.125 72.0625 C-56.33898407 72.06210724 -55.55296814 72.06171448 -54.74313354 72.06130981 C-29.16141173 72.07668836 -29.16141173 72.07668836 -16.875 75.25 C-16.88388245 74.38191711 -16.89276489 73.51383423 -16.9019165 72.6194458 C-16.98206476 64.43857027 -17.04296554 56.2578266 -17.08224869 48.07664871 C-17.10312361 43.87059023 -17.131439 39.66485615 -17.17675781 35.45898438 C-17.22021976 31.4000403 -17.24413782 27.34140826 -17.25450897 23.28224945 C-17.2618998 21.73366127 -17.27633252 20.18509017 -17.29792023 18.63663483 C-17.32696048 16.46734216 -17.33095599 14.29933859 -17.32910156 12.12988281 C-17.33798401 10.89522278 -17.34686646 9.66056274 -17.35601807 8.38848877 C-16.782201 4.64451623 -15.859432 3.50652587 -12.875 1.25 C-8.59317238 -0.17727587 -4.48554564 0.02552231 0 0 Z M-94.125 114.4375 C-104.61822235 127.69209666 -106.0249588 145.33649639 -106.04296875 161.57421875 C-106.04629715 162.63808304 -106.04962555 163.70194733 -106.05305481 164.79804993 C-106.05809338 167.03943452 -106.06046409 169.28082654 -106.06030273 171.5222168 C-106.06248239 174.91012263 -106.08065259 178.29769877 -106.09960938 181.68554688 C-106.15213151 201.56462478 -106.1885172 223.01474159 -91.83984375 238.4375 C-83.21919566 246.7084569 -73.74750981 249.41593322 -62.00390625 249.3828125 C-60.86573708 249.38424759 -60.86573708 249.38424759 -59.70457458 249.38571167 C-58.09837766 249.38639066 -56.49217795 249.38455598 -54.88598633 249.38037109 C-52.4766591 249.3750859 -50.06752407 249.3802906 -47.65820312 249.38671875 C-32.03733647 249.89281813 -32.03733647 249.89281813 -16.875 247.25 C-16.875 199.73 -16.875 152.21 -16.875 103.25 C-29.38325319 101.56460169 -29.38325319 101.56460169 -41.85546875 100.9140625 C-42.60105545 100.9074057 -43.34664215 100.9007489 -44.11482239 100.89389038 C-45.65945027 100.8839507 -47.20411947 100.87906738 -48.7487793 100.87939453 C-51.07217739 100.87498162 -53.39372661 100.83835638 -55.71679688 100.80078125 C-70.29892274 100.69094219 -83.72217842 103.42894451 -94.125 114.4375 Z " fill="#FFFFFF" transform="translate(1002.875,2087.75)"/>
<path d="M0 0 C6.24769746 4.99052856 11.70293311 10.89693414 17.28149414 16.609375 C19.20480184 18.56805276 21.13036314 20.52443685 23.05882263 22.4780426 C24.24991812 23.68576601 25.43789717 24.89657513 26.6219635 26.1111908 C29.50114094 29.04136531 32.43725674 31.83130442 35.55273438 34.51000977 C40.32975232 38.63780206 44.74770892 43.09372173 49.18774414 47.578125 C50.50736145 48.90342224 50.50736145 48.90342224 51.8536377 50.25549316 C55.11556359 53.5315982 58.37291978 56.8122248 61.62994385 60.09320068 C64.83386674 63.32018038 68.0416853 66.5432558 71.25024414 69.765625 C72.08068237 70.60436157 72.91112061 71.44309814 73.76672363 72.30725098 C77.3212976 75.87660488 80.88443649 79.37370726 84.70532227 82.65820312 C89.51564414 86.79537261 93.94403983 91.29097303 98.40649414 95.796875 C99.75940552 97.15546631 99.75940552 97.15546631 101.13964844 98.54150391 C104.48504858 101.90108806 107.82587806 105.26518762 111.16638184 108.62963867 C114.45191214 111.93821851 117.74133205 115.24289981 121.03149414 118.546875 C121.88380615 119.40748535 122.73611816 120.2680957 123.61425781 121.15478516 C127.91424706 125.47221426 132.28182948 129.6247084 136.90301514 133.59634399 C141.33864152 137.44466321 145.49288244 141.60167891 149.67407227 145.72192383 C150.78472216 146.81097775 151.90159165 147.89372578 153.0246582 148.9699707 C161.66383797 157.25444423 169.96411683 166.27136877 170.92211914 178.8359375 C171.11258174 190.86682476 168.48147053 199.16614407 160.09008789 207.859375 C152.5608242 214.84709073 143.75096855 217.51704753 133.65649414 217.3828125 C121.28578188 216.49449008 112.47226706 209.43041221 104.12133789 200.83203125 C103.44277237 200.14684921 102.76420685 199.46166718 102.06507874 198.75572205 C99.92154712 196.58903345 97.78852253 194.41237835 95.65649414 192.234375 C93.51917535 190.06172863 91.37962057 187.89135332 89.23719788 185.72373962 C87.9125838 184.38245085 86.59108398 183.03807593 85.27342224 181.68995667 C82.2315826 178.59953503 79.14717777 175.63329109 75.85791016 172.80639648 C71.01014211 168.62323973 66.53512762 164.09435707 62.03149414 159.546875 C61.12955322 158.64114746 60.2276123 157.73541992 59.29833984 156.80224609 C55.9529397 153.44266194 52.61211022 150.07856238 49.27160645 146.71411133 C45.98607614 143.40553149 42.69665624 140.10085019 39.40649414 136.796875 C38.55418213 135.93626465 37.70187012 135.0756543 36.82373047 134.18896484 C32.59296384 129.94103911 28.29069806 125.88063441 23.74536133 121.97338867 C19.7426876 118.41486706 16.01709597 114.57011794 12.25024414 110.765625 C10.93062683 109.44032776 10.93062683 109.44032776 9.58435059 108.08825684 C6.32242469 104.8121518 3.0650685 101.5315252 -0.19195557 98.25054932 C-3.39587846 95.02356962 -6.60369702 91.8004942 -9.81225586 88.578125 C-10.64269409 87.73938843 -11.47313232 86.90065186 -12.32873535 86.03649902 C-16.58821807 81.75930535 -20.92050065 77.65029799 -25.49761963 73.71481323 C-29.47136438 70.27683519 -33.20887952 66.58628933 -36.9543457 62.90356445 C-37.91949624 61.96000239 -38.89085948 61.02275226 -39.8684082 60.09204102 C-49.52713925 50.88854369 -55.41461742 42.04870326 -56.59350586 28.609375 C-56.40115354 18.5685841 -52.41419255 9.16381047 -45.28100586 2.171875 C-32.06295094 -9.19715144 -14.22109632 -9.78987441 0 0 Z " fill="#FFFFFF" transform="translate(715.281005859375,104.828125)"/>
<path d="M0 0 C6.33594628 5.77487977 10.44574396 13.92467377 11.109375 22.46484375 C11.41533773 36.87729862 7.60894342 44.13100431 -2.12890625 54.3984375 C-5.35476355 57.74102167 -8.62544235 61.03564412 -11.9140625 64.31640625 C-12.81458847 65.21788895 -13.71511444 66.11937164 -14.64292908 67.048172 C-16.53165229 68.93757065 -18.42132675 70.82595166 -20.31274414 72.71264648 C-22.71522571 75.10941539 -25.11316506 77.51067074 -27.50980473 79.91327953 C-29.82961202 82.2376023 -32.15326164 84.55807631 -34.4765625 86.87890625 C-35.32573746 87.73010544 -36.17491241 88.58130463 -37.04981995 89.45829773 C-40.65911563 93.05356873 -44.27725349 96.58286469 -48.14038086 99.90551758 C-52.86304401 103.9701514 -57.2157121 108.37895579 -61.59765625 112.8046875 C-62.47740112 113.68821899 -63.357146 114.57175049 -64.2635498 115.48205566 C-67.05445131 118.28508883 -69.84219857 121.09123666 -72.62890625 123.8984375 C-76.30289363 127.599443 -79.98056227 131.29675572 -83.66015625 134.9921875 C-84.49059448 135.83092407 -85.32103271 136.66966064 -86.17663574 137.53381348 C-89.73120971 141.10316738 -93.2943486 144.60026976 -97.11523438 147.88476562 C-101.92555625 152.02193511 -106.35395194 156.51753553 -110.81640625 161.0234375 C-111.71834717 161.92916504 -112.62028809 162.83489258 -113.54956055 163.76806641 C-116.41179189 166.64243319 -119.27086427 169.5199069 -122.12890625 172.3984375 C-125.89664958 176.19319088 -129.6680617 179.98425131 -133.44140625 183.7734375 C-134.29371826 184.63404785 -135.14603027 185.4946582 -136.02416992 186.38134766 C-140.37404604 190.74886596 -144.78533394 194.96204415 -149.47839355 198.96028137 C-151.672238 200.87186366 -153.64436696 202.96019061 -155.62890625 205.0859375 C-159.47515364 208.97183692 -163.01974722 211.48382511 -168.12890625 213.3984375 C-169.76859375 214.0171875 -169.76859375 214.0171875 -171.44140625 214.6484375 C-181.96077172 216.78796946 -191.62404821 215.37284341 -200.81640625 209.7734375 C-208.79037418 204.0716976 -213.87179773 196.41289177 -215.59375 186.8046875 C-216.76993526 177.39520541 -215.46082118 168.38107586 -210.12890625 160.3984375 C-205.77681118 154.85940741 -200.8051202 150.04856402 -195.58203125 145.33984375 C-186.00073253 136.59201436 -176.95291918 127.29232816 -167.81640625 118.0859375 C-164.28161319 114.52437778 -160.74339145 110.96627442 -157.203125 107.41015625 C-156.41024582 106.60897873 -155.61736664 105.80780121 -154.80046082 104.98234558 C-151.3429442 101.50976703 -147.8696429 98.11906046 -144.15356445 94.9230957 C-139.41883205 90.84740361 -135.05362535 86.42955932 -130.66015625 81.9921875 C-129.78041138 81.10865601 -128.9006665 80.22512451 -127.9942627 79.31481934 C-125.20336119 76.51178617 -122.41561393 73.70563834 -119.62890625 70.8984375 C-115.95491887 67.197432 -112.27725023 63.50011928 -108.59765625 59.8046875 C-107.76721802 58.96595093 -106.93677979 58.12721436 -106.08117676 57.26306152 C-102.52558888 53.6926895 -98.96175401 50.19569199 -95.13818359 46.91210938 C-90.34009352 42.78558808 -85.94587304 38.28396719 -81.51171875 33.7734375 C-79.66956565 31.91377041 -77.82710836 30.05440462 -75.984375 28.1953125 C-73.1149768 25.2962446 -70.24868332 22.39417742 -67.38818359 19.48632812 C-64.60431752 16.65711939 -61.80804031 13.84033706 -59.01171875 11.0234375 C-58.16972931 10.16282715 -57.32773987 9.3022168 -56.4602356 8.41552734 C-40.06886519 -8.04537619 -20.3058995 -15.27599779 0 0 Z " fill="#FFFFFF" transform="translate(1425.12890625,106.6015625)"/>
<path d="M0 0 C17.7935494 15.13988034 26.14101237 35.05914283 28.29199219 58.1081543 C28.66488658 63.82447692 28.71285015 69.54241508 28.72851562 75.26879883 C28.73834251 77.44324322 28.76952198 79.61678688 28.80078125 81.79101562 C28.8073026 83.18749449 28.81255647 84.58397997 28.81640625 85.98046875 C28.82575195 87.23126221 28.83509766 88.48205566 28.84472656 89.77075195 C28.46057776 93.37727778 27.66357406 95.24780019 25.48828125 98.1171875 C22.99469358 99.36398134 21.33074535 99.2402607 18.54025269 99.23744202 C17.49414825 99.23881668 16.44804382 99.24019135 15.37023926 99.24160767 C14.21793823 99.23801239 13.06563721 99.23441711 11.87841797 99.23071289 C10.66868317 99.23085892 9.45894836 99.23100494 8.21255493 99.2311554 C4.89044104 99.23057706 1.56838888 99.22555305 -1.75371408 99.21858144 C-5.22373683 99.21234088 -8.69376035 99.21174354 -12.16378784 99.21055603 C-18.73693273 99.20744479 -25.31006104 99.19923419 -31.88319862 99.18920654 C-39.36556709 99.17803898 -46.84793634 99.17253333 -54.33031106 99.16751111 C-69.72412324 99.15705141 -85.11791886 99.13945597 -100.51171875 99.1171875 C-100.39087481 102.26222114 -100.25522415 105.40645901 -100.1171875 108.55078125 C-100.08363159 109.42875366 -100.05007568 110.30672607 -100.01550293 111.21130371 C-99.34490048 125.96796167 -96.28478479 141.00988078 -85.19921875 151.5546875 C-75.80917917 159.24602645 -65.00209683 161.44066983 -53.10546875 161.3828125 C-52.23072403 161.38549637 -51.35597931 161.38818024 -50.45472717 161.39094543 C-47.64023709 161.39485495 -44.82616641 161.38230494 -42.01171875 161.3671875 C-41.05240448 161.3650827 -40.09309021 161.36297791 -39.10470581 161.36080933 C-23.10467114 161.31952517 -7.26117952 160.72053178 8.62939453 158.72216797 C10.2166333 158.54451904 10.2166333 158.54451904 11.8359375 158.36328125 C12.79636963 158.24525146 13.75680176 158.12722168 14.74633789 158.00561523 C18.18189076 158.14541113 19.8418116 158.94007163 22.48828125 161.1171875 C23.11938477 163.23022461 23.11938477 163.23022461 23.1171875 165.64453125 C23.11912109 166.51916016 23.12105469 167.39378906 23.12304688 168.29492188 C23.09919922 169.20564453 23.07535156 170.11636719 23.05078125 171.0546875 C23.06173828 171.96154297 23.07269531 172.86839844 23.08398438 173.80273438 C23.04265016 177.54761436 22.93578287 180.30250506 21.1171875 183.61328125 C16.93970287 186.00307558 12.58252822 186.53370782 7.86328125 187.2421875 C6.8256665 187.40759033 5.78805176 187.57299316 4.71899414 187.7434082 C1.64487159 188.22299309 -1.43203745 188.67487363 -4.51171875 189.1171875 C-5.2888623 189.23336426 -6.06600586 189.34954102 -6.86669922 189.46923828 C-38.72305386 194.12125397 -76.71752973 196.46978278 -104.4140625 177.0859375 C-122.39225118 163.07824042 -130.62384561 143.61194122 -133.49169922 121.49682617 C-137.3404919 86.68717595 -139.74977731 41.47619734 -117.27734375 12.20703125 C-115.11045104 9.73004872 -112.87554404 7.40583813 -110.51171875 5.1171875 C-109.86460938 4.47265625 -109.2175 3.828125 -108.55078125 3.1640625 C-81.58198583 -22.15358218 -28.69392746 -22.53004675 0 0 Z M-89.82421875 28.6796875 C-99.87594979 42.18352819 -100.51171875 56.74152488 -100.51171875 73.1171875 C-69.16171875 73.1171875 -37.81171875 73.1171875 -5.51171875 73.1171875 C-5.51171875 55.5744286 -6.09675936 39.59223397 -17.546875 25.63671875 C-28.71742109 14.83109068 -42.71623954 13.62296411 -57.4453125 13.83984375 C-69.85174851 14.30309726 -81.63033428 19.24754811 -89.82421875 28.6796875 Z " fill="#FFFFFF" transform="translate(1195.51171875,2174.8828125)"/>
<path d="M0 0 C8.27314889 5.82800015 12.83094995 12.49284985 16 22 C16.10241801 24.75312712 16.14780689 27.48121473 16.14717102 30.23464966 C16.15084771 31.08432528 16.1545244 31.93400091 16.1583125 32.80942428 C16.1693589 35.66738917 16.17319482 38.52531772 16.17700195 41.38330078 C16.18326594 43.42822892 16.18991269 45.47315592 16.19691467 47.51808167 C16.21433171 53.08237648 16.22487864 58.6466627 16.2331202 64.21097803 C16.23826952 67.68739503 16.24434533 71.16380935 16.25063133 74.64022446 C16.26968652 85.51704029 16.28391622 96.39384932 16.2922433 107.27067864 C16.30201391 119.82591073 16.32832758 132.38096643 16.36874419 144.93613636 C16.39890946 154.63986807 16.41371262 164.34354924 16.41702431 174.04732692 C16.41937456 179.8430233 16.42833178 185.63853132 16.45348549 191.4341774 C16.47677784 196.88921316 16.4809946 202.3439367 16.47072411 207.79900932 C16.4702289 209.79803824 16.47654473 211.79708259 16.49028015 213.79606438 C16.50802447 216.53223096 16.50088046 219.26728013 16.48774719 222.00344849 C16.49871644 222.78839475 16.50968568 223.57334101 16.52098733 224.38207352 C16.41669167 233.42615595 12.16102756 241.49593082 6 248 C-1.9542959 254.74817426 -10.88850399 257.6326529 -21.26953125 257.28125 C-31.65881286 256.2111094 -38.61638649 251.70359 -45.75 244.3125 C-54.22140708 233.79133477 -53.57600786 221.91954719 -53.51757812 209.10742188 C-53.52300565 207.10396314 -53.53013184 205.10050841 -53.53881836 203.09706116 C-53.5569795 197.68175695 -53.55001397 192.2667592 -53.53730202 186.85144997 C-53.52713693 181.16979809 -53.53657742 175.48817152 -53.54284668 169.80651855 C-53.55011287 160.26728633 -53.54056234 150.7281782 -53.52148438 141.18896484 C-53.4997177 130.17858735 -53.50676979 119.1685062 -53.52879 108.15813589 C-53.54697327 98.68518341 -53.549488 89.21231987 -53.53903532 79.73935556 C-53.5328165 74.09017998 -53.53192036 68.44114344 -53.54518127 62.79197693 C-53.55678176 57.47959539 -53.54863742 52.16759393 -53.52560425 46.85525322 C-53.52033955 44.91190152 -53.52179231 42.96851753 -53.53065491 41.02517891 C-53.58555514 27.75839326 -52.9357151 16.66035812 -44.05859375 6.0078125 C-32.48274583 -5.28248319 -14.18936655 -8.01256467 0 0 Z " fill="#FFFFFF" transform="translate(1066,4)"/>
<path d="M0 0 C1.26416748 0.00902344 2.52833496 0.01804687 3.83081055 0.02734375 C24.31066357 0.40415316 43.70391931 5.78598436 58.75 20.4375 C76.95032686 39.39115164 81.12125121 63.59925726 81.17553711 88.86108398 C81.18762428 91.52741518 81.23714129 94.19156339 81.28710938 96.85742188 C81.29655603 98.56248887 81.30379944 100.26756983 81.30859375 101.97265625 C81.33789223 103.16013206 81.33789223 103.16013206 81.36778259 104.37159729 C81.33948147 107.81066452 81.15427886 109.93832348 78.95944214 112.64836121 C74.02820993 115.3973308 69.35381467 114.96157549 63.79956055 114.89160156 C62.58938766 114.89218567 61.37921478 114.89276978 60.13237 114.89337158 C56.82246069 114.89106554 53.51355463 114.87103438 50.20382285 114.84307575 C46.74185386 114.81803636 43.27987089 114.81571812 39.81782532 114.81097412 C33.26590943 114.79855172 26.71426116 114.76574035 20.16246301 114.72557616 C12.70182554 114.68083532 5.24117515 114.65886564 -2.21956313 114.63879442 C-17.56319696 114.59700685 -32.90656394 114.52666943 -48.25 114.4375 C-47.96410931 118.27292075 -47.66484269 122.10718833 -47.36328125 125.94140625 C-47.28307739 127.01958618 -47.20287354 128.09776611 -47.12023926 129.20861816 C-45.98064652 143.48480496 -42.53985047 156.90835068 -32.25 167.4375 C-20.1647778 177.51834389 -4.23962235 177.03041038 10.5625 176.8125 C12.48323095 176.79810218 14.40396688 176.78435379 16.32470703 176.77124023 C30.94983943 176.63148153 45.41519437 175.78589433 59.95654297 174.19628906 C61.82406704 173.99509542 63.69322974 173.80926541 65.5625 173.625 C66.49707031 173.51542969 67.43164062 173.40585938 68.39453125 173.29296875 C71.45282343 173.48062515 72.54306879 174.34312942 74.75 176.4375 C75.26757812 178.65820312 75.26757812 178.65820312 75.28125 181.21875 C75.28898437 182.60513672 75.28898437 182.60513672 75.296875 184.01953125 C75.28140625 184.98246094 75.2659375 185.94539063 75.25 186.9375 C75.27320313 188.38189453 75.27320313 188.38189453 75.296875 189.85546875 C75.29171875 190.77972656 75.2865625 191.70398437 75.28125 192.65625 C75.27673828 193.50123047 75.27222656 194.34621094 75.26757812 195.21679688 C74.75 197.4375 74.75 197.4375 73.00024414 199.16772461 C70.66075869 200.48785739 68.85058732 201.06486705 66.21484375 201.53515625 C64.89323242 201.77625122 64.89323242 201.77625122 63.54492188 202.0222168 C62.60197266 202.17988525 61.65902344 202.33755371 60.6875 202.5 C59.20540039 202.75487183 59.20540039 202.75487183 57.69335938 203.01489258 C22.38217331 208.91993437 -18.48729067 213.19267322 -50.25 193.4375 C-53.9057653 190.69926011 -57.09524811 187.73324639 -60.25 184.4375 C-60.87003906 183.84839844 -61.49007813 183.25929688 -62.12890625 182.65234375 C-77.90441526 166.59449901 -81.35979965 141.41381154 -81.48828125 120.015625 C-81.496353 118.72041931 -81.50442474 117.42521362 -81.51274109 116.09075928 C-81.52769915 113.35070943 -81.53756531 110.61068473 -81.54516602 107.87060547 C-81.55395884 105.10312428 -81.57468461 102.33615621 -81.60668945 99.56884766 C-81.93683218 70.37099368 -79.55657108 43.25167927 -59.0625 20.6875 C-42.93559176 5.71517411 -21.60208758 -0.18638808 0 0 Z M-36.65625 43.3359375 C-46.8153004 56.73194024 -48.25 72.19493951 -48.25 88.4375 C-16.57 88.4375 15.11 88.4375 47.75 88.4375 C47.75 71.2198233 46.19398302 54.12411237 34.375 40.75 C15.22814781 23.88253497 -18.85042338 24.27026466 -36.65625 43.3359375 Z " fill="#FFFFFF" transform="translate(1714.25,2159.5625)"/>
<path d="M0 0 C1.14082031 -0.01998047 2.28164062 -0.03996094 3.45703125 -0.06054688 C5.10251953 -0.05958008 5.10251953 -0.05958008 6.78125 -0.05859375 C8.28268555 -0.06137329 8.28268555 -0.06137329 9.81445312 -0.06420898 C13.46255798 0.61732333 14.35909117 1.37448431 16.5 4.4375 C17.85307874 7.93849031 18.78499848 11.52704943 19.73046875 15.15625 C20.03437531 16.27746246 20.33828186 17.39867493 20.65139771 18.55386353 C21.4972657 21.68402703 22.33098901 24.81714874 23.16019058 27.95175934 C24.05170597 31.30902606 24.95949066 34.66188467 25.8659668 38.01513672 C27.49429969 44.04561983 29.11393235 50.07838826 30.72949219 56.11230469 C35.20762518 72.82947885 39.74628545 89.53034993 44.28131962 106.23215866 C45.96065833 112.41821988 47.63536362 118.60551062 49.30606842 124.79390907 C50.36367496 128.70920335 51.42410949 132.62372817 52.48513412 136.53809738 C52.97958385 138.3646535 53.47285012 140.19153047 53.96481705 142.01875687 C56.88733104 157.8282147 56.88733104 157.8282147 63.5 171.4375 C66.17058851 171.57865161 68.82432238 171.47997107 71.5 171.4375 C71.77101028 170.41752426 72.04202057 169.39754852 72.32124329 168.34666443 C78.68399953 144.40049768 85.05117759 120.45551097 91.42424011 96.51208496 C94.36403658 85.4669665 97.30188409 74.42133655 100.23546696 63.37456608 C102.01675601 56.66776859 103.80111473 49.96179315 105.58814144 43.25652218 C106.61247704 39.41264155 107.63530924 35.56837569 108.65444946 31.72311401 C109.60043559 28.15401953 110.55042707 24.58601666 111.50364304 21.01884651 C112.0103675 19.11835756 112.51278152 17.21672095 113.01504517 15.31504822 C113.31550751 14.19385086 113.61596985 13.0726535 113.92553711 11.91748047 C114.18322372 10.9485788 114.44091034 9.97967712 114.70640564 8.98141479 C116.5394922 3.10534479 116.5394922 3.10534479 119.26757812 1.20849609 C123.9709448 -0.4158731 129.0770509 0.06806265 134 0.0625 C135.14082031 0.03800781 136.28164062 0.01351562 137.45703125 -0.01171875 C138.55402344 -0.01558594 139.65101563 -0.01945312 140.78125 -0.0234375 C142.28268555 -0.03576416 142.28268555 -0.03576416 143.81445312 -0.04833984 C146.5 0.4375 146.5 0.4375 148.91992188 1.90380859 C151.28916623 5.70294609 150.25029972 9.2176344 149.5 13.4375 C148.62067416 17.21206303 147.56155335 20.92439335 146.47851562 24.64501953 C146.16691687 25.73719599 145.85531811 26.82937244 145.53427696 27.95464516 C144.49849177 31.57854778 143.45238851 35.19938635 142.40625 38.8203125 C141.66758919 41.39697669 140.92951188 43.97380129 140.19216919 46.55084229 C138.41754768 52.74826893 136.63533754 58.94348704 134.85034215 65.13793278 C132.79188409 72.2823144 130.74057704 79.42874237 128.68981004 86.57533479 C126.00536059 95.92988176 123.31933668 105.28397365 120.62850952 114.63668823 C115.94970234 130.89985328 111.28723641 147.16749446 106.65120697 163.44292068 C104.93775083 169.45598127 103.22058427 175.46798314 101.50326157 181.47994041 C100.19384071 186.06476301 98.88638831 190.65012555 97.58374023 195.23687744 C96.38009083 199.4743958 95.17013247 203.71006291 93.95541 207.94441986 C93.5240932 209.45195825 93.09496496 210.96012525 92.66846085 212.46903229 C80.56285071 255.27463079 80.56285071 255.27463079 62.75 266.8125 C43.83914772 277.2267447 17.79004672 276.64332172 -3.0625 273.125 C-4.11207886 272.94855957 -4.11207886 272.94855957 -5.18286133 272.76855469 C-9.48354335 271.92471242 -13.34252128 270.59497872 -16.5 267.4375 C-16.77742966 264.32104012 -16.73176472 261.18985077 -16.75 258.0625 C-16.770625 257.1859375 -16.79125 256.309375 -16.8125 255.40625 C-16.81765625 254.56320313 -16.8228125 253.72015625 -16.828125 252.8515625 C-16.8374707 252.0776416 -16.84681641 251.3037207 -16.85644531 250.50634766 C-16.40445907 247.88297 -15.61770311 247.01172725 -13.5 245.4375 C-10.3828125 245.109375 -10.3828125 245.109375 -6.625 245.1875 C-5.6191687 245.20393555 -5.6191687 245.20393555 -4.59301758 245.22070312 C-0.44268768 245.31095968 3.67616244 245.57919305 7.8125 245.9375 C28.5876745 247.96445537 28.5876745 247.96445537 47.65625 241.08203125 C55.46959467 234.11292509 57.80273789 223.1481349 60.5 213.4375 C60.82226562 212.29152344 61.14453125 211.14554688 61.4765625 209.96484375 C62.16827441 207.45981231 62.84467299 204.95225081 63.5 202.4375 C62.79875 202.47230469 62.0975 202.50710937 61.375 202.54296875 C53.96666166 202.75434797 48.24647527 202.56189262 42.40625 197.69140625 C33.49002886 188.62547244 30.78729983 175.61303688 27.33984375 163.71875 C26.95377171 162.40149361 26.56723172 161.08437429 26.18026733 159.76737976 C25.14223235 156.22927598 24.11107015 152.68920421 23.08133316 149.14867783 C22.21206197 146.16325661 21.33864634 143.17905476 20.46517086 140.19486141 C17.4652689 129.94575295 14.48081595 119.69217301 11.5 109.4375 C11.27223373 108.65411003 11.04446747 107.87072006 10.80979919 107.063591 C6.66123324 92.79474516 2.51860654 78.52417975 -1.61157227 64.25 C-1.80701158 63.57485163 -2.00245089 62.89970325 -2.2038126 62.20409584 C-3.16424691 58.88536937 -4.12277146 55.56611376 -5.0773468 52.24569702 C-6.83669047 46.13332686 -8.61493535 40.02822385 -10.45525265 33.93966579 C-11.31834589 31.08143064 -12.1723914 28.22052525 -13.02594948 25.35943031 C-13.43353296 24.0029866 -13.84567726 22.64790371 -14.26270103 21.2943325 C-14.83868861 19.42407639 -15.39785686 17.54866554 -15.95629883 15.6730957 C-16.27931473 14.6106514 -16.60233063 13.54820709 -16.93513489 12.4535675 C-17.56416915 9.09487221 -17.35030919 6.73420823 -16.5 3.4375 C-12.17662885 -1.2480092 -5.89843624 -0.03665695 0 0 Z " fill="#FFFFFF" transform="translate(1969.5,2161.5625)"/>
<path d="M0 0 C1.70542969 -0.04930664 1.70542969 -0.04930664 3.4453125 -0.09960938 C4.54359375 -0.10669922 5.641875 -0.11378906 6.7734375 -0.12109375 C7.77552246 -0.13454834 8.77760742 -0.14800293 9.81005859 -0.16186523 C13.71060771 0.66865064 15.04949697 2.43460702 17.625 5.4375 C18.8687439 8.45248413 18.8687439 8.45248413 19.75537109 11.87646484 C19.92444882 12.50973851 20.09352655 13.14301218 20.26772785 13.79547596 C20.82768644 15.90920219 21.36288076 18.02840864 21.8984375 20.1484375 C22.29793874 21.6760436 22.69900796 23.20324036 23.10151672 24.73005676 C23.96624014 28.02336545 24.82009822 31.31923268 25.6656189 34.61752319 C27.00847866 39.8553904 28.37507536 45.08687816 29.74536133 50.31762695 C31.69371349 57.76335181 33.63184648 65.21166837 35.56396484 72.66162109 C39.99511314 89.73922154 44.49428237 106.7989407 48.99949265 123.85712814 C50.53679373 129.67922541 52.06830981 135.50280261 53.59479618 141.32774448 C54.5479616 144.96216546 55.50467057 148.59564725 56.4622097 152.22891808 C56.90745563 153.92145743 57.35119343 155.61439433 57.79332924 157.30774879 C58.3981255 159.62316512 59.00832922 161.93709065 59.61987305 164.25073242 C59.79480474 164.92592611 59.96973644 165.6011198 60.1499691 166.29677391 C61.36478447 171.09473337 61.36478447 171.09473337 63.625 175.4375 C67.18706661 176.25620185 67.18706661 176.25620185 70.625 176.4375 C73.46794302 167.35787274 75.85967968 158.15914518 78.28125 148.9609375 C78.74088512 147.21977669 79.20066145 145.47865316 79.66056824 143.73756409 C80.64053891 140.02652544 81.61948755 136.31521913 82.5977478 132.60372925 C84.1347445 126.7734933 85.67622362 120.94444731 87.21801758 115.11547852 C92.03290495 96.90501916 96.82918683 78.6901309 101.56061935 60.45779419 C102.8587421 55.4600841 104.16249081 50.46383819 105.46636009 45.46762466 C106.68813253 40.78275051 107.89970475 36.09538805 109.10386181 31.40595722 C109.8488812 28.51420817 110.603236 25.62495557 111.36019325 22.73631096 C111.86873822 20.78387565 112.36575881 18.8284498 112.86235046 16.87294006 C115.7145264 6.05364574 115.7145264 6.05364574 119.625 1.4375 C123.72253777 -0.61126888 128.99653757 0.20842201 133.5 0.1875 C134.60214844 0.166875 135.70429687 0.14625 136.83984375 0.125 C137.90074219 0.11984375 138.96164062 0.1146875 140.0546875 0.109375 C141.02647949 0.1000293 141.99827148 0.09068359 142.99951172 0.08105469 C146.26676867 0.52462872 147.53015099 0.84788765 149.625 3.4375 C150.36293808 9.3995922 149.29035409 14.89158998 147.58740234 20.57495117 C147.36870893 21.34009316 147.15001551 22.10523516 146.92469501 22.89356327 C146.19793365 25.42590101 145.45443177 27.95299812 144.7109375 30.48046875 C144.18670749 32.29572274 143.66360797 34.11130354 143.14155579 35.92718506 C141.73327961 40.81543599 140.31096347 45.69949775 138.88607407 50.5829277 C137.40241083 55.67664505 135.9313487 60.77399315 134.46020508 65.87133789 C134.1647218 66.89506217 133.86923853 67.91878645 133.56480122 68.97353268 C132.9640405 71.05495996 132.36332279 73.13639966 131.76264763 75.21785164 C130.85095125 78.37501893 129.93764098 81.53171592 129.02406311 84.68833923 C125.00915995 98.57106607 121.06471663 112.47211574 117.17578125 126.390625 C116.66943371 128.20051699 116.16304582 130.01039769 115.65661621 131.82026672 C113.73967875 138.67425661 111.82355905 145.52845137 109.92230225 152.3868103 C108.82889803 156.33086352 107.7285342 160.27291264 106.62328148 164.21366119 C106.22486707 165.63952091 105.82912313 167.06613035 105.43645668 168.49358368 C98.2567412 194.5849179 98.2567412 194.5849179 89.625 200.4375 C78.51063576 206.24404286 63.93320032 207.14901922 51.9296875 203.65234375 C43.35845862 200.49250265 38.81175675 196.3766804 34.8449707 188.21630859 C32.93078808 183.85624724 31.63329699 179.39794677 30.375 174.8125 C30.08422073 173.78555023 29.79344147 172.75860046 29.49385071 171.70053101 C28.52823048 168.28207352 27.57674462 164.85984412 26.625 161.4375 C25.93485006 158.98490376 25.24365975 156.53260007 24.55151367 154.08056641 C23.24381499 149.44404457 21.93915096 144.80670551 20.63894558 140.16807747 C17.45757813 128.81946149 14.23573334 117.48244928 11.01171875 106.14588928 C10.55940012 104.55535083 10.10708894 102.96481026 9.65478516 101.37426758 C9.31831907 100.19115793 9.31831907 100.19115793 8.97505569 98.98414707 C7.39385841 93.42246288 5.81750909 87.85941981 4.24365234 82.2956543 C3.36436522 79.18795788 2.48497875 76.0802896 1.60546875 72.97265625 C1.28429581 71.83777173 1.28429581 71.83777173 0.95663452 70.67996025 C-1.54580631 61.84127541 -4.06902753 53.00934197 -6.63514709 44.18890381 C-7.89493141 39.85851157 -9.14584389 35.52558104 -10.39614868 31.19244385 C-10.95797017 29.25635948 -11.5247133 27.32169537 -12.09677124 25.38861084 C-12.86580662 22.78978968 -13.61829384 20.18671438 -14.3671875 17.58203125 C-14.70135933 16.47969398 -14.70135933 16.47969398 -15.0422821 15.35508728 C-16.34970338 10.72759947 -16.59340851 7.10733418 -15.375 2.4375 C-10.62534302 -0.72893799 -5.5864351 0.02830964 0 0 Z " fill="#FFFFFF" transform="translate(1451.375,2161.5625)"/>
<path d="M0 0 C0.89396484 -0.01224609 1.78792969 -0.02449219 2.70898438 -0.03710938 C11.16599099 -0.05594458 11.16599099 -0.05594458 15.0625 2.1875 C16.24485681 4.55221362 16.19090498 5.97003224 16.19672108 8.60787773 C16.20117892 9.54294305 16.20563676 10.47800836 16.21022969 11.44140899 C16.21004533 12.47562897 16.20986097 13.50984895 16.20967102 14.57540894 C16.21334771 15.66868755 16.2170244 16.76196617 16.2208125 17.88837445 C16.23188494 21.57646653 16.23569917 25.26453047 16.23950195 28.95263672 C16.24576381 31.58680308 16.25241035 34.22096856 16.25941467 36.85513306 C16.27918803 44.77725901 16.28924578 52.69938625 16.29814246 60.62153071 C16.30252339 64.34978074 16.30789065 68.07802933 16.31313133 71.80627823 C16.33014345 84.19521477 16.34463892 96.58415042 16.35188007 108.97309685 C16.35379004 112.18893307 16.35571037 115.40476928 16.35766602 118.62060547 C16.35814976 119.41990998 16.3586335 120.2192145 16.3591319 121.04274036 C16.36743707 133.99887412 16.39278224 146.9549157 16.42524669 159.91100918 C16.45828596 173.20455956 16.47632594 186.49806304 16.47952431 199.79165471 C16.48169218 207.2588956 16.49048119 214.72600202 16.51598549 222.19320297 C16.53764969 228.5508551 16.54576411 234.90834008 16.53601871 241.26602493 C16.53146159 244.51116157 16.53560547 247.75587957 16.55278015 251.00098419 C16.57034824 254.51615944 16.56346683 258.03044956 16.55024719 261.54562378 C16.56121644 262.57538232 16.57218568 263.60514086 16.58348733 264.6661042 C16.52074294 271.54153639 16.52074294 271.54153639 14.19412518 274.82126045 C11.48668945 276.55655886 9.7685463 276.68978823 6.5625 276.68359375 C5.510625 276.68423828 4.45875 276.68488281 3.375 276.68554688 C2.281875 276.66556641 1.18875 276.64558594 0.0625 276.625 C-1.030625 276.63208984 -2.12375 276.63917969 -3.25 276.64648438 C-12.4326772 276.57333805 -12.4326772 276.57333805 -15.9375 273.1875 C-16.87993391 270.36019828 -17.0643565 268.63626919 -17.06892776 265.70933723 C-17.07276891 264.78683115 -17.07661005 263.86432507 -17.0805676 262.91386425 C-17.07970112 261.89880303 -17.07883463 260.8837418 -17.07794189 259.83792114 C-17.08091302 258.76082787 -17.08388414 257.68373461 -17.0869453 256.57400215 C-17.0956519 252.94662518 -17.09714219 249.31928114 -17.09863281 245.69189453 C-17.10325955 243.09861175 -17.10828401 240.50532964 -17.11367798 237.91204834 C-17.12726309 230.85426584 -17.13328614 223.79648902 -17.13768864 216.73869562 C-17.14045046 212.33296621 -17.14468767 207.927239 -17.14919281 203.52151108 C-17.16138514 191.32640534 -17.1716849 179.13130136 -17.1750679 166.93618965 C-17.17539725 165.76531036 -17.17539725 165.76531036 -17.17573325 164.57077693 C-17.17595153 163.78831226 -17.17616981 163.00584759 -17.1763947 162.19967186 C-17.17683817 160.61407161 -17.17728473 159.02847135 -17.17773438 157.44287109 C-17.1779558 156.65635685 -17.17817723 155.86984261 -17.17840537 155.0594946 C-17.18235461 142.31104658 -17.1998126 129.56265569 -17.2230939 116.81422974 C-17.24679642 103.72969475 -17.25926923 90.64518844 -17.26043582 77.56063163 C-17.26135314 70.21244882 -17.26711983 62.86434046 -17.28525543 55.51617813 C-17.30224793 48.6067889 -17.30391729 41.69754332 -17.29511642 34.78813934 C-17.29434325 32.24884284 -17.29872536 29.7095389 -17.30857468 27.17026138 C-17.32121046 23.71035232 -17.31546272 20.25095107 -17.30499268 16.79104614 C-17.31304908 15.78044636 -17.32110548 14.76984658 -17.32940602 13.72862256 C-17.26830576 5.12689729 -17.26830576 5.12689729 -13.9375 1.1875 C-9.68006527 -0.6089898 -4.55075174 0.00326687 0 0 Z " fill="#FFFFFF" transform="translate(1286.9375,2087.8125)"/>
<path d="M0 0 C1.10251099 -0.02090698 1.10251099 -0.02090698 2.22729492 -0.04223633 C7.35538145 0.00382254 7.35538145 0.00382254 9.57226562 1.58740234 C11.29637543 3.95320669 11.26232824 5.46331656 11.2734375 8.375 C11.27730469 9.344375 11.28117187 10.31375 11.28515625 11.3125 C11.27355469 12.323125 11.26195312 13.33375 11.25 14.375 C11.26160156 15.385625 11.27320313 16.39625 11.28515625 17.4375 C11.28128906 18.406875 11.27742188 19.37625 11.2734375 20.375 C11.27005371 21.261875 11.26666992 22.14875 11.26318359 23.0625 C10.875 25.375 10.875 25.375 9.64770508 27.13916016 C7.40618279 28.70183552 5.82869324 28.89760904 3.11328125 29.1484375 C1.69402344 29.29768677 1.69402344 29.29768677 0.24609375 29.44995117 C-0.76324219 29.54896729 -1.77257813 29.6479834 -2.8125 29.75 C-16.03420895 31.28451582 -27.38087541 34.12532962 -39.09375 40.55078125 C-39.7753418 40.91965454 -40.45693359 41.28852783 -41.15917969 41.6685791 C-42.81677618 42.56644387 -44.47122878 43.47010884 -46.125 44.375 C-46.12554477 45.17529507 -46.12608953 45.97559013 -46.12665081 46.80013657 C-46.14161054 66.26267131 -46.1840245 85.72496834 -46.25709057 105.18737411 C-46.29176089 114.59922636 -46.31709876 124.01093183 -46.32055664 133.42285156 C-46.32359371 141.62519011 -46.3440493 149.82726741 -46.38552457 158.02950501 C-46.40687987 162.37361483 -46.41944233 166.717353 -46.41115379 171.06151581 C-46.40362946 175.14928933 -46.41936945 179.23630884 -46.45306015 183.32394409 C-46.46131312 184.82514473 -46.46102014 186.32642008 -46.45159721 187.82761383 C-46.44001334 189.87561434 -46.46201194 191.92372311 -46.48576355 193.97161865 C-46.48991162 195.69168436 -46.48991162 195.69168436 -46.49414349 197.44649887 C-47.125 200.375 -47.125 200.375 -49.50247669 202.74187088 C-53.98937401 205.53600531 -58.47275295 204.99217428 -63.625 204.9375 C-64.65753906 204.96134766 -65.69007812 204.98519531 -66.75390625 205.00976562 C-68.25244141 205.00686523 -68.25244141 205.00686523 -69.78125 205.00390625 C-70.68681641 205.00463135 -71.59238281 205.00535645 -72.52539062 205.00610352 C-76.3028641 204.08905159 -77.70246118 202.38288449 -80.125 199.375 C-80.61826257 196.55294925 -80.8029949 194.3341403 -80.75991821 191.51831055 C-80.76771817 190.7335242 -80.77551812 189.94873785 -80.78355443 189.1401701 C-80.80347978 186.51354045 -80.7877086 183.88835884 -80.77197266 181.26171875 C-80.77874856 179.37748367 -80.78765154 177.49325521 -80.79852295 175.60903931 C-80.82132603 170.49329532 -80.8124757 165.37805525 -80.79662752 160.2623024 C-80.78397382 154.91012457 -80.79570717 149.55799006 -80.80355835 144.20581055 C-80.81265644 135.21753183 -80.80066274 126.22945848 -80.77685547 117.24121094 C-80.74964397 106.84766144 -80.75845801 96.45460233 -80.7859875 86.06106472 C-80.80867295 77.13947316 -80.81188138 68.21802927 -80.79879415 59.29641819 C-80.79099657 53.96701074 -80.78996658 48.63783383 -80.80647659 43.30844116 C-80.82091381 38.29811 -80.81091315 33.28841143 -80.78200531 28.27814865 C-80.77539051 26.43871486 -80.77729889 24.59922789 -80.78831863 22.75981522 C-80.80197063 20.24971988 -80.78486464 17.74165514 -80.75991821 15.23168945 C-80.77107182 14.50260219 -80.78222543 13.77351492 -80.79371703 13.0223341 C-80.71851824 9.1254384 -80.22294973 7.49632401 -77.74205589 4.42340088 C-74.84475485 2.15564878 -73.62024768 1.74305436 -70 1.74609375 C-69.04609375 1.74416016 -68.0921875 1.74222656 -67.109375 1.74023438 C-66.12453125 1.76408203 -65.1396875 1.78792969 -64.125 1.8125 C-63.14015625 1.80154297 -62.1553125 1.79058594 -61.140625 1.77929688 C-56.76457684 1.82364871 -53.85260079 1.98293891 -49.95703125 4.08203125 C-47.74318435 6.85288014 -47.58235758 8.12683515 -47.8125 11.625 C-47.85761719 12.51703125 -47.90273437 13.4090625 -47.94921875 14.328125 C-48.03623047 15.34132813 -48.03623047 15.34132813 -48.125 16.375 C-47.25359375 15.85550781 -46.3821875 15.33601563 -45.484375 14.80078125 C-31.06056232 6.30718874 -16.99918192 0.21080067 0 0 Z " fill="#FFFFFF" transform="translate(1918.125,2159.625)"/>
<path d="M0 0 C1.54880859 -0.03577148 1.54880859 -0.03577148 3.12890625 -0.07226562 C4.12792969 -0.07033203 5.12695312 -0.06839844 6.15625 -0.06640625 C7.06181641 -0.06713135 7.96738281 -0.06785645 8.90039062 -0.06860352 C12.6778641 0.84844841 14.07746118 2.55461551 16.5 5.5625 C16.99326257 8.38455075 17.1779949 10.6033597 17.13491821 13.41918945 C17.14271817 14.2039758 17.15051812 14.98876215 17.15855443 15.7973299 C17.17847978 18.42395955 17.1627086 21.04914116 17.14697266 23.67578125 C17.15374856 25.56001633 17.16265154 27.44424479 17.17352295 29.32846069 C17.19632603 34.44420468 17.1874757 39.55944475 17.17162752 44.6751976 C17.15897382 50.02737543 17.17070717 55.37950994 17.17855835 60.73168945 C17.18765644 69.71996817 17.17566274 78.70804152 17.15185547 87.69628906 C17.12464397 98.08983856 17.13345801 108.48289767 17.1609875 118.87643528 C17.18367295 127.79802684 17.18688138 136.71947073 17.17379415 145.64108181 C17.16599657 150.97048926 17.16496658 156.29966617 17.18147659 161.62905884 C17.19591381 166.63939 17.18591315 171.64908857 17.15700531 176.65935135 C17.15039051 178.49878514 17.15229889 180.33827211 17.16331863 182.17768478 C17.17697063 184.68778012 17.15986464 187.19584486 17.13491821 189.70581055 C17.14607182 190.43489781 17.15722543 191.16398508 17.16871703 191.9151659 C17.09359621 195.80802097 16.59720456 197.44180839 14.1227932 200.51409912 C11.16121162 202.82709365 9.86065304 203.19437241 6.15625 203.19140625 C5.15722656 203.19333984 4.15820312 203.19527344 3.12890625 203.19726562 C2.09636719 203.17341797 1.06382813 203.14957031 0 203.125 C-1.03253906 203.13595703 -2.06507812 203.14691406 -3.12890625 203.15820312 C-10.61145733 203.08579134 -10.61145733 203.08579134 -14.1227932 201.01785278 C-17.29307915 197.74334994 -17.2000956 195.07039477 -17.13491821 190.7434082 C-17.14271817 189.95060361 -17.15051812 189.15779902 -17.15855443 188.34097004 C-17.17851716 185.68126938 -17.16269392 183.02299282 -17.14697266 180.36328125 C-17.1537469 178.45786706 -17.16264894 176.55245941 -17.17352295 174.64706421 C-17.19634582 169.46934885 -17.18746755 164.2921308 -17.17162752 159.11440659 C-17.15898404 153.70036206 -17.17070431 148.28636062 -17.17855835 142.87231445 C-17.18765943 133.77970724 -17.17565491 124.68730297 -17.15185547 115.59472656 C-17.1246434 105.07677987 -17.13345723 94.55931774 -17.1609875 84.04138279 C-17.18366444 75.01706826 -17.18688555 65.99289975 -17.17379415 56.96856594 C-17.16599188 51.57601921 -17.16497941 46.18370038 -17.18147659 40.79116821 C-17.19590145 35.72176005 -17.18593582 30.65297767 -17.15700531 25.58363724 C-17.15038389 23.72120835 -17.15231014 21.85872694 -17.16331863 19.99631882 C-17.1769445 17.45736131 -17.1598963 14.92042011 -17.13491821 12.3815918 C-17.14607182 11.64112767 -17.15722543 10.90066355 -17.16871703 10.13776112 C-17.09659223 6.36922857 -16.78662166 4.85854378 -14.1227932 2.10714722 C-9.6018806 -0.55536353 -5.12436566 -0.05437841 0 0 Z " fill="#FFFFFF" transform="translate(1376.5,2161.4375)"/>
<path d="M0 0 C1.5149707 -0.00386719 1.5149707 -0.00386719 3.06054688 -0.0078125 C4.64125977 0.00378906 4.64125977 0.00378906 6.25390625 0.015625 C7.30384766 0.00789063 8.35378906 0.00015625 9.43554688 -0.0078125 C10.44681641 -0.00523437 11.45808594 -0.00265625 12.5 0 C13.42353271 0.00225586 14.34706543 0.00451172 15.29858398 0.00683594 C18.01155889 0.28568335 19.5726297 0.72190185 21.81640625 2.265625 C24.3762874 5.71788589 24.12267703 9.57033302 24.1171875 13.69921875 C24.12147263 14.41417007 24.12575775 15.1291214 24.13017273 15.86573792 C24.13590279 17.37442976 24.13642605 18.88314923 24.13208008 20.3918457 C24.12892146 22.69205161 24.15238883 24.99096871 24.17773438 27.29101562 C24.18000776 28.76041505 24.18071068 30.22981792 24.1796875 31.69921875 C24.18889725 32.38269882 24.19810699 33.06617889 24.20759583 33.77037048 C24.16595606 38.09824724 23.45876305 40.81965031 20.81640625 44.265625 C16.6030297 46.37231327 11.07064092 45.4950048 6.44140625 45.515625 C4.71664063 45.5465625 4.71664063 45.5465625 2.95703125 45.578125 C1.85101562 45.58328125 0.745 45.5884375 -0.39453125 45.59375 C-1.91506104 45.60776855 -1.91506104 45.60776855 -3.46630859 45.62207031 C-6.60369125 45.21051787 -7.93912244 44.46563219 -10.18359375 42.265625 C-11.95511699 36.95105529 -11.40919664 31.20814888 -11.42382812 25.64208984 C-11.43352903 23.40554547 -11.46456147 21.16992239 -11.49609375 18.93359375 C-11.50262491 17.50521377 -11.50787494 16.07682724 -11.51171875 14.6484375 C-11.52106445 13.35309082 -11.53041016 12.05774414 -11.54003906 10.72314453 C-11.1584388 7.02162201 -10.43704097 5.19035395 -8.18359375 2.265625 C-4.88297519 0.06521262 -3.83924437 0.00938937 0 0 Z " fill="#FFFFFF" transform="translate(1370.18359375,2085.734375)"/>
</svg>
