<?xml version="1.0" encoding="UTF-8"?>
<svg version="1.1" xmlns="http://www.w3.org/2000/svg" width="256" height="256">
<path d="M0 0 C2.71315565 1.48248244 5.29663763 3.02648316 7.8515625 4.765625 C11.46075809 6.83927192 14.56695163 7.0073398 18.6875 6.9375 C29.54927367 6.83541566 39.30802465 10.62588474 48 17 C48.969375 17.70125 49.93875 18.4025 50.9375 19.125 C59.60137646 26.5836653 64.78142366 37.72816888 66 49 C67.19496094 49.03867188 67.19496094 49.03867188 68.4140625 49.078125 C79.29918209 49.66078347 79.29918209 49.66078347 84 54 C87.21468293 58.21154374 87.50955987 62.04968796 87.4375 67.1875 C87.42920166 67.94345459 87.42090332 68.69940918 87.41235352 69.47827148 C87.13579156 78.6678053 84.35538296 85.54824774 77.96875 92.24609375 C66.4401263 102.51663351 50.55084622 101.42161908 36 102 C36.0250296 111.27346735 36.64642787 117.27205136 41.55859375 125.26171875 C46.1574072 133.99821801 45.31976648 143.72093408 43 153 C42.566875 154.19625 42.13375 155.3925 41.6875 156.625 C40.51039178 162.40353127 42.38797764 167.34173471 45.40234375 172.3125 C49.9844602 178.65517518 53.37389081 181.15404496 61.25 182.4375 C71.14795848 184.22859311 79.25950845 187.72950853 85.4765625 195.953125 C91.41947817 205.05864491 92.00602542 214.4071441 91 225 C89.04872425 234.12542729 82.76390766 241.94443222 75 247 C66.76718226 251.79000305 57.29167319 252.48108872 48 251 C43.5780317 249.53573987 39.87075731 247.57226045 36 245 C34.906875 244.278125 33.81375 243.55625 32.6875 242.8125 C30.2100858 240.21985723 28.69269462 237.93341218 26.875 234.875 C24.17127456 230.42635925 21.1407119 226.98232205 17.25 223.5625 C4.86304272 212.65221066 -6.09959125 200.17205256 -13 185 C-13 184.34 -13 183.68 -13 183 C-14.5430909 183.00333092 -14.5430909 183.00333092 -16.11735535 183.00672913 C-25.81373543 183.0270038 -35.51011121 183.04199302 -45.20650768 183.05181217 C-50.1914731 183.05702999 -55.17642139 183.06410769 -60.16137695 183.07543945 C-64.97242209 183.0863074 -69.78345076 183.09228514 -74.59450722 183.09487724 C-76.42970349 183.09672443 -78.26489886 183.10033151 -80.10008812 183.10573006 C-82.67115601 183.1129923 -85.24215592 183.11398875 -87.81323242 183.11352539 C-88.9504348 183.1189183 -88.9504348 183.1189183 -90.11061096 183.12442017 C-93.86758788 183.11709709 -97.34748443 182.90545566 -101 182 C-101.103125 182.7425 -101.20625 183.485 -101.3125 184.25 C-102.04253504 187.17014018 -103.06789398 188.73187554 -105 191 C-103.86916888 193.28351405 -102.71203695 195.5484283 -101.52734375 197.8046875 C-101.00269531 198.81789062 -100.47804688 199.83109375 -99.9375 200.875 C-99.41027344 201.88304687 -98.88304688 202.89109375 -98.33984375 203.9296875 C-94.38424177 212.99412818 -95.66705645 221.71140481 -98.6796875 230.8125 C-102.13405886 239.15204743 -108.02368082 244.88362547 -116 249 C-124.39351415 252.45475618 -135.97054195 252.55091559 -144.5625 249.4375 C-151.15315911 246.27128898 -156.9521146 241.0718281 -161 235 C-161.556875 234.17048828 -161.556875 234.17048828 -162.125 233.32421875 C-166.67648424 225.18527992 -166.40670567 214.06797891 -164.33984375 205.15234375 C-163.07897117 202.05747469 -161.61950774 199.6248012 -159.25708008 197.2421875 C-152.93678632 190.69406823 -153.08210221 183.91565624 -153.20947266 175.34399414 C-153.22284668 174.59110107 -153.2362207 173.83820801 -153.25 173.0625 C-153.27500291 170.07401174 -153.27970756 167.08621272 -153.265625 164.09765625 C-153.26261383 163.38575638 -153.25960266 162.67385651 -153.25650024 161.94038391 C-153.08620308 151.8811496 -150.22111427 144.4129831 -143.25 137.125 C-142.5075 136.42375 -141.765 135.7225 -141 135 C-142.14959889 131.95835294 -143.44792716 129.02813225 -144.875 126.109375 C-145.22046875 125.39910156 -145.5659375 124.68882812 -145.921875 123.95703125 C-146.6344691 122.49827883 -147.35312509 121.04247037 -148.078125 119.58984375 C-150.28476344 115.02012608 -151.65170616 110.77839006 -152.48339844 105.76489258 C-152.73911621 104.89127075 -152.73911621 104.89127075 -153 104 C-155.29534258 102.86454438 -155.29534258 102.86454438 -158 102 C-164.04682801 95.40081751 -165.3779348 90.16625677 -165.26953125 81.296875 C-164.81024245 75.67890764 -163.21748567 72.03455426 -159.05859375 68.21875 C-152.27420525 62.92117961 -146.51839774 62.24232803 -138 63 C-131.81553169 64.70252362 -127.4662825 68.69018509 -124 74 C-122.24071984 77.63186989 -121.75036668 80.47827933 -121.8125 84.5 C-121.81894531 85.4178125 -121.82539062 86.335625 -121.83203125 87.28125 C-122 90 -122 90 -122.765625 92.4921875 C-123.26123966 95.16221798 -123.26123966 95.16221798 -121.40234375 97.7265625 C-114.73033649 105.57225091 -107.49015522 112.14657695 -99 118 C-98.44932861 118.39574219 -97.89865723 118.79148437 -97.33129883 119.19921875 C-92.55191348 122.33189047 -88.66342277 122.47224931 -83.0625 122 C-81.81569458 121.91032959 -81.81569458 121.91032959 -80.54370117 121.81884766 C-61.35604274 120.18982772 -44.57625171 113.14230395 -29 102 C-22.55833112 97.46372575 -22.55833112 97.46372575 -18 98 C-17.30959426 96.34302621 -16.6469365 94.6744239 -16 93 C-15.73832031 92.37609375 -15.47664062 91.7521875 -15.20703125 91.109375 C-14.75786588 88.85798635 -14.75786588 88.85798635 -16.4765625 86.84375 C-17.18554688 86.0703125 -17.89453125 85.296875 -18.625 84.5 C-25.97284494 75.80097516 -29.44241233 66.15761944 -28.625 54.8125 C-28.55873122 48.30343361 -30.40003532 45.06059973 -34.11328125 39.87109375 C-40.22703821 30.56755055 -43.31080138 18.4265803 -41.58984375 7.36328125 C-40.07125163 1.86179481 -37.71543382 -0.85637745 -33 -4 C-21.96523424 -7.67825525 -10.24786801 -4.46969158 0 0 Z M-30 5.875 C-32.907936 10.41864999 -32.85959352 13.74459894 -32 19 C-28.6201798 31.86416146 -21.87032321 46.06617111 -10.01171875 53.1953125 C-6.07021615 54.77191354 -2.95514957 54.4861065 1 53 C7.57589365 48.20994549 15.2141899 41.85397063 18 34 C18.28575946 28.66582343 16.39056623 25.14627179 13.1171875 21.11328125 C3.72432863 11.73775238 -9.60054587 4.32739074 -23 3.625 C-26.23918644 3.69861787 -27.09053006 4.05658129 -30 5.875 Z M22 17 C22.66 18.0725 23.32 19.145 24 20.25 C26.97990065 26.25237131 27.14170296 32.75074793 25.41015625 39.1953125 C20.79290017 49.70648534 11.13301388 57.50937619 1.0625 62.4375 C-6.14188067 63.76075359 -12.54475152 62.22762424 -19 59 C-17.87861096 69.55021121 -13.27198481 77.57523651 -5.1875 84.4375 C9.87272215 95.62378373 27.74660171 93.41998087 45.4375 92.1875 C46.53868164 92.11748779 47.63986328 92.04747559 48.77441406 91.9753418 C58.67902491 91.22251331 67.1682567 89.66714669 74 82 C76.96951577 77.05080705 78.14835961 72.66513578 78.3125 66.9375 C78.34988281 66.08027344 78.38726562 65.22304687 78.42578125 64.33984375 C78.20128387 61.88103622 78.20128387 61.88103622 76.2890625 60.22265625 C73.7037491 58.8417636 71.97557036 58.60772525 69.0625 58.5 C64.96884367 58.20414578 62.28350891 57.64799105 59 55 C58.67 54.34 58.34 53.68 58 53 C57.44957031 53.15855469 56.89914063 53.31710938 56.33203125 53.48046875 C50.70671088 54.73368083 44.30819379 55.09440984 39.0625 52.4375 C34.59971109 48.88548434 32.40836213 45.89642415 31.62109375 40.3125 C31.3671507 34.28340048 32.04391731 30.77057031 36 26 C36.69232515 24.67980755 37.36443213 23.34843454 38 22 C32.63809899 19.38592128 27.96564796 17.50771472 22 17 Z M42.9375 31.6875 C40.74608772 34.30305659 40.08292655 35.60001162 40 39 C41.259753 41.85101994 42.35882201 43.5298028 44.875 45.375 C47.67402218 46.19824182 49.26760157 46.0066731 52 45 C53.35758565 43.22791588 53.35758565 43.22791588 54 41 C53.49074354 38.90276722 53.49074354 38.90276722 52.3125 36.9375 C51.95800781 36.26589844 51.60351562 35.59429687 51.23828125 34.90234375 C49.98206823 32.97245183 48.75660273 31.48778226 47 30 C44.81383982 29.78892074 44.81383982 29.78892074 42.9375 31.6875 Z M-153 76 C-155.70328624 80.01132797 -156.7011114 83.192379 -156 88 C-153.5433369 92.81883915 -151.17090974 95.30951028 -146 97 C-141.44268172 97.29546464 -138.74543135 96.58338106 -135.125 93.75 C-132.28295878 90.07206431 -130.96269252 87.75345153 -131.0625 83.0625 C-132.53530306 78.25134334 -135.1146482 75.01165218 -139.5625 72.625 C-144.99462898 71.23214642 -148.72818515 72.65684055 -153 76 Z M-6 95 C-8.2773501 97.81509993 -8.2773501 97.81509993 -8 101 C-3.33818932 102.57039005 1.32490957 104.13687008 5.98925781 105.69970703 C7.57653441 106.23215614 9.16345069 106.76568065 10.75 107.30029297 C13.02771108 108.06759689 15.30668093 108.83105112 17.5859375 109.59375 C18.65320572 109.95466736 18.65320572 109.95466736 19.74203491 110.32287598 C23.29348889 111.57091837 23.29348889 111.57091837 27 112 C27 108.7 27 105.4 27 102 C26.04480469 101.96261719 25.08960938 101.92523438 24.10546875 101.88671875 C13.33057204 101.33884265 3.85461001 99.598818 -6 95 Z M-136.5625 104 C-137.57441406 104.37125 -138.58632812 104.7425 -139.62890625 105.125 C-140.41136719 105.41375 -141.19382813 105.7025 -142 106 C-141.33499563 110.97264464 -139.28969295 115.18934123 -137.1875 119.6875 C-136.67219727 120.84475586 -136.67219727 120.84475586 -136.14648438 122.02539062 C-135.80294922 122.76337891 -135.45941406 123.50136719 -135.10546875 124.26171875 C-134.79762451 124.93162842 -134.48978027 125.60153809 -134.17260742 126.29174805 C-132.68820719 128.4542191 -131.46487051 129.14242806 -129 130 C-126.40075893 129.52081031 -124.07021138 128.95966919 -121.5625 128.1875 C-113.26422257 125.76410925 -113.26422257 125.76410925 -109 125 C-110.47363633 121.33604082 -112.3953188 119.73234335 -115.5625 117.4375 C-120.6190191 113.54956599 -124.39549017 109.15627282 -128.28515625 104.125 C-128.85105469 103.42375 -129.41695312 102.7225 -130 102 C-132.20658094 102 -134.53090363 103.25274616 -136.5625 104 Z M-24.5625 111 C-36.76894743 119.59142827 -49.66134148 125.03398807 -64 129 C-64 129.66 -64 130.32 -64 131 C-63.2575 131.680625 -62.515 132.36125 -61.75 133.0625 C-56.13208388 138.61639429 -54.72739094 144.66700281 -54.5 152.4375 C-54.67257103 159.04829785 -55.95585623 164.16724277 -59 170 C-59.66 171.32 -60.32 172.64 -61 174 C-46.48 174 -31.96 174 -17 174 C-17.66 171.36 -18.32 168.72 -19 166 C-20.27723399 156.37036811 -19.88369645 147.04967261 -14 139 C-8.57987186 132.60702835 -2.07534507 128.5116995 6.33203125 127.6640625 C18.63512508 127.52598064 25.24324275 130.50570686 34 139 C35.11080412 135.66758764 34.92172556 134.85332199 33.875 131.625 C33.64554687 130.87476563 33.41609375 130.12453125 33.1796875 129.3515625 C30.10971458 123.2319476 25.84343912 121.23401044 19.59820557 119.14653015 C18.64282898 118.84422989 17.68745239 118.54192963 16.703125 118.23046875 C15.21906158 117.74166985 15.21906158 117.74166985 13.70501709 117.24299622 C10.55777527 116.21030264 7.40414843 115.19887671 4.25 114.1875 C2.11283929 113.48898095 -0.02388515 112.78912562 -2.16015625 112.08789062 C-6.04920718 110.81646717 -9.9393729 109.54887385 -13.83496094 108.29760742 C-15.00813873 107.92051888 -15.00813873 107.92051888 -16.20501709 107.53581238 C-19.93070823 106.42367286 -21.49839328 108.77429303 -24.5625 111 Z M-124.875 137.9375 C-125.6179834 138.17807129 -126.3609668 138.41864258 -127.12646484 138.66650391 C-133.39292431 140.84595335 -137.3566983 143.48143093 -140.79296875 149.3046875 C-143.96423273 156.0642584 -143.548625 162.80149216 -143.3125 170.125 C-143.28735769 171.47652073 -143.26455508 172.82808709 -143.24414062 174.1796875 C-143.18566513 177.454315 -143.10375192 180.72654709 -143 184 C-140.36 183.67 -137.72 183.34 -135 183 C-135.0928125 181.515 -135.0928125 181.515 -135.1875 180 C-135.15692688 174.96562678 -134.02390876 170.18582146 -130.53515625 166.41796875 C-124.79382891 161.54696487 -120.31773347 161.43072795 -113 162 C-107.62157154 163.85800256 -104.53918244 166.92163513 -102 172 C-90.65526843 174.98351707 -80.55266169 175.39108238 -70.3125 169.4375 C-66.09743039 164.99458879 -62.8171819 159.2158142 -62.375 153 C-62.8601224 146.85511632 -65.57918079 141.0986086 -70.23046875 137.06640625 C-85.42889049 126.7275125 -108.48168389 132.59411963 -124.875 137.9375 Z M-6 143 C-10.60526598 150.16233356 -12.06651588 155.77340977 -10.37109375 164.08203125 C-5.82556642 182.24375706 6.27771752 203.51847834 22 214 C22.20625 213.0925 22.4125 212.185 22.625 211.25 C25.40262304 201.75978796 29.69434665 193.6155632 38 188 C39.3192579 187.30589567 40.64914193 186.63040043 42 186 C40.69787309 183.28173507 39.24376229 180.81082433 37.5625 178.3125 C33.35961154 171.56315558 31.97734541 165.31974012 31.125 157.4375 C30.21839707 150.13349739 28.80490332 145.36424637 23.24609375 140.44921875 C13.9556929 133.78640602 1.92481978 134.64681159 -6 143 Z M-124 173 C-126.56687367 176.8503105 -125.83288724 178.58569763 -125 183 C-121.7 183.99 -118.4 184.98 -115 186 C-112.29199403 183.96050874 -112.29199403 183.96050874 -110 181 C-110 177.42813335 -110.25407733 175.11888401 -112.25 172.125 C-116.84536097 169.17083938 -119.74587892 169.78066513 -124 173 Z M-150 200 C-154.42979893 205.66029864 -156.54762924 211.57269473 -156.30859375 218.828125 C-155.31353342 225.83133441 -152.2865167 231.78491099 -147.05078125 236.52734375 C-140.90205866 240.94271216 -134.48077293 242.83119699 -127 242 C-119.07960075 240.23991128 -113.68069334 236.8245029 -109.1875 229.9375 C-105.55369163 223.99875169 -105.21186833 217.83953344 -106 211 C-108.72256822 202.46603054 -113.6595856 197.50408523 -121.25 193.125 C-132.16989736 189.84903079 -141.87470544 192.05937122 -150 200 Z M36.18359375 202.19921875 C31.78047896 208.89834719 30.96855553 215.14900518 32 223 C34.31937705 230.88812293 39.0057853 235.85662238 46 240 C52.91335428 242.7895991 59.11781649 242.88918372 66.0625 240.4375 C73.07200644 237.34728748 77.34728748 233.07200644 80.4375 226.0625 C82.78693407 219.36863827 82.83881269 213.60636248 80.02734375 207.01171875 C76.61134301 200.32259182 72.73673265 195.92544955 65.7734375 192.8515625 C54.46888839 189.38058827 43.33777383 192.73462357 36.18359375 202.19921875 Z " fill="#267D12" transform="translate(165,5)"/>
</svg>
