<svg xmlns="http://www.w3.org/2000/svg" xmlns:xlink="http://www.w3.org/1999/xlink" width="1208" zoomAndPan="magnify" viewBox="0 0 906 458.25" height="611" preserveAspectRatio="xMidYMid meet" version="1.0"><defs><g/></defs><g fill="#ffffff" fill-opacity="1"><g transform="translate(236.955689, 101.663256)"><g><path d="M 4.726562 -48.742188 L 17.453125 -48.742188 L 17.453125 0 L 4.726562 0 Z M 4.726562 -48.742188 "/></g></g></g><g fill="#ffffff" fill-opacity="1"><g transform="translate(254.616225, 101.663256)"><g><path d="M 54.09375 0 L 40.535156 0 L 37.199219 -8.621094 L 16.132812 -8.621094 L 12.722656 0 L -0.347656 0 L 20.582031 -48.742188 L 33.652344 -48.742188 Z M 26.769531 -35.738281 L 19.957031 -18.355469 L 33.445312 -18.355469 Z M 26.769531 -35.738281 "/></g></g></g><g fill="#ffffff" fill-opacity="1"><g transform="translate(303.84368, 101.663256)"><g/></g></g><g fill="#ffffff" fill-opacity="1"><g transform="translate(318.097222, 101.663256)"><g><path d="M 4.726562 0 L 4.726562 -48.742188 L 43.179688 -48.742188 L 43.179688 -38.589844 L 17.453125 -38.589844 L 17.453125 -29.480469 L 40.675781 -29.480469 L 40.675781 -19.398438 L 17.453125 -19.328125 L 17.453125 -10.152344 L 43.875 -10.152344 L 43.875 0 Z M 4.726562 0 "/></g></g></g><g fill="#ffffff" fill-opacity="1"><g transform="translate(360.510676, 101.663256)"><g/></g></g><g fill="#ffffff" fill-opacity="1"><g transform="translate(374.764218, 101.663256)"><g><path d="M 39.980469 -32.191406 C 38.40625 -34.1875 36.527344 -35.773438 34.347656 -36.957031 C 32.167969 -38.136719 30.015625 -38.730469 27.882812 -38.730469 C 25.425781 -38.730469 23.1875 -38.113281 21.171875 -36.886719 C 19.15625 -35.65625 17.566406 -33.964844 16.410156 -31.808594 C 15.25 -29.65625 14.671875 -27.257812 14.671875 -24.613281 C 14.671875 -21.972656 15.25 -19.574219 16.410156 -17.417969 C 17.566406 -15.261719 19.15625 -13.570312 21.171875 -12.339844 C 23.1875 -11.113281 25.425781 -10.5 27.882812 -10.5 C 29.875 -10.5 31.960938 -11.007812 34.140625 -12.027344 C 36.320312 -13.046875 38.265625 -14.4375 39.980469 -16.199219 L 47.421875 -8.203125 C 44.777344 -5.421875 41.636719 -3.210938 38 -1.5625 C 34.359375 0.0820312 30.757812 0.902344 27.1875 0.902344 C 22.367188 0.902344 18.007812 -0.207031 14.113281 -2.433594 C 10.222656 -4.660156 7.160156 -7.695312 4.9375 -11.542969 C 2.710938 -15.390625 1.597656 -19.699219 1.597656 -24.476562 C 1.597656 -29.203125 2.734375 -33.46875 5.007812 -37.269531 C 7.277344 -41.070312 10.394531 -44.058594 14.359375 -46.238281 C 18.320312 -48.417969 22.761719 -49.507812 27.671875 -49.507812 C 31.289062 -49.507812 34.859375 -48.753906 38.382812 -47.246094 C 41.902344 -45.738281 44.894531 -43.6875 47.351562 -41.09375 Z M 39.980469 -32.191406 "/></g></g></g><g fill="#ffffff" fill-opacity="1"><g transform="translate(418.359697, 101.663256)"><g><path d="M 4.726562 -48.742188 L 17.453125 -48.742188 L 17.453125 0 L 4.726562 0 Z M 4.726562 -48.742188 "/></g></g></g><g fill="#ffffff" fill-opacity="1"><g transform="translate(436.020246, 101.663256)"><g><path d="M 25.726562 -48.742188 C 30.824219 -48.742188 35.332031 -47.722656 39.25 -45.683594 C 43.167969 -43.640625 46.214844 -40.78125 48.394531 -37.09375 C 50.574219 -33.410156 51.660156 -29.179688 51.660156 -24.40625 C 51.660156 -19.632812 50.5625 -15.390625 48.359375 -11.679688 C 46.15625 -7.972656 43.050781 -5.097656 39.042969 -3.058594 C 35.03125 -1.019531 30.429688 0 25.238281 0 L 4.726562 0 L 4.726562 -48.742188 Z M 26.074219 -10.289062 C 28.53125 -10.289062 30.710938 -10.871094 32.609375 -12.027344 C 34.511719 -13.1875 35.992188 -14.832031 37.058594 -16.964844 C 38.125 -19.097656 38.660156 -21.53125 38.660156 -24.265625 C 38.660156 -27.046875 38.089844 -29.503906 36.957031 -31.636719 C 35.820312 -33.769531 34.253906 -35.425781 32.261719 -36.609375 C 30.269531 -37.789062 27.996094 -38.382812 25.449219 -38.382812 L 17.453125 -38.382812 L 17.453125 -10.289062 Z M 26.074219 -10.289062 "/></g></g></g><g fill="#ffffff" fill-opacity="1"><g transform="translate(483.439872, 101.663256)"><g><path d="M 54.09375 0 L 40.535156 0 L 37.199219 -8.621094 L 16.132812 -8.621094 L 12.722656 0 L -0.347656 0 L 20.582031 -48.742188 L 33.652344 -48.742188 Z M 26.769531 -35.738281 L 19.957031 -18.355469 L 33.445312 -18.355469 Z M 26.769531 -35.738281 "/></g></g></g><g fill="#ffffff" fill-opacity="1"><g transform="translate(532.667338, 101.663256)"><g><path d="M 25.726562 -48.742188 C 30.824219 -48.742188 35.332031 -47.722656 39.25 -45.683594 C 43.167969 -43.640625 46.214844 -40.78125 48.394531 -37.09375 C 50.574219 -33.410156 51.660156 -29.179688 51.660156 -24.40625 C 51.660156 -19.632812 50.5625 -15.390625 48.359375 -11.679688 C 46.15625 -7.972656 43.050781 -5.097656 39.042969 -3.058594 C 35.03125 -1.019531 30.429688 0 25.238281 0 L 4.726562 0 L 4.726562 -48.742188 Z M 26.074219 -10.289062 C 28.53125 -10.289062 30.710938 -10.871094 32.609375 -12.027344 C 34.511719 -13.1875 35.992188 -14.832031 37.058594 -16.964844 C 38.125 -19.097656 38.660156 -21.53125 38.660156 -24.265625 C 38.660156 -27.046875 38.089844 -29.503906 36.957031 -31.636719 C 35.820312 -33.769531 34.253906 -35.425781 32.261719 -36.609375 C 30.269531 -37.789062 27.996094 -38.382812 25.449219 -38.382812 L 17.453125 -38.382812 L 17.453125 -10.289062 Z M 26.074219 -10.289062 "/></g></g></g><g fill="#ffffff" fill-opacity="1"><g transform="translate(581.408083, 101.663256)"><g><path d="M 4.726562 0 L 4.726562 -48.742188 L 43.179688 -48.742188 L 43.179688 -38.589844 L 17.453125 -38.589844 L 17.453125 -29.480469 L 40.675781 -29.480469 L 40.675781 -19.398438 L 17.453125 -19.328125 L 17.453125 -10.152344 L 43.875 -10.152344 L 43.875 0 Z M 4.726562 0 "/></g></g></g><g fill="#ffffff" fill-opacity="1"><g transform="translate(623.821559, 101.663256)"><g><path d="M 38.3125 -34.070312 C 35.714844 -35.601562 32.945312 -36.851562 30.003906 -37.824219 C 27.058594 -38.796875 24.589844 -39.285156 22.597656 -39.285156 C 21.023438 -39.285156 19.78125 -38.996094 18.878906 -38.414062 C 17.972656 -37.835938 17.523438 -36.992188 17.523438 -35.878906 C 17.523438 -34.8125 17.914062 -33.917969 18.703125 -33.199219 C 19.492188 -32.484375 20.464844 -31.902344 21.625 -31.460938 C 22.78125 -31.023438 24.5 -30.453125 26.769531 -29.757812 C 30.152344 -28.785156 32.945312 -27.8125 35.148438 -26.839844 C 37.351562 -25.867188 39.238281 -24.371094 40.816406 -22.355469 C 42.390625 -20.335938 43.179688 -17.707031 43.179688 -14.460938 C 43.179688 -11.21875 42.320312 -8.449219 40.605469 -6.152344 C 38.890625 -3.859375 36.539062 -2.132812 33.546875 -0.972656 C 30.558594 0.183594 27.234375 0.765625 23.570312 0.765625 C 19.539062 0.765625 15.515625 0.0585938 11.507812 -1.355469 C 7.496094 -2.769531 4.03125 -4.703125 1.113281 -7.160156 L 6.050781 -17.105469 C 8.507812 -14.925781 11.414062 -13.140625 14.773438 -11.75 C 18.136719 -10.359375 21.113281 -9.664062 23.710938 -9.664062 C 25.609375 -9.664062 27.105469 -10.011719 28.195312 -10.707031 C 29.285156 -11.402344 29.828125 -12.421875 29.828125 -13.765625 C 29.828125 -14.878906 29.421875 -15.808594 28.613281 -16.546875 C 27.800781 -17.289062 26.78125 -17.882812 25.550781 -18.320312 C 24.324219 -18.761719 22.597656 -19.285156 20.371094 -19.886719 C 17.035156 -20.8125 14.277344 -21.75 12.097656 -22.703125 C 9.917969 -23.652344 8.054688 -25.089844 6.5 -27.011719 C 4.949219 -28.9375 4.171875 -31.496094 4.171875 -34.695312 C 4.171875 -37.710938 4.972656 -40.351562 6.570312 -42.621094 C 8.167969 -44.894531 10.441406 -46.644531 13.382812 -47.871094 C 16.328125 -49.101562 19.746094 -49.714844 23.640625 -49.714844 C 27.164062 -49.714844 30.640625 -49.214844 34.070312 -48.21875 C 37.5 -47.222656 40.511719 -45.890625 43.109375 -44.222656 Z M 38.3125 -34.070312 "/></g></g></g><g fill="#ffffff" fill-opacity="1"><g transform="translate(88.300552, 160.067665)"><g><path d="M 4.726562 -48.742188 L 17.453125 -48.742188 L 17.453125 0 L 4.726562 0 Z M 4.726562 -48.742188 "/></g></g></g><g fill="#ffffff" fill-opacity="1"><g transform="translate(105.961089, 160.067665)"><g><path d="M 38.101562 -19.398438 L 38.035156 -48.742188 L 49.855469 -48.742188 L 49.855469 0 L 38.730469 0 L 16.617188 -29.132812 L 16.617188 0 L 4.726562 0 L 4.726562 -48.742188 L 15.921875 -48.742188 Z M 38.101562 -19.398438 "/></g></g></g><g fill="#ffffff" fill-opacity="1"><g transform="translate(156.09244, 160.067665)"><g><path d="M 0.488281 -38.242188 L 0.488281 -48.742188 L 42.273438 -48.742188 L 42.273438 -38.242188 L 27.671875 -38.242188 L 27.671875 0 L 14.949219 0 L 14.949219 -38.242188 Z M 0.488281 -38.242188 "/></g></g></g><g fill="#ffffff" fill-opacity="1"><g transform="translate(194.264526, 160.067665)"><g><path d="M 4.726562 0 L 4.726562 -48.742188 L 43.179688 -48.742188 L 43.179688 -38.589844 L 17.453125 -38.589844 L 17.453125 -29.480469 L 40.675781 -29.480469 L 40.675781 -19.398438 L 17.453125 -19.328125 L 17.453125 -10.152344 L 43.875 -10.152344 L 43.875 0 Z M 4.726562 0 "/></g></g></g><g fill="#ffffff" fill-opacity="1"><g transform="translate(236.677979, 160.067665)"><g><path d="M 4.726562 0 L 4.726562 -48.742188 L 17.453125 -48.742188 L 17.453125 -10.847656 L 38.101562 -10.847656 L 38.101562 0 Z M 4.726562 0 "/></g></g></g><g fill="#ffffff" fill-opacity="1"><g transform="translate(271.304, 160.067665)"><g><path d="M 4.726562 -48.742188 L 17.453125 -48.742188 L 17.453125 0 L 4.726562 0 Z M 4.726562 -48.742188 "/></g></g></g><g fill="#ffffff" fill-opacity="1"><g transform="translate(288.964525, 160.067665)"><g><path d="M 36.992188 -24.890625 L 47.976562 -24.890625 L 47.976562 -5.492188 C 45.378906 -3.59375 42.195312 -2.050781 38.414062 -0.867188 C 34.636719 0.3125 31.058594 0.902344 27.671875 0.902344 C 22.761719 0.902344 18.320312 -0.195312 14.359375 -2.398438 C 10.394531 -4.601562 7.277344 -7.625 5.007812 -11.472656 C 2.734375 -15.320312 1.597656 -19.632812 1.597656 -24.40625 C 1.597656 -29.132812 2.769531 -33.410156 5.109375 -37.234375 C 7.453125 -41.058594 10.671875 -44.058594 14.773438 -46.238281 C 18.878906 -48.417969 23.457031 -49.507812 28.507812 -49.507812 C 32.125 -49.507812 35.738281 -48.84375 39.355469 -47.523438 C 42.96875 -46.203125 46.03125 -44.429688 48.53125 -42.207031 L 41.300781 -33.304688 C 39.539062 -34.972656 37.511719 -36.296875 35.21875 -37.269531 C 32.921875 -38.242188 30.664062 -38.730469 28.4375 -38.730469 C 25.84375 -38.730469 23.5 -38.101562 21.414062 -36.851562 C 19.328125 -35.601562 17.683594 -33.886719 16.480469 -31.707031 C 15.273438 -29.527344 14.671875 -27.09375 14.671875 -24.40625 C 14.671875 -21.671875 15.273438 -19.203125 16.480469 -17 C 17.683594 -14.796875 19.351562 -13.070312 21.484375 -11.820312 C 23.617188 -10.570312 25.980469 -9.941406 28.578125 -9.941406 C 31.035156 -9.941406 33.839844 -10.730469 36.992188 -12.308594 Z M 36.992188 -24.890625 "/></g></g></g><g fill="#ffffff" fill-opacity="1"><g transform="translate(336.106057, 160.067665)"><g><path d="M 4.726562 0 L 4.726562 -48.742188 L 43.179688 -48.742188 L 43.179688 -38.589844 L 17.453125 -38.589844 L 17.453125 -29.480469 L 40.675781 -29.480469 L 40.675781 -19.398438 L 17.453125 -19.328125 L 17.453125 -10.152344 L 43.875 -10.152344 L 43.875 0 Z M 4.726562 0 "/></g></g></g><g fill="#ffffff" fill-opacity="1"><g transform="translate(378.519534, 160.067665)"><g><path d="M 38.101562 -19.398438 L 38.035156 -48.742188 L 49.855469 -48.742188 L 49.855469 0 L 38.730469 0 L 16.617188 -29.132812 L 16.617188 0 L 4.726562 0 L 4.726562 -48.742188 L 15.921875 -48.742188 Z M 38.101562 -19.398438 "/></g></g></g><g fill="#ffffff" fill-opacity="1"><g transform="translate(428.650863, 160.067665)"><g><path d="M 0.488281 -38.242188 L 0.488281 -48.742188 L 42.273438 -48.742188 L 42.273438 -38.242188 L 27.671875 -38.242188 L 27.671875 0 L 14.949219 0 L 14.949219 -38.242188 Z M 0.488281 -38.242188 "/></g></g></g><g fill="#ffffff" fill-opacity="1"><g transform="translate(466.82296, 160.067665)"><g><path d="M 4.726562 0 L 4.726562 -48.742188 L 43.179688 -48.742188 L 43.179688 -38.589844 L 17.453125 -38.589844 L 17.453125 -29.480469 L 40.675781 -29.480469 L 40.675781 -19.398438 L 17.453125 -19.328125 L 17.453125 -10.152344 L 43.875 -10.152344 L 43.875 0 Z M 4.726562 0 "/></g></g></g><g fill="#ffffff" fill-opacity="1"><g transform="translate(509.236391, 160.067665)"><g><path d="M 38.3125 -34.070312 C 35.714844 -35.601562 32.945312 -36.851562 30.003906 -37.824219 C 27.058594 -38.796875 24.589844 -39.285156 22.597656 -39.285156 C 21.023438 -39.285156 19.78125 -38.996094 18.878906 -38.414062 C 17.972656 -37.835938 17.523438 -36.992188 17.523438 -35.878906 C 17.523438 -34.8125 17.914062 -33.917969 18.703125 -33.199219 C 19.492188 -32.484375 20.464844 -31.902344 21.625 -31.460938 C 22.78125 -31.023438 24.5 -30.453125 26.769531 -29.757812 C 30.152344 -28.785156 32.945312 -27.8125 35.148438 -26.839844 C 37.351562 -25.867188 39.238281 -24.371094 40.816406 -22.355469 C 42.390625 -20.335938 43.179688 -17.707031 43.179688 -14.460938 C 43.179688 -11.21875 42.320312 -8.449219 40.605469 -6.152344 C 38.890625 -3.859375 36.539062 -2.132812 33.546875 -0.972656 C 30.558594 0.183594 27.234375 0.765625 23.570312 0.765625 C 19.539062 0.765625 15.515625 0.0585938 11.507812 -1.355469 C 7.496094 -2.769531 4.03125 -4.703125 1.113281 -7.160156 L 6.050781 -17.105469 C 8.507812 -14.925781 11.414062 -13.140625 14.773438 -11.75 C 18.136719 -10.359375 21.113281 -9.664062 23.710938 -9.664062 C 25.609375 -9.664062 27.105469 -10.011719 28.195312 -10.707031 C 29.285156 -11.402344 29.828125 -12.421875 29.828125 -13.765625 C 29.828125 -14.878906 29.421875 -15.808594 28.613281 -16.546875 C 27.800781 -17.289062 26.78125 -17.882812 25.550781 -18.320312 C 24.324219 -18.761719 22.597656 -19.285156 20.371094 -19.886719 C 17.035156 -20.8125 14.277344 -21.75 12.097656 -22.703125 C 9.917969 -23.652344 8.054688 -25.089844 6.5 -27.011719 C 4.949219 -28.9375 4.171875 -31.496094 4.171875 -34.695312 C 4.171875 -37.710938 4.972656 -40.351562 6.570312 -42.621094 C 8.167969 -44.894531 10.441406 -46.644531 13.382812 -47.871094 C 16.328125 -49.101562 19.746094 -49.714844 23.640625 -49.714844 C 27.164062 -49.714844 30.640625 -49.214844 34.070312 -48.21875 C 37.5 -47.222656 40.511719 -45.890625 43.109375 -44.222656 Z M 38.3125 -34.070312 "/></g></g></g><g fill="#ffffff" fill-opacity="1"><g transform="translate(549.633469, 160.067665)"><g/></g></g><g fill="#ffffff" fill-opacity="1"><g transform="translate(563.887011, 160.067665)"><g><path d="M 26.144531 -48.742188 C 32.355469 -48.742188 37.175781 -47.246094 40.605469 -44.257812 C 44.035156 -41.265625 45.75 -37.058594 45.75 -31.636719 C 45.75 -25.890625 44.035156 -21.425781 40.605469 -18.25 C 37.175781 -15.078125 32.355469 -13.488281 26.144531 -13.488281 L 17.453125 -13.488281 L 17.453125 0 L 4.726562 0 L 4.726562 -48.742188 Z M 25.519531 -23.640625 C 28.113281 -23.640625 30.117188 -24.289062 31.53125 -25.585938 C 32.945312 -26.886719 33.652344 -28.761719 33.652344 -31.21875 C 33.652344 -33.582031 32.945312 -35.402344 31.53125 -36.675781 C 30.117188 -37.953125 28.113281 -38.589844 25.519531 -38.589844 L 17.453125 -38.589844 L 17.453125 -23.640625 Z M 25.519531 -23.640625 "/></g></g></g><g fill="#ffffff" fill-opacity="1"><g transform="translate(602.962993, 160.067665)"><g><path d="M 54.09375 0 L 40.535156 0 L 37.199219 -8.621094 L 16.132812 -8.621094 L 12.722656 0 L -0.347656 0 L 20.582031 -48.742188 L 33.652344 -48.742188 Z M 26.769531 -35.738281 L 19.957031 -18.355469 L 33.445312 -18.355469 Z M 26.769531 -35.738281 "/></g></g></g><g fill="#ffffff" fill-opacity="1"><g transform="translate(652.190436, 160.067665)"><g><path d="M 48.394531 0 L 34 0 L 26.910156 -13.488281 L 17.453125 -13.488281 L 17.453125 0 L 4.726562 0 L 4.726562 -48.742188 L 26.628906 -48.742188 C 33.074219 -48.742188 38.066406 -47.246094 41.613281 -44.257812 C 45.160156 -41.265625 46.933594 -37.058594 46.933594 -31.636719 C 46.933594 -27.976562 46.191406 -24.8125 44.707031 -22.144531 C 43.226562 -19.480469 41.070312 -17.40625 38.242188 -15.921875 Z M 17.453125 -38.589844 L 17.453125 -23.640625 L 26.699219 -23.640625 C 29.296875 -23.640625 31.300781 -24.289062 32.714844 -25.585938 C 34.128906 -26.886719 34.835938 -28.761719 34.835938 -31.21875 C 34.835938 -33.582031 34.128906 -35.402344 32.714844 -36.675781 C 31.300781 -37.953125 29.296875 -38.589844 26.699219 -38.589844 Z M 17.453125 -38.589844 "/></g></g></g><g fill="#ffffff" fill-opacity="1"><g transform="translate(698.010874, 160.067665)"><g><path d="M 54.09375 0 L 40.535156 0 L 37.199219 -8.621094 L 16.132812 -8.621094 L 12.722656 0 L -0.347656 0 L 20.582031 -48.742188 L 33.652344 -48.742188 Z M 26.769531 -35.738281 L 19.957031 -18.355469 L 33.445312 -18.355469 Z M 26.769531 -35.738281 "/></g></g></g><g fill="#ffffff" fill-opacity="1"><g transform="translate(747.238363, 160.067665)"><g/></g></g><g fill="#ffffff" fill-opacity="1"><g transform="translate(761.491859, 160.067665)"><g><path d="M 27.953125 -49.507812 C 32.910156 -49.507812 37.394531 -48.417969 41.40625 -46.238281 C 45.414062 -44.058594 48.566406 -41.070312 50.863281 -37.269531 C 53.15625 -33.46875 54.304688 -29.203125 54.304688 -24.476562 C 54.304688 -19.699219 53.15625 -15.390625 50.863281 -11.542969 C 48.566406 -7.695312 45.414062 -4.660156 41.40625 -2.433594 C 37.394531 -0.207031 32.910156 0.902344 27.953125 0.902344 C 22.992188 0.902344 18.507812 -0.195312 14.496094 -2.398438 C 10.488281 -4.601562 7.335938 -7.636719 5.039062 -11.507812 C 2.746094 -15.378906 1.597656 -19.699219 1.597656 -24.476562 C 1.597656 -29.203125 2.746094 -33.46875 5.039062 -37.269531 C 7.335938 -41.070312 10.488281 -44.058594 14.496094 -46.238281 C 18.507812 -48.417969 22.992188 -49.507812 27.953125 -49.507812 Z M 28.089844 -38.730469 C 25.679688 -38.730469 23.445312 -38.101562 21.378906 -36.851562 C 19.316406 -35.601562 17.683594 -33.875 16.480469 -31.671875 C 15.273438 -29.46875 14.671875 -27.046875 14.671875 -24.40625 C 14.671875 -21.71875 15.285156 -19.273438 16.511719 -17.070312 C 17.742188 -14.867188 19.375 -13.128906 21.414062 -11.855469 C 23.457031 -10.582031 25.679688 -9.941406 28.089844 -9.941406 C 30.5 -9.941406 32.714844 -10.582031 34.730469 -11.855469 C 36.746094 -13.128906 38.335938 -14.867188 39.492188 -17.070312 C 40.652344 -19.273438 41.230469 -21.71875 41.230469 -24.40625 C 41.230469 -27.046875 40.652344 -29.46875 39.492188 -31.671875 C 38.335938 -33.875 36.746094 -35.601562 34.730469 -36.851562 C 32.714844 -38.101562 30.5 -38.730469 28.089844 -38.730469 Z M 28.089844 -38.730469 "/></g></g></g><g fill="#ffffff" fill-opacity="1"><g transform="translate(112.319833, 218.472074)"><g><path d="M 25.726562 -48.742188 C 30.824219 -48.742188 35.332031 -47.722656 39.25 -45.683594 C 43.167969 -43.640625 46.214844 -40.78125 48.394531 -37.09375 C 50.574219 -33.410156 51.660156 -29.179688 51.660156 -24.40625 C 51.660156 -19.632812 50.5625 -15.390625 48.359375 -11.679688 C 46.15625 -7.972656 43.050781 -5.097656 39.042969 -3.058594 C 35.03125 -1.019531 30.429688 0 25.238281 0 L 4.726562 0 L 4.726562 -48.742188 Z M 26.074219 -10.289062 C 28.53125 -10.289062 30.710938 -10.871094 32.609375 -12.027344 C 34.511719 -13.1875 35.992188 -14.832031 37.058594 -16.964844 C 38.125 -19.097656 38.660156 -21.53125 38.660156 -24.265625 C 38.660156 -27.046875 38.089844 -29.503906 36.957031 -31.636719 C 35.820312 -33.769531 34.253906 -35.425781 32.261719 -36.609375 C 30.269531 -37.789062 27.996094 -38.382812 25.449219 -38.382812 L 17.453125 -38.382812 L 17.453125 -10.289062 Z M 26.074219 -10.289062 "/></g></g></g><g fill="#ffffff" fill-opacity="1"><g transform="translate(161.060578, 218.472074)"><g><path d="M 4.726562 0 L 4.726562 -48.742188 L 43.179688 -48.742188 L 43.179688 -38.589844 L 17.453125 -38.589844 L 17.453125 -29.480469 L 40.675781 -29.480469 L 40.675781 -19.398438 L 17.453125 -19.328125 L 17.453125 -10.152344 L 43.875 -10.152344 L 43.875 0 Z M 4.726562 0 "/></g></g></g><g fill="#ffffff" fill-opacity="1"><g transform="translate(203.474032, 218.472074)"><g><path d="M 38.3125 -34.070312 C 35.714844 -35.601562 32.945312 -36.851562 30.003906 -37.824219 C 27.058594 -38.796875 24.589844 -39.285156 22.597656 -39.285156 C 21.023438 -39.285156 19.78125 -38.996094 18.878906 -38.414062 C 17.972656 -37.835938 17.523438 -36.992188 17.523438 -35.878906 C 17.523438 -34.8125 17.914062 -33.917969 18.703125 -33.199219 C 19.492188 -32.484375 20.464844 -31.902344 21.625 -31.460938 C 22.78125 -31.023438 24.5 -30.453125 26.769531 -29.757812 C 30.152344 -28.785156 32.945312 -27.8125 35.148438 -26.839844 C 37.351562 -25.867188 39.238281 -24.371094 40.816406 -22.355469 C 42.390625 -20.335938 43.179688 -17.707031 43.179688 -14.460938 C 43.179688 -11.21875 42.320312 -8.449219 40.605469 -6.152344 C 38.890625 -3.859375 36.539062 -2.132812 33.546875 -0.972656 C 30.558594 0.183594 27.234375 0.765625 23.570312 0.765625 C 19.539062 0.765625 15.515625 0.0585938 11.507812 -1.355469 C 7.496094 -2.769531 4.03125 -4.703125 1.113281 -7.160156 L 6.050781 -17.105469 C 8.507812 -14.925781 11.414062 -13.140625 14.773438 -11.75 C 18.136719 -10.359375 21.113281 -9.664062 23.710938 -9.664062 C 25.609375 -9.664062 27.105469 -10.011719 28.195312 -10.707031 C 29.285156 -11.402344 29.828125 -12.421875 29.828125 -13.765625 C 29.828125 -14.878906 29.421875 -15.808594 28.613281 -16.546875 C 27.800781 -17.289062 26.78125 -17.882812 25.550781 -18.320312 C 24.324219 -18.761719 22.597656 -19.285156 20.371094 -19.886719 C 17.035156 -20.8125 14.277344 -21.75 12.097656 -22.703125 C 9.917969 -23.652344 8.054688 -25.089844 6.5 -27.011719 C 4.949219 -28.9375 4.171875 -31.496094 4.171875 -34.695312 C 4.171875 -37.710938 4.972656 -40.351562 6.570312 -42.621094 C 8.167969 -44.894531 10.441406 -46.644531 13.382812 -47.871094 C 16.328125 -49.101562 19.746094 -49.714844 23.640625 -49.714844 C 27.164062 -49.714844 30.640625 -49.214844 34.070312 -48.21875 C 37.5 -47.222656 40.511719 -45.890625 43.109375 -44.222656 Z M 38.3125 -34.070312 "/></g></g></g><g fill="#ffffff" fill-opacity="1"><g transform="translate(243.871097, 218.472074)"><g><path d="M 4.726562 0 L 4.726562 -48.742188 L 43.179688 -48.742188 L 43.179688 -38.589844 L 17.453125 -38.589844 L 17.453125 -29.480469 L 40.675781 -29.480469 L 40.675781 -19.398438 L 17.453125 -19.328125 L 17.453125 -10.152344 L 43.875 -10.152344 L 43.875 0 Z M 4.726562 0 "/></g></g></g><g fill="#ffffff" fill-opacity="1"><g transform="translate(286.284551, 218.472074)"><g><path d="M 38.101562 -19.398438 L 38.035156 -48.742188 L 49.855469 -48.742188 L 49.855469 0 L 38.730469 0 L 16.617188 -29.132812 L 16.617188 0 L 4.726562 0 L 4.726562 -48.742188 L 15.921875 -48.742188 Z M 38.101562 -19.398438 "/></g></g></g><g fill="#ffffff" fill-opacity="1"><g transform="translate(336.415914, 218.472074)"><g><path d="M 18.773438 0 L -0.140625 -48.742188 L 13.558594 -48.742188 L 25.726562 -13.488281 L 37.964844 -48.742188 L 51.035156 -48.742188 L 31.984375 0 Z M 18.773438 0 "/></g></g></g><g fill="#ffffff" fill-opacity="1"><g transform="translate(382.027769, 218.472074)"><g><path d="M 27.953125 -49.507812 C 32.910156 -49.507812 37.394531 -48.417969 41.40625 -46.238281 C 45.414062 -44.058594 48.566406 -41.070312 50.863281 -37.269531 C 53.15625 -33.46875 54.304688 -29.203125 54.304688 -24.476562 C 54.304688 -19.699219 53.15625 -15.390625 50.863281 -11.542969 C 48.566406 -7.695312 45.414062 -4.660156 41.40625 -2.433594 C 37.394531 -0.207031 32.910156 0.902344 27.953125 0.902344 C 22.992188 0.902344 18.507812 -0.195312 14.496094 -2.398438 C 10.488281 -4.601562 7.335938 -7.636719 5.039062 -11.507812 C 2.746094 -15.378906 1.597656 -19.699219 1.597656 -24.476562 C 1.597656 -29.203125 2.746094 -33.46875 5.039062 -37.269531 C 7.335938 -41.070312 10.488281 -44.058594 14.496094 -46.238281 C 18.507812 -48.417969 22.992188 -49.507812 27.953125 -49.507812 Z M 28.089844 -38.730469 C 25.679688 -38.730469 23.445312 -38.101562 21.378906 -36.851562 C 19.316406 -35.601562 17.683594 -33.875 16.480469 -31.671875 C 15.273438 -29.46875 14.671875 -27.046875 14.671875 -24.40625 C 14.671875 -21.71875 15.285156 -19.273438 16.511719 -17.070312 C 17.742188 -14.867188 19.375 -13.128906 21.414062 -11.855469 C 23.457031 -10.582031 25.679688 -9.941406 28.089844 -9.941406 C 30.5 -9.941406 32.714844 -10.582031 34.730469 -11.855469 C 36.746094 -13.128906 38.335938 -14.867188 39.492188 -17.070312 C 40.652344 -19.273438 41.230469 -21.71875 41.230469 -24.40625 C 41.230469 -27.046875 40.652344 -29.46875 39.492188 -31.671875 C 38.335938 -33.875 36.746094 -35.601562 34.730469 -36.851562 C 32.714844 -38.101562 30.5 -38.730469 28.089844 -38.730469 Z M 28.089844 -38.730469 "/></g></g></g><g fill="#ffffff" fill-opacity="1"><g transform="translate(433.410681, 218.472074)"><g><path d="M 4.726562 0 L 4.726562 -48.742188 L 17.453125 -48.742188 L 17.453125 -10.847656 L 38.101562 -10.847656 L 38.101562 0 Z M 4.726562 0 "/></g></g></g><g fill="#ffffff" fill-opacity="1"><g transform="translate(468.036702, 218.472074)"><g><path d="M 18.773438 0 L -0.140625 -48.742188 L 13.558594 -48.742188 L 25.726562 -13.488281 L 37.964844 -48.742188 L 51.035156 -48.742188 L 31.984375 0 Z M 18.773438 0 "/></g></g></g><g fill="#ffffff" fill-opacity="1"><g transform="translate(514.413419, 218.472074)"><g><path d="M 4.726562 -48.742188 L 17.453125 -48.742188 L 17.453125 0 L 4.726562 0 Z M 4.726562 -48.742188 "/></g></g></g><g fill="#ffffff" fill-opacity="1"><g transform="translate(532.073921, 218.472074)"><g><path d="M 4.726562 0 L 4.726562 -48.742188 L 18.566406 -48.742188 L 32.679688 -20.234375 L 46.726562 -48.742188 L 60.5625 -48.742188 L 60.5625 0 L 49.296875 0 L 49.226562 -30.871094 L 36.78125 -4.867188 L 28.578125 -4.867188 L 16.0625 -30.871094 L 16.0625 0 Z M 4.726562 0 "/></g></g></g><g fill="#ffffff" fill-opacity="1"><g transform="translate(592.843477, 218.472074)"><g><path d="M 4.726562 0 L 4.726562 -48.742188 L 43.179688 -48.742188 L 43.179688 -38.589844 L 17.453125 -38.589844 L 17.453125 -29.480469 L 40.675781 -29.480469 L 40.675781 -19.398438 L 17.453125 -19.328125 L 17.453125 -10.152344 L 43.875 -10.152344 L 43.875 0 Z M 4.726562 0 "/></g></g></g><g fill="#ffffff" fill-opacity="1"><g transform="translate(635.256954, 218.472074)"><g><path d="M 38.101562 -19.398438 L 38.035156 -48.742188 L 49.855469 -48.742188 L 49.855469 0 L 38.730469 0 L 16.617188 -29.132812 L 16.617188 0 L 4.726562 0 L 4.726562 -48.742188 L 15.921875 -48.742188 Z M 38.101562 -19.398438 "/></g></g></g><g fill="#ffffff" fill-opacity="1"><g transform="translate(685.388283, 218.472074)"><g><path d="M 0.488281 -38.242188 L 0.488281 -48.742188 L 42.273438 -48.742188 L 42.273438 -38.242188 L 27.671875 -38.242188 L 27.671875 0 L 14.949219 0 L 14.949219 -38.242188 Z M 0.488281 -38.242188 "/></g></g></g><g fill="#ffffff" fill-opacity="1"><g transform="translate(721.126771, 218.472074)"><g><path d="M 27.953125 -49.507812 C 32.910156 -49.507812 37.394531 -48.417969 41.40625 -46.238281 C 45.414062 -44.058594 48.566406 -41.070312 50.863281 -37.269531 C 53.15625 -33.46875 54.304688 -29.203125 54.304688 -24.476562 C 54.304688 -19.699219 53.15625 -15.390625 50.863281 -11.542969 C 48.566406 -7.695312 45.414062 -4.660156 41.40625 -2.433594 C 37.394531 -0.207031 32.910156 0.902344 27.953125 0.902344 C 22.992188 0.902344 18.507812 -0.195312 14.496094 -2.398438 C 10.488281 -4.601562 7.335938 -7.636719 5.039062 -11.507812 C 2.746094 -15.378906 1.597656 -19.699219 1.597656 -24.476562 C 1.597656 -29.203125 2.746094 -33.46875 5.039062 -37.269531 C 7.335938 -41.070312 10.488281 -44.058594 14.496094 -46.238281 C 18.507812 -48.417969 22.992188 -49.507812 27.953125 -49.507812 Z M 28.089844 -38.730469 C 25.679688 -38.730469 23.445312 -38.101562 21.378906 -36.851562 C 19.316406 -35.601562 17.683594 -33.875 16.480469 -31.671875 C 15.273438 -29.46875 14.671875 -27.046875 14.671875 -24.40625 C 14.671875 -21.71875 15.285156 -19.273438 16.511719 -17.070312 C 17.742188 -14.867188 19.375 -13.128906 21.414062 -11.855469 C 23.457031 -10.582031 25.679688 -9.941406 28.089844 -9.941406 C 30.5 -9.941406 32.714844 -10.582031 34.730469 -11.855469 C 36.746094 -13.128906 38.335938 -14.867188 39.492188 -17.070312 C 40.652344 -19.273438 41.230469 -21.71875 41.230469 -24.40625 C 41.230469 -27.046875 40.652344 -29.46875 39.492188 -31.671875 C 38.335938 -33.875 36.746094 -35.601562 34.730469 -36.851562 C 32.714844 -38.101562 30.5 -38.730469 28.089844 -38.730469 Z M 28.089844 -38.730469 "/></g></g></g><g fill="#ffffff" fill-opacity="1"><g transform="translate(772.509683, 218.472074)"><g/></g></g><g fill="#fabb18" fill-opacity="1"><g transform="translate(171.883016, 330.655371)"><g><path d="M 75.90625 17.367188 C 71.726562 17.367188 68.507812 15.867188 66.257812 12.867188 C 64.007812 9.863281 62.265625 5.84375 61.03125 0.804688 C 59.796875 -4.234375 58.96875 -10.023438 58.539062 -16.566406 C 58.109375 -23.105469 57.679688 -29.859375 57.25 -36.828125 C 57.039062 -40.367188 56.3125 -43.421875 55.082031 -45.996094 C 53.847656 -48.566406 51.675781 -50.605469 48.566406 -52.105469 C 47.601562 -51.140625 45.941406 -49.023438 43.582031 -45.753906 C 41.222656 -42.484375 38.570312 -38.703125 35.621094 -34.414062 C 32.671875 -30.125 29.539062 -25.597656 26.214844 -20.828125 C 22.890625 -16.054688 19.78125 -11.6875 16.886719 -7.71875 C 13.992188 -3.753906 11.445312 -0.457031 9.246094 2.171875 C 7.050781 4.796875 5.628906 6.109375 4.984375 6.109375 C 4.128906 6.109375 3.351562 5.816406 2.652344 5.226562 C 1.957031 4.636719 1.367188 3.941406 0.882812 3.136719 C 0.402344 2.332031 0 1.472656 -0.320312 0.5625 C -0.644531 -0.347656 -0.804688 -1.070312 -0.804688 -1.609375 C -0.804688 -3.324219 0.132812 -6.488281 2.011719 -11.097656 C 3.886719 -15.707031 6.246094 -21.066406 9.085938 -27.179688 C 11.925781 -33.289062 15.117188 -39.855469 18.65625 -46.878906 C 22.191406 -53.902344 25.625 -60.65625 28.949219 -67.140625 C 32.269531 -73.628906 35.300781 -79.550781 38.035156 -84.914062 C 40.769531 -90.273438 42.777344 -94.402344 44.066406 -97.296875 C 41.167969 -97.296875 38.007812 -96.546875 34.578125 -95.042969 C 31.144531 -93.542969 27.984375 -91.480469 25.089844 -88.851562 C 22.191406 -86.226562 19.753906 -83.144531 17.769531 -79.605469 C 15.789062 -76.066406 14.796875 -72.261719 14.796875 -68.1875 C 14.796875 -64.222656 15.25 -60.949219 16.164062 -58.378906 C 17.074219 -55.804688 17.53125 -54.089844 17.53125 -53.230469 C 17.53125 -52.910156 17.421875 -52.75 17.207031 -52.75 C 16.777344 -52.75 16.109375 -53.042969 15.199219 -53.632812 C 14.285156 -54.222656 13.375 -55.160156 12.464844 -56.449219 C 11.550781 -57.734375 10.75 -59.421875 10.050781 -61.511719 C 9.355469 -63.605469 9.007812 -66.152344 9.007812 -69.152344 C 9.007812 -72.261719 9.328125 -75.265625 9.972656 -78.160156 C 10.613281 -81.054688 11.925781 -83.894531 13.910156 -86.683594 C 15.894531 -89.46875 18.761719 -92.203125 22.515625 -94.882812 C 26.265625 -97.5625 31.199219 -100.191406 37.308594 -102.765625 C 39.453125 -103.621094 41.492188 -104.292969 43.421875 -104.773438 C 45.351562 -105.257812 47.386719 -105.496094 49.53125 -105.496094 C 51.675781 -105.496094 53.5 -104.558594 55 -102.683594 C 56.5 -100.808594 57.25 -98.421875 57.25 -95.527344 C 57.25 -94.027344 56.929688 -92.335938 56.285156 -90.460938 C 55.644531 -88.585938 54.839844 -86.65625 53.875 -84.671875 C 52.910156 -82.6875 51.863281 -80.703125 50.738281 -78.722656 C 49.613281 -76.738281 48.566406 -74.886719 47.601562 -73.171875 C 42.992188 -64.808594 38.222656 -56.394531 33.289062 -47.925781 C 28.359375 -39.453125 23.960938 -30.824219 20.101562 -22.03125 C 23.320312 -26.320312 25.863281 -29.699219 27.742188 -32.164062 C 29.617188 -34.628906 31.171875 -36.695312 32.40625 -38.355469 C 33.636719 -40.015625 34.710938 -41.546875 35.621094 -42.9375 C 36.53125 -44.332031 37.738281 -46.15625 39.238281 -48.40625 C 40.742188 -50.660156 42.644531 -53.605469 44.949219 -57.25 C 47.253906 -60.898438 50.445312 -65.773438 54.519531 -71.886719 C 56.234375 -74.460938 58.109375 -77.328125 60.148438 -80.492188 C 62.183594 -83.652344 64.328125 -86.871094 66.578125 -90.140625 C 68.832031 -93.410156 71.164062 -96.597656 73.574219 -99.707031 C 75.988281 -102.816406 78.453125 -105.578125 80.972656 -107.992188 C 83.492188 -110.402344 85.984375 -112.332031 88.449219 -113.78125 C 90.917969 -115.226562 93.328125 -115.953125 95.6875 -115.953125 C 97.726562 -115.953125 99.761719 -115.496094 101.800781 -114.585938 C 103.835938 -113.671875 105.660156 -112.386719 107.265625 -110.722656 C 108.875 -109.0625 110.1875 -107.078125 111.207031 -104.773438 C 112.226562 -102.46875 112.734375 -99.921875 112.734375 -97.136719 C 112.734375 -91.882812 111.554688 -86.949219 109.195312 -82.339844 C 106.839844 -77.730469 103.542969 -73.441406 99.304688 -69.472656 C 95.070312 -65.507812 90.058594 -61.808594 84.269531 -58.378906 C 78.480469 -54.945312 72.15625 -51.785156 65.292969 -48.890625 C 68.1875 -45.78125 70.089844 -42.375 71.003906 -38.675781 C 71.914062 -34.976562 72.476562 -31.144531 72.691406 -27.179688 C 72.90625 -23.320312 73.121094 -19.246094 73.332031 -14.957031 C 73.546875 -10.667969 73.949219 -6.726562 74.539062 -3.136719 C 75.128906 0.457031 75.960938 3.429688 77.03125 5.789062 C 78.105469 8.148438 79.605469 9.328125 81.535156 9.328125 C 84.324219 9.328125 87.621094 7.960938 91.425781 5.226562 C 95.230469 2.492188 99.28125 -0.964844 103.566406 -5.144531 C 107.855469 -9.328125 112.226562 -13.804688 116.675781 -18.574219 C 121.125 -23.347656 125.386719 -27.820312 129.460938 -32.003906 C 133.535156 -36.183594 137.3125 -39.640625 140.796875 -42.375 C 144.28125 -45.109375 147.148438 -46.476562 149.402344 -46.476562 C 150.152344 -46.476562 150.527344 -46.261719 150.527344 -45.832031 C 150.527344 -44.332031 149.992188 -43.152344 148.917969 -42.296875 C 146.667969 -40.6875 143.851562 -38.085938 140.476562 -34.496094 C 137.097656 -30.902344 133.347656 -26.882812 129.21875 -22.433594 C 125.089844 -17.984375 120.722656 -13.429688 116.113281 -8.765625 C 111.5 -4.101562 106.839844 0.1875 102.121094 4.101562 C 97.402344 8.015625 92.820312 11.203125 88.371094 13.667969 C 83.921875 16.136719 79.765625 17.367188 75.90625 17.367188 Z M 53.070312 -54.195312 C 55.429688 -54.195312 58.269531 -54.8125 61.59375 -56.046875 C 64.917969 -57.277344 68.375 -58.992188 71.96875 -61.191406 C 75.558594 -63.390625 79.125 -65.988281 82.660156 -68.992188 C 86.199219 -71.992188 89.363281 -75.183594 92.148438 -78.5625 C 94.9375 -81.9375 97.1875 -85.476562 98.90625 -89.175781 C 100.621094 -92.875 101.476562 -96.546875 101.476562 -100.191406 C 101.476562 -102.765625 100.941406 -104.828125 99.871094 -106.382812 C 98.796875 -107.9375 97.1875 -108.714844 95.042969 -108.714844 C 92.257812 -108.714844 89.414062 -107.507812 86.519531 -105.097656 C 83.625 -102.683594 80.410156 -99.199219 76.871094 -94.640625 C 73.332031 -90.085938 69.394531 -84.539062 65.050781 -77.996094 C 60.710938 -71.457031 55.644531 -64.058594 49.855469 -55.804688 C 50.070312 -55.054688 50.46875 -54.597656 51.058594 -54.4375 C 51.648438 -54.277344 52.320312 -54.195312 53.070312 -54.195312 Z M 53.070312 -54.195312 "/></g></g></g><g fill="#fabb18" fill-opacity="1"><g transform="translate(286.224562, 330.655371)"><g><path d="M 30.714844 1.769531 C 26.964844 1.769531 23.480469 1.394531 20.261719 0.644531 C 17.046875 -0.105469 14.234375 -1.3125 11.820312 -2.976562 C 9.40625 -4.636719 7.503906 -6.753906 6.109375 -9.328125 C 4.71875 -11.902344 4.019531 -15.011719 4.019531 -18.65625 C 4.019531 -21.765625 4.691406 -25.0625 6.03125 -28.546875 C 7.371094 -32.03125 9.140625 -35.488281 11.335938 -38.917969 C 13.535156 -42.347656 16.027344 -45.644531 18.816406 -48.808594 C 21.601562 -51.972656 24.472656 -54.730469 27.417969 -57.089844 C 30.367188 -59.449219 33.261719 -61.351562 36.105469 -62.800781 C 38.945312 -64.246094 41.492188 -64.972656 43.742188 -64.972656 C 45.136719 -64.972656 46.585938 -64.808594 48.085938 -64.488281 C 49.585938 -64.167969 50.898438 -63.710938 52.023438 -63.121094 C 53.152344 -62.53125 54.089844 -61.808594 54.839844 -60.949219 C 55.589844 -60.09375 55.964844 -59.128906 55.964844 -58.054688 C 55.964844 -53.765625 54.542969 -50.015625 51.703125 -46.796875 C 48.863281 -43.582031 45.40625 -40.792969 41.332031 -38.4375 C 37.257812 -36.078125 32.996094 -34.199219 28.546875 -32.808594 C 24.097656 -31.414062 20.261719 -30.394531 17.046875 -29.75 C 15.4375 -26.75 14.367188 -24.230469 13.832031 -22.191406 C 13.292969 -20.15625 13.027344 -18.117188 13.027344 -16.082031 C 13.027344 -14.257812 13.480469 -12.597656 14.394531 -11.097656 C 15.304688 -9.59375 16.539062 -8.28125 18.09375 -7.15625 C 19.648438 -6.03125 21.46875 -5.144531 23.558594 -4.503906 C 25.652344 -3.859375 27.875 -3.539062 30.234375 -3.539062 C 34.199219 -3.539062 38.890625 -4.316406 44.304688 -5.871094 C 49.71875 -7.425781 54.945312 -9.59375 59.984375 -12.382812 C 63.953125 -14.632812 67.730469 -17.207031 71.324219 -20.101562 C 74.914062 -22.996094 78.371094 -25.945312 81.695312 -28.949219 C 85.019531 -31.949219 88.15625 -34.871094 91.105469 -37.710938 C 94.054688 -40.554688 96.8125 -43.101562 99.386719 -45.351562 C 99.601562 -45.566406 100.082031 -45.671875 100.835938 -45.671875 C 101.691406 -45.671875 102.601562 -45.511719 103.566406 -45.191406 C 104.53125 -44.867188 105.015625 -44.386719 105.015625 -43.742188 C 105.015625 -43.527344 104.695312 -43.101562 104.050781 -42.457031 C 103.40625 -41.8125 102.925781 -41.332031 102.601562 -41.007812 C 95.742188 -34.039062 89.335938 -27.902344 83.386719 -22.59375 C 77.433594 -17.289062 71.617188 -12.839844 65.9375 -9.246094 C 60.253906 -5.65625 54.542969 -2.921875 48.808594 -1.046875 C 43.074219 0.832031 37.042969 1.769531 30.714844 1.769531 Z M 21.226562 -34.738281 C 24.121094 -35.378906 27.207031 -36.34375 30.476562 -37.632812 C 33.746094 -38.917969 36.71875 -40.472656 39.402344 -42.296875 C 42.082031 -44.117188 44.304688 -46.261719 46.074219 -48.726562 C 47.84375 -51.195312 48.726562 -53.980469 48.726562 -57.089844 C 48.726562 -58.269531 48.460938 -59.128906 47.925781 -59.664062 C 47.386719 -60.199219 46.746094 -60.46875 45.996094 -60.46875 C 44.386719 -60.46875 42.347656 -59.476562 39.882812 -57.492188 C 37.417969 -55.507812 34.953125 -53.152344 32.484375 -50.417969 C 30.019531 -47.683594 27.742188 -44.84375 25.652344 -41.894531 C 23.558594 -38.945312 22.085938 -36.558594 21.226562 -34.738281 Z M 21.226562 -34.738281 "/></g></g></g><g fill="#fabb18" fill-opacity="1"><g transform="translate(355.858496, 330.655371)"><g><path d="M -19.78125 77.355469 C -25.035156 77.355469 -28.679688 75.90625 -30.714844 73.011719 C -32.753906 70.117188 -33.773438 66.527344 -33.773438 62.238281 C -33.773438 58.59375 -32.433594 54.570312 -29.75 50.175781 C -27.070312 45.78125 -23.695312 41.332031 -19.621094 36.828125 C -15.546875 32.324219 -11.070312 27.957031 -6.191406 23.722656 C -1.3125 19.484375 3.324219 15.652344 7.71875 12.222656 C 12.113281 8.792969 15.921875 5.949219 19.136719 3.699219 C 22.355469 1.449219 24.390625 0.0546875 25.25 -0.484375 C 27.070312 -4.878906 29 -9.167969 31.039062 -13.347656 C 33.074219 -17.53125 35.003906 -21.816406 36.828125 -26.214844 C 35.863281 -25.25 34.601562 -23.828125 33.046875 -21.953125 C 31.492188 -20.074219 29.726562 -18.011719 27.742188 -15.761719 C 25.757812 -13.507812 23.667969 -11.175781 21.46875 -8.765625 C 19.273438 -6.351562 17.074219 -4.15625 14.875 -2.171875 C 12.679688 -0.1875 10.585938 1.421875 8.605469 2.652344 C 6.621094 3.886719 4.878906 4.503906 3.378906 4.503906 C 1.875 4.503906 0.671875 4.179688 -0.242188 3.539062 C -1.152344 2.894531 -1.875 2.035156 -2.414062 0.964844 C -2.949219 -0.105469 -3.324219 -1.257812 -3.539062 -2.492188 C -3.753906 -3.726562 -3.859375 -4.984375 -3.859375 -6.273438 C -3.859375 -9.808594 -3.164062 -13.644531 -1.769531 -17.769531 C -0.375 -21.898438 1.527344 -25.972656 3.941406 -29.992188 C 6.351562 -34.011719 9.113281 -37.898438 12.222656 -41.652344 C 15.332031 -45.40625 18.601562 -48.703125 22.03125 -51.542969 C 25.464844 -54.382812 28.921875 -56.664062 32.40625 -58.378906 C 35.890625 -60.09375 39.1875 -60.949219 42.296875 -60.949219 C 44.867188 -60.949219 47.386719 -60.441406 49.855469 -59.421875 C 52.320312 -58.40625 54.144531 -56.664062 55.320312 -54.195312 C 57.144531 -56.664062 58.753906 -58.617188 60.148438 -60.066406 C 61.539062 -61.511719 62.828125 -62.238281 64.007812 -62.238281 C 64.863281 -62.238281 65.695312 -61.914062 66.5 -61.273438 C 67.304688 -60.628906 67.707031 -59.984375 67.707031 -59.34375 C 67.707031 -59.019531 67.652344 -58.804688 67.542969 -58.699219 C 66.6875 -57.089844 65.480469 -54.894531 63.925781 -52.105469 C 62.371094 -49.316406 60.65625 -46.289062 58.78125 -43.019531 C 56.902344 -39.75 55 -36.398438 53.070312 -32.96875 C 51.140625 -29.539062 49.316406 -26.292969 47.601562 -23.238281 C 45.886719 -20.183594 44.414062 -17.476562 43.179688 -15.117188 C 41.945312 -12.757812 41.167969 -11.042969 40.847656 -9.972656 C 46.746094 -11.6875 51.972656 -13.667969 56.527344 -15.921875 C 61.085938 -18.171875 65.292969 -20.691406 69.152344 -23.480469 C 73.011719 -26.265625 76.738281 -29.351562 80.328125 -32.726562 C 83.921875 -36.105469 87.699219 -39.722656 91.667969 -43.582031 C 92.632812 -44.546875 93.542969 -45.21875 94.402344 -45.59375 C 95.257812 -45.96875 96.117188 -46.15625 96.972656 -46.15625 C 98.796875 -46.15625 99.707031 -45.511719 99.707031 -44.226562 C 99.707031 -43.582031 99.171875 -42.722656 98.101562 -41.652344 C 93.703125 -37.257812 89.816406 -33.421875 86.441406 -30.152344 C 83.0625 -26.882812 79.953125 -24.042969 77.113281 -21.628906 C 74.273438 -19.21875 71.566406 -17.128906 68.992188 -15.359375 C 66.417969 -13.589844 63.632812 -11.980469 60.628906 -10.535156 C 57.628906 -9.085938 54.304688 -7.71875 50.660156 -6.433594 C 47.011719 -5.144531 42.777344 -3.753906 37.953125 -2.25 C 36.132812 -1.714844 34.601562 -0.507812 33.371094 1.367188 C 32.136719 3.242188 31.066406 5.386719 30.152344 7.800781 C 29.242188 10.210938 28.410156 12.703125 27.660156 15.277344 C 26.910156 17.851562 26.105469 20.101562 25.25 22.03125 C 23.746094 25.25 22.003906 28.867188 20.023438 32.886719 C 18.039062 36.90625 15.867188 40.980469 13.507812 45.109375 C 11.148438 49.238281 8.628906 53.230469 5.949219 57.089844 C 3.269531 60.949219 0.535156 64.382812 -2.25 67.382812 C -5.039062 70.386719 -7.933594 72.796875 -10.9375 74.621094 C -13.9375 76.441406 -16.886719 77.355469 -19.78125 77.355469 Z M -22.191406 70.601562 C -18.546875 70.601562 -14.769531 68.722656 -10.855469 64.972656 C -6.941406 61.21875 -3.109375 56.394531 0.644531 50.496094 C 4.394531 44.601562 8.015625 38.035156 11.5 30.796875 C 14.984375 23.558594 18.066406 16.511719 20.746094 9.648438 C 17.957031 10.828125 14.554688 13.027344 10.535156 16.242188 C 6.511719 19.460938 2.386719 23.15625 -1.847656 27.339844 C -6.085938 31.519531 -10.132812 35.917969 -13.992188 40.527344 C -17.851562 45.136719 -21.066406 49.316406 -23.640625 53.070312 C -24.820312 54.785156 -25.730469 56.636719 -26.375 58.617188 C -27.019531 60.601562 -27.339844 62.503906 -27.339844 64.328125 C -27.339844 66.152344 -26.9375 67.652344 -26.132812 68.832031 C -25.328125 70.011719 -24.015625 70.601562 -22.191406 70.601562 Z M 6.109375 -5.46875 C 6.753906 -5.46875 8.308594 -6.460938 10.773438 -8.441406 C 13.242188 -10.425781 16.164062 -12.917969 19.539062 -15.921875 C 22.917969 -18.921875 26.507812 -22.246094 30.316406 -25.890625 C 34.121094 -29.539062 37.605469 -33.023438 40.769531 -36.34375 C 43.929688 -39.667969 46.558594 -42.617188 48.648438 -45.191406 C 50.738281 -47.761719 51.785156 -49.53125 51.785156 -50.496094 C 51.785156 -52.320312 51.195312 -53.792969 50.015625 -54.921875 C 48.835938 -56.046875 47.496094 -56.609375 45.996094 -56.609375 C 43.636719 -56.609375 40.980469 -55.507812 38.035156 -53.3125 C 35.085938 -51.113281 32.109375 -48.351562 29.109375 -45.03125 C 26.105469 -41.707031 23.210938 -38.007812 20.425781 -33.933594 C 17.636719 -29.859375 15.144531 -25.972656 12.945312 -22.273438 C 10.75 -18.574219 8.980469 -15.25 7.640625 -12.300781 C 6.296875 -9.355469 5.628906 -7.34375 5.628906 -6.273438 C 5.628906 -5.734375 5.789062 -5.46875 6.109375 -5.46875 Z M 6.109375 -5.46875 "/></g></g></g><g fill="#fabb18" fill-opacity="1"><g transform="translate(420.18543, 330.655371)"><g><path d="M 4.503906 7.074219 C 1.394531 7.074219 -0.9375 6.003906 -2.492188 3.859375 C -4.046875 1.714844 -4.824219 -1.070312 -4.824219 -4.503906 C -4.824219 -7.183594 -4.046875 -10.640625 -2.492188 -14.875 C -0.9375 -19.109375 1.097656 -23.613281 3.617188 -28.382812 C 6.136719 -33.15625 8.925781 -37.925781 11.980469 -42.699219 C 15.035156 -47.46875 18.066406 -51.625 21.066406 -55.160156 C 23.640625 -54.519531 25.570312 -53.527344 26.855469 -52.1875 C 28.144531 -50.847656 28.785156 -49.265625 28.785156 -47.441406 C 28.785156 -46.261719 28.144531 -44.441406 26.855469 -41.972656 C 25.570312 -39.507812 23.988281 -36.71875 22.113281 -33.613281 C 20.238281 -30.503906 18.199219 -27.230469 16 -23.800781 C 13.804688 -20.371094 11.765625 -17.046875 9.890625 -13.832031 C 8.015625 -10.613281 6.433594 -7.691406 5.144531 -5.066406 C 3.859375 -2.4375 3.214844 -0.429688 3.214844 0.964844 C 3.214844 2.25 3.859375 2.894531 5.144531 2.894531 C 6.109375 2.894531 7.453125 2.414062 9.167969 1.449219 C 10.882812 0.484375 12.890625 -0.832031 15.199219 -2.492188 C 17.503906 -4.15625 19.996094 -6.164062 22.675781 -8.523438 C 25.355469 -10.882812 28.089844 -13.457031 30.878906 -16.242188 C 33.234375 -18.601562 35.941406 -21.496094 39 -24.925781 C 42.054688 -28.359375 45.082031 -31.679688 48.085938 -34.898438 C 51.085938 -38.113281 53.929688 -40.847656 56.609375 -43.101562 C 59.289062 -45.351562 61.433594 -46.476562 63.042969 -46.476562 C 64.007812 -46.476562 64.488281 -45.941406 64.488281 -44.867188 C 64.488281 -43.902344 64.140625 -42.9375 63.445312 -41.972656 C 62.746094 -41.007812 61.96875 -40.152344 61.113281 -39.402344 C 58.96875 -37.472656 56.476562 -34.976562 53.632812 -31.921875 C 50.792969 -28.867188 47.738281 -25.625 44.464844 -22.191406 C 41.195312 -18.761719 37.820312 -15.304688 34.335938 -11.820312 C 30.851562 -8.335938 27.367188 -5.199219 23.882812 -2.414062 C 20.398438 0.375 17.019531 2.652344 13.75 4.421875 C 10.480469 6.191406 7.398438 7.074219 4.503906 7.074219 Z M 31.199219 -62.078125 C 30.125 -62.078125 29.136719 -62.316406 28.222656 -62.800781 C 27.3125 -63.28125 26.855469 -64.222656 26.855469 -65.613281 C 26.855469 -66.6875 27.230469 -67.945312 27.984375 -69.394531 C 28.734375 -70.839844 29.617188 -72.261719 30.636719 -73.65625 C 31.65625 -75.050781 32.726562 -76.230469 33.851562 -77.195312 C 34.976562 -78.160156 35.96875 -78.640625 36.828125 -78.640625 C 38.652344 -78.640625 40.015625 -78.238281 40.929688 -77.433594 C 41.839844 -76.628906 42.296875 -75.585938 42.296875 -74.300781 C 42.296875 -72.476562 41.894531 -70.839844 41.089844 -69.394531 C 40.285156 -67.945312 39.292969 -66.660156 38.113281 -65.535156 C 36.933594 -64.410156 35.703125 -63.550781 34.414062 -62.960938 C 33.128906 -62.371094 32.058594 -62.078125 31.199219 -62.078125 Z M 31.199219 -62.078125 "/></g></g></g><g fill="#fabb18" fill-opacity="1"><g transform="translate(450.097151, 330.655371)"><g><path d="M 7.71875 5.949219 C 5.574219 5.949219 3.777344 5.546875 2.332031 4.746094 C 0.882812 3.941406 -0.242188 2.894531 -1.046875 1.609375 C -1.847656 0.320312 -2.414062 -1.070312 -2.734375 -2.574219 C -3.054688 -4.074219 -3.214844 -5.523438 -3.214844 -6.914062 C -3.214844 -8.738281 -2.894531 -10.695312 -2.25 -12.785156 C -1.609375 -14.875 -0.804688 -16.941406 0.160156 -18.976562 C 1.125 -21.015625 2.171875 -22.96875 3.296875 -24.847656 C 4.421875 -26.722656 5.46875 -28.359375 6.433594 -29.75 C 4.824219 -32.324219 3.589844 -34.683594 2.734375 -36.828125 C 1.875 -38.972656 1.449219 -41.222656 1.449219 -43.582031 C 1.449219 -46.15625 2.171875 -48.941406 3.617188 -51.945312 C 5.066406 -54.945312 7.050781 -57.734375 9.570312 -60.308594 C 12.089844 -62.878906 15.035156 -65.023438 18.414062 -66.742188 C 21.792969 -68.457031 25.410156 -69.3125 29.269531 -69.3125 C 35.058594 -69.3125 39.347656 -67.679688 42.136719 -64.410156 C 44.921875 -61.136719 46.316406 -56.714844 46.316406 -51.140625 C 46.316406 -46.316406 45.296875 -40.714844 43.261719 -34.335938 C 41.222656 -27.957031 38.488281 -21.871094 35.058594 -16.082031 C 35.808594 -16.082031 36.53125 -16.054688 37.230469 -16 C 37.925781 -15.949219 38.703125 -15.921875 39.5625 -15.921875 C 43.527344 -15.921875 47.574219 -16.726562 51.703125 -18.332031 C 55.832031 -19.941406 59.984375 -22.085938 64.167969 -24.765625 C 68.347656 -27.445312 72.476562 -30.527344 76.550781 -34.011719 C 80.625 -37.496094 84.539062 -41.117188 88.289062 -44.867188 C 89.148438 -45.726562 90.003906 -46.289062 90.863281 -46.558594 C 91.722656 -46.824219 92.472656 -46.960938 93.113281 -46.960938 C 94.617188 -46.960938 95.367188 -46.421875 95.367188 -45.351562 C 95.367188 -44.492188 94.9375 -43.6875 94.078125 -42.9375 C 91.183594 -40.472656 88.050781 -37.417969 84.671875 -33.773438 C 81.292969 -30.125 77.460938 -26.617188 73.171875 -23.238281 C 68.882812 -19.859375 63.980469 -16.964844 58.457031 -14.554688 C 52.9375 -12.140625 46.476562 -10.9375 39.078125 -10.9375 C 36.292969 -10.9375 33.988281 -11.148438 32.164062 -11.578125 C 28.734375 -6.433594 24.925781 -2.226562 20.746094 1.046875 C 16.566406 4.316406 12.222656 5.949219 7.71875 5.949219 Z M 11.097656 -2.414062 C 14.097656 -2.414062 16.941406 -3.402344 19.621094 -5.386719 C 22.300781 -7.371094 24.765625 -9.917969 27.019531 -13.027344 C 23.585938 -14.3125 20.933594 -15.8125 19.058594 -17.53125 C 17.179688 -19.246094 15.976562 -20.371094 15.4375 -20.90625 C 13.617188 -18.65625 11.980469 -16.027344 10.535156 -13.027344 C 9.085938 -10.023438 8.363281 -7.503906 8.363281 -5.46875 C 8.363281 -3.429688 9.273438 -2.414062 11.097656 -2.414062 Z M 29.914062 -17.207031 C 31.519531 -19.886719 32.996094 -22.78125 34.335938 -25.890625 C 35.675781 -29 36.828125 -32.003906 37.792969 -34.898438 C 38.757812 -37.792969 39.480469 -40.5 39.964844 -43.019531 C 40.445312 -45.539062 40.6875 -47.65625 40.6875 -49.371094 C 40.6875 -53.765625 39.777344 -57.386719 37.953125 -60.226562 C 36.132812 -63.066406 33.34375 -64.488281 29.589844 -64.488281 C 26.265625 -64.488281 23.183594 -63.738281 20.34375 -62.238281 C 17.503906 -60.738281 15.035156 -58.886719 12.945312 -56.6875 C 10.855469 -54.492188 9.195312 -52.132812 7.960938 -49.613281 C 6.726562 -47.09375 6.109375 -44.816406 6.109375 -42.777344 C 6.109375 -37.203125 7.503906 -34.414062 10.292969 -34.414062 C 14.046875 -39.882812 17.367188 -44.359375 20.261719 -47.84375 C 23.15625 -51.328125 25.730469 -53.070312 27.984375 -53.070312 C 30.125 -53.070312 31.65625 -52.160156 32.566406 -50.335938 C 33.476562 -48.515625 33.933594 -46.796875 33.933594 -45.191406 C 33.933594 -44.011719 33.371094 -42.535156 32.246094 -40.769531 C 31.117188 -39 29.75 -37.175781 28.144531 -35.300781 C 26.535156 -33.421875 24.898438 -31.546875 23.238281 -29.671875 C 21.578125 -27.796875 20.261719 -26.160156 19.296875 -24.765625 C 19.726562 -24.230469 20.664062 -23.105469 22.113281 -21.390625 C 23.558594 -19.671875 26.160156 -18.28125 29.914062 -17.207031 Z M 29.914062 -17.207031 "/></g></g></g><g fill="#fabb18" fill-opacity="1"><g transform="translate(509.277884, 330.655371)"><g><path d="M 45.351562 5.628906 C 42.671875 5.628906 40.417969 4.824219 38.597656 3.214844 C 36.773438 1.609375 35.863281 -1.449219 35.863281 -5.949219 C 35.863281 -7.773438 36.507812 -10.210938 37.792969 -13.269531 C 39.078125 -16.324219 40.714844 -19.59375 42.699219 -23.078125 C 44.679688 -26.5625 46.824219 -30.125 49.128906 -33.773438 C 51.4375 -37.417969 53.578125 -40.769531 55.5625 -43.824219 C 57.546875 -46.878906 59.183594 -49.53125 60.46875 -51.785156 C 61.753906 -54.035156 62.398438 -55.484375 62.398438 -56.125 C 62.398438 -56.339844 62.289062 -56.449219 62.078125 -56.449219 C 60.039062 -56.449219 57.25 -55 53.714844 -52.105469 C 50.175781 -49.210938 46.34375 -45.621094 42.214844 -41.332031 C 38.085938 -37.042969 33.824219 -32.351562 29.429688 -27.257812 C 25.035156 -22.167969 20.933594 -17.476562 17.128906 -13.1875 C 13.320312 -8.898438 10.050781 -5.308594 7.316406 -2.414062 C 4.582031 0.484375 2.734375 1.929688 1.769531 1.929688 C 0.375 1.929688 -0.804688 1.394531 -1.769531 0.320312 C -2.734375 -0.75 -3.214844 -1.875 -3.214844 -3.054688 C -3.214844 -5.308594 -2.386719 -8.230469 -0.722656 -11.820312 C 0.9375 -15.410156 2.949219 -19.324219 5.308594 -23.558594 C 7.664062 -27.796875 10.132812 -32.136719 12.703125 -36.585938 C 15.277344 -41.035156 17.476562 -45.191406 19.296875 -49.050781 C 19.726562 -49.90625 19.941406 -50.820312 19.941406 -51.785156 C 19.941406 -52.320312 19.78125 -52.910156 19.460938 -53.554688 C 19.136719 -54.195312 18.976562 -54.839844 18.976562 -55.484375 C 18.976562 -56.769531 19.671875 -57.414062 21.066406 -57.414062 C 22.03125 -57.414062 23.105469 -57.089844 24.285156 -56.449219 C 25.464844 -55.804688 26.5625 -55.027344 27.582031 -54.117188 C 28.597656 -53.203125 29.457031 -52.292969 30.152344 -51.382812 C 30.851562 -50.46875 31.199219 -49.746094 31.199219 -49.210938 C 31.199219 -47.925781 30.902344 -46.585938 30.316406 -45.191406 C 29.726562 -43.796875 29.027344 -42.375 28.222656 -40.929688 C 27.417969 -39.480469 26.5625 -38.035156 25.652344 -36.585938 C 24.738281 -35.140625 23.960938 -33.824219 23.320312 -32.644531 C 22.78125 -31.574219 22.085938 -30.316406 21.226562 -28.867188 C 20.371094 -27.417969 19.539062 -26 18.734375 -24.605469 C 17.929688 -23.210938 17.261719 -22.003906 16.726562 -20.988281 C 16.1875 -19.96875 15.921875 -19.351562 15.921875 -19.136719 C 15.921875 -19.03125 15.976562 -18.976562 16.082031 -18.976562 C 20.261719 -23.585938 24.390625 -28.304688 28.464844 -33.128906 C 32.539062 -37.953125 36.53125 -42.375 40.445312 -46.398438 C 44.359375 -50.417969 48.164062 -53.714844 51.863281 -56.285156 C 55.5625 -58.859375 59.183594 -60.148438 62.71875 -60.148438 C 64.542969 -60.148438 66.015625 -59.796875 67.140625 -59.101562 C 68.269531 -58.40625 69.152344 -57.519531 69.796875 -56.449219 C 70.4375 -55.375 70.894531 -54.195312 71.164062 -52.910156 C 71.429688 -51.625 71.566406 -50.445312 71.566406 -49.371094 C 71.566406 -48.085938 70.921875 -46.15625 69.636719 -43.582031 C 68.347656 -41.007812 66.765625 -38.167969 64.890625 -35.058594 C 63.015625 -31.949219 60.925781 -28.679688 58.617188 -25.25 C 56.3125 -21.816406 54.167969 -18.628906 52.1875 -15.679688 C 50.203125 -12.730469 48.460938 -10.132812 46.960938 -7.878906 C 45.457031 -5.628906 44.546875 -4.128906 44.226562 -3.378906 C 44.117188 -3.164062 44.066406 -2.839844 44.066406 -2.414062 C 44.066406 -1.554688 44.816406 -1.125 46.316406 -1.125 C 48.675781 -1.125 52.375 -2.144531 57.414062 -4.179688 C 62.453125 -6.21875 67.757812 -9.113281 73.332031 -12.867188 C 77.300781 -15.546875 80.464844 -17.851562 82.824219 -19.78125 C 85.179688 -21.710938 87.460938 -23.722656 89.65625 -25.8125 C 91.855469 -27.902344 94.292969 -30.339844 96.972656 -33.128906 C 99.65625 -35.917969 103.355469 -39.453125 108.070312 -43.742188 C 109.144531 -44.707031 110.214844 -45.40625 111.289062 -45.832031 C 112.359375 -46.261719 113.324219 -46.476562 114.183594 -46.476562 C 115.789062 -46.476562 116.59375 -45.941406 116.59375 -44.867188 C 116.59375 -44.332031 115.65625 -43.046875 113.78125 -41.007812 C 111.902344 -38.972656 109.597656 -36.640625 106.863281 -34.011719 C 104.132812 -31.386719 101.289062 -28.707031 98.339844 -25.972656 C 95.394531 -23.238281 92.792969 -20.90625 90.542969 -18.976562 C 86.789062 -15.652344 82.902344 -12.492188 78.882812 -9.488281 C 74.863281 -6.488281 70.894531 -3.859375 66.980469 -1.609375 C 63.066406 0.644531 59.234375 2.414062 55.484375 3.699219 C 51.730469 4.984375 48.351562 5.628906 45.351562 5.628906 Z M 45.351562 5.628906 "/></g></g></g><g fill="#fabb18" fill-opacity="1"><g transform="translate(589.686676, 330.655371)"><g><path d="M 45.511719 1.929688 C 43.6875 1.929688 42.160156 1.5 40.929688 0.644531 C 39.695312 -0.214844 38.675781 -1.3125 37.875 -2.652344 C 37.070312 -3.992188 36.507812 -5.496094 36.183594 -7.15625 C 35.863281 -8.816406 35.703125 -10.453125 35.703125 -12.0625 C 35.703125 -14.742188 36.050781 -17.207031 36.746094 -19.460938 C 37.445312 -21.710938 38.328125 -23.933594 39.402344 -26.132812 C 40.472656 -28.332031 41.625 -30.476562 42.859375 -32.566406 C 44.089844 -34.65625 45.242188 -36.882812 46.316406 -39.238281 C 46.421875 -39.453125 46.476562 -39.777344 46.476562 -40.203125 C 46.476562 -40.417969 46.421875 -40.527344 46.316406 -40.527344 C 46.101562 -40.527344 45.78125 -40.3125 45.351562 -39.882812 C 41.921875 -36.453125 38.085938 -32.457031 33.851562 -27.902344 C 29.617188 -23.347656 25.515625 -19.03125 21.550781 -14.957031 C 17.582031 -10.882812 13.964844 -7.425781 10.695312 -4.582031 C 7.425781 -1.742188 4.984375 -0.320312 3.378906 -0.320312 C 1.769531 -0.320312 0.507812 -0.75 -0.402344 -1.609375 C -1.3125 -2.464844 -1.984375 -3.457031 -2.414062 -4.582031 C -2.839844 -5.710938 -3.082031 -6.886719 -3.136719 -8.121094 C -3.191406 -9.355469 -3.214844 -10.398438 -3.214844 -11.257812 C -3.214844 -13.9375 -2.601562 -16.941406 -1.367188 -20.261719 C -0.132812 -23.585938 1.5 -26.992188 3.539062 -30.476562 C 5.574219 -33.960938 7.90625 -37.335938 10.535156 -40.605469 C 13.160156 -43.878906 15.949219 -46.796875 18.894531 -49.371094 C 21.84375 -51.945312 24.820312 -54.007812 27.820312 -55.5625 C 30.824219 -57.117188 33.664062 -57.894531 36.34375 -57.894531 C 39.132812 -57.894531 41.519531 -57.546875 43.5 -56.851562 C 45.484375 -56.152344 47.335938 -54.304688 49.050781 -51.300781 C 50.015625 -51.515625 51.035156 -52.078125 52.105469 -52.988281 C 53.179688 -53.902344 54.304688 -54.894531 55.484375 -55.964844 C 56.664062 -57.039062 57.839844 -57.976562 59.019531 -58.78125 C 60.199219 -59.582031 61.324219 -59.984375 62.398438 -59.984375 C 63.792969 -59.984375 65.050781 -59.183594 66.175781 -57.574219 C 67.304688 -55.964844 67.867188 -54.410156 67.867188 -52.910156 C 67.867188 -51.195312 67.167969 -49.128906 65.773438 -46.71875 C 64.382812 -44.304688 62.691406 -41.757812 60.710938 -39.078125 C 58.726562 -36.398438 56.6875 -33.636719 54.597656 -30.796875 C 52.507812 -27.957031 50.765625 -25.300781 49.371094 -22.835938 C 47.761719 -19.941406 46.316406 -16.886719 45.03125 -13.667969 C 43.742188 -10.453125 43.101562 -7.398438 43.101562 -4.503906 C 43.101562 -3.644531 43.449219 -3.027344 44.144531 -2.652344 C 44.84375 -2.277344 45.621094 -2.089844 46.476562 -2.089844 C 49.050781 -2.089844 51.597656 -2.546875 54.117188 -3.457031 C 56.636719 -4.367188 59.019531 -5.441406 61.273438 -6.675781 C 63.523438 -7.90625 65.507812 -9.167969 67.222656 -10.453125 C 68.9375 -11.738281 70.277344 -12.8125 71.242188 -13.667969 C 77.785156 -19.03125 83.789062 -24.472656 89.253906 -29.992188 C 94.722656 -35.515625 99.492188 -40.097656 103.566406 -43.742188 C 104.425781 -44.492188 105.605469 -44.867188 107.105469 -44.867188 C 108.070312 -44.867188 108.929688 -44.734375 109.679688 -44.464844 C 110.429688 -44.199219 110.804688 -43.796875 110.804688 -43.261719 C 110.804688 -43.046875 110.75 -42.859375 110.644531 -42.699219 C 110.535156 -42.535156 110.214844 -42.1875 109.679688 -41.652344 C 103.246094 -35.328125 97.296875 -29.511719 91.828125 -24.203125 C 86.359375 -18.894531 81.082031 -14.3125 75.988281 -10.453125 C 70.894531 -6.59375 65.882812 -3.566406 60.949219 -1.367188 C 56.019531 0.832031 50.871094 1.929688 45.511719 1.929688 Z M 6.109375 -9.972656 C 6.863281 -9.972656 8.253906 -10.800781 10.292969 -12.464844 C 12.328125 -14.125 14.714844 -16.242188 17.449219 -18.816406 C 20.183594 -21.390625 23.050781 -24.230469 26.054688 -27.339844 C 29.054688 -30.449219 31.894531 -33.398438 34.578125 -36.183594 C 37.257812 -38.972656 39.589844 -41.464844 41.570312 -43.664062 C 43.554688 -45.859375 44.867188 -47.386719 45.511719 -48.246094 C 45.511719 -48.246094 45.566406 -48.351562 45.671875 -48.566406 C 45.671875 -48.890625 45.433594 -49.238281 44.949219 -49.613281 C 44.464844 -49.988281 43.878906 -50.363281 43.179688 -50.738281 C 42.484375 -51.113281 41.757812 -51.410156 41.007812 -51.625 C 40.257812 -51.835938 39.617188 -51.945312 39.078125 -51.945312 C 37.578125 -51.945312 35.675781 -51.085938 33.371094 -49.371094 C 31.066406 -47.65625 28.679688 -45.457031 26.214844 -42.777344 C 23.746094 -40.097656 21.253906 -37.148438 18.734375 -33.933594 C 16.214844 -30.714844 13.9375 -27.609375 11.902344 -24.605469 C 9.863281 -21.601562 8.230469 -18.871094 6.996094 -16.402344 C 5.761719 -13.9375 5.144531 -12.167969 5.144531 -11.097656 C 5.144531 -10.347656 5.46875 -9.972656 6.109375 -9.972656 Z M 6.109375 -9.972656 "/></g></g></g><g fill="#fabb18" fill-opacity="1"><g transform="translate(665.110124, 330.655371)"><g><path d="M 18.816406 12.703125 C 13.027344 12.703125 9.113281 11.125 7.074219 7.960938 C 5.039062 4.796875 4.019531 0.695312 4.019531 -4.34375 C 4.019531 -8.308594 4.769531 -13.105469 6.273438 -18.734375 C 7.773438 -24.363281 9.808594 -30.421875 12.382812 -36.90625 C 14.957031 -43.394531 17.957031 -50.09375 21.390625 -57.011719 C 24.820312 -63.925781 28.546875 -70.707031 32.566406 -77.355469 C 36.585938 -84 40.742188 -90.300781 45.03125 -96.25 C 49.316406 -102.199219 53.605469 -107.429688 57.894531 -111.929688 C 62.183594 -116.433594 66.3125 -120 70.277344 -122.625 C 74.246094 -125.253906 77.945312 -126.566406 81.375 -126.566406 C 83.734375 -126.566406 85.503906 -125.761719 86.683594 -124.152344 C 87.859375 -122.542969 88.449219 -120.667969 88.449219 -118.523438 C 88.449219 -115.308594 87.40625 -111.3125 85.316406 -106.542969 C 83.222656 -101.773438 80.464844 -96.734375 77.03125 -91.425781 C 73.601562 -86.117188 69.6875 -80.679688 65.292969 -75.101562 C 60.898438 -69.527344 56.394531 -64.300781 51.785156 -59.421875 C 47.175781 -54.542969 42.617188 -50.203125 38.113281 -46.398438 C 33.613281 -42.589844 29.589844 -39.722656 26.054688 -37.792969 C 25.195312 -37.363281 24.121094 -35.890625 22.835938 -33.371094 C 21.550781 -30.851562 20.316406 -27.847656 19.136719 -24.363281 C 17.957031 -20.878906 16.914062 -17.207031 16 -13.347656 C 15.089844 -9.488281 14.632812 -6.003906 14.632812 -2.894531 C 14.632812 -0.214844 15.0625 1.984375 15.921875 3.699219 C 16.777344 5.414062 18.28125 6.273438 20.425781 6.273438 C 22.246094 6.273438 24.605469 5.710938 27.5 4.582031 C 30.394531 3.457031 33.585938 1.847656 37.070312 -0.242188 C 40.554688 -2.332031 44.277344 -4.933594 48.246094 -8.039062 C 52.214844 -11.148438 56.234375 -14.742188 60.308594 -18.816406 C 65.773438 -24.175781 70.304688 -28.625 73.898438 -32.164062 C 77.488281 -35.703125 80.464844 -38.515625 82.824219 -40.605469 C 85.179688 -42.699219 87.03125 -44.144531 88.371094 -44.949219 C 89.710938 -45.753906 90.863281 -46.15625 91.828125 -46.15625 C 93.542969 -46.15625 94.402344 -45.621094 94.402344 -44.546875 C 94.402344 -43.796875 93.917969 -43.046875 92.953125 -42.296875 C 90.917969 -40.582031 88.261719 -38.035156 84.992188 -34.65625 C 81.722656 -31.28125 78.023438 -27.554688 73.898438 -23.480469 C 69.769531 -19.40625 65.347656 -15.222656 60.628906 -10.9375 C 55.910156 -6.648438 51.140625 -2.761719 46.316406 0.722656 C 41.492188 4.207031 36.71875 7.074219 32.003906 9.328125 C 27.285156 11.578125 22.890625 12.703125 18.816406 12.703125 Z M 30.074219 -49.855469 C 35.542969 -53.820312 40.792969 -58.191406 45.832031 -62.960938 C 50.871094 -67.730469 55.589844 -72.769531 59.984375 -78.078125 C 64.382812 -83.386719 68.457031 -88.851562 72.207031 -94.480469 C 75.960938 -100.109375 79.285156 -105.765625 82.179688 -111.449219 C 82.609375 -112.199219 82.957031 -113.136719 83.222656 -114.261719 C 83.492188 -115.386719 83.625 -116.488281 83.625 -117.558594 C 83.625 -118.738281 83.410156 -119.757812 82.984375 -120.613281 C 82.554688 -121.472656 81.75 -121.902344 80.570312 -121.902344 C 77.996094 -121.902344 74.863281 -120.023438 71.164062 -116.273438 C 67.464844 -112.519531 63.417969 -107.402344 59.019531 -100.914062 C 54.625 -94.429688 49.960938 -86.816406 45.03125 -78.078125 C 40.097656 -69.339844 35.113281 -59.933594 30.074219 -49.855469 Z M 30.074219 -49.855469 "/></g></g></g></svg>